<svg width="358" height="265" viewBox="0 0 358 265" fill="none" xmlns="http://www.w3.org/2000/svg">
<g clip-path="url(#clip0_246_774)">
<path d="M357.905 130.827C361.608 193.961 263.273 249.325 185.59 261.625C175.402 263.241 53.594 281.044 17.2334 215.054C3.38042 189.915 4.01484 156.409 13.2754 130.827C17.4891 119.17 25.2062 104.449 53.9159 77.8927C103.789 31.7659 136.807 1.22893 185.581 0.0377094C229.602 -1.04006 262.307 22.4819 285.44 38.8281C309.832 56.0536 355.396 88.245 357.896 130.836L357.905 130.827Z" fill="#DCF3F9"/>
<path d="M337.443 259.545C328.097 257.994 315.21 255.366 300.268 250.696C287.693 246.763 269.144 240.835 247.886 227.902C230.378 217.247 215.095 207.953 205.172 191.692C200.011 183.24 195.959 179.326 189.795 164.209C189.795 164.209 188.232 159.501 185.231 151.049C182.447 143.202 182.475 140.072 183.943 137.889C184.804 136.593 186.424 135.251 188.185 135.317C191.433 135.43 193.364 140.28 193.62 140.933C194.434 142.965 193.838 143.079 194.728 147.191C195.305 149.848 196.053 152.126 197.303 154.367C198.373 156.277 199.131 157.6 200.343 157.676C202.133 157.799 203.562 155.095 203.752 154.736C204.594 153.129 204.585 151.758 204.67 149.404C204.755 147.135 205.106 144.866 205.134 142.597C205.191 138.002 205.608 117.307 206.147 88.8687C206.261 88.3014 206.697 86.5902 208.268 85.2761C208.751 84.8696 210.304 83.5744 212.226 83.8958C214.101 84.2078 215.664 85.9379 216.099 88.2164C216.497 103.126 216.895 118.025 217.302 132.935C217.235 133.87 217.662 134.759 218.41 135.232C219.404 135.865 220.682 135.582 221.449 134.863C222.529 133.852 222.197 132.348 222.188 132.292C222.614 114.811 223.049 97.3302 223.475 79.8494C223.475 79.4807 223.475 77.3724 225.132 75.8976C225.445 75.614 226.657 74.5362 228.267 74.6969C229.971 74.8671 230.956 76.3136 231.496 77.0888C232.471 78.4975 232.66 79.9534 232.698 80.7665C233.162 98.5592 233.617 116.342 234.081 134.135C234.118 134.504 234.26 135.26 234.819 135.979C235.018 136.234 235.813 137.255 236.751 137.179C237.688 137.104 238.616 135.941 238.682 134.324C239.27 119.576 239.847 104.818 240.434 90.0694C240.472 89.5588 240.69 87.7531 242.186 86.3917C242.603 86.0135 243.644 85.0681 245.131 85.1059C247.138 85.1532 248.369 86.94 248.521 87.1669C248.653 87.3655 248.748 87.5546 248.814 87.6775C249.524 102.52 250.225 117.364 250.935 132.207C250.935 132.329 251.02 134.844 252.687 135.61C252.857 135.686 253.321 135.894 253.89 135.79C254.884 135.61 255.689 134.551 255.916 133.124C256.314 125.333 256.711 117.543 257.118 109.753C257.099 109.507 257.014 107.503 258.596 106.16C258.823 105.971 260.47 104.572 262.279 105.328C263.472 105.829 264.267 107.058 264.305 108.458L265.224 145.717C265.479 147.711 265.943 150.302 266.786 153.261C267.288 155.01 268.453 158.697 270.29 162.186C271.558 164.606 273.935 168.397 280.705 174.419C288.697 181.538 296.007 185.689 297.901 186.748C312.18 194.717 326.696 198.622 336.922 200.617" stroke="#FB8984" stroke-width="3" stroke-miterlimit="10"/>
<path d="M106.033 176.991C103.656 176.925 99.9253 176.471 96.3176 174.221C91.8009 171.404 89.8882 167.452 87.0665 160.598C85.2106 156.088 83.1274 149.915 81.5177 140.508C81.0253 137.643 80.4099 133.483 79.4346 118.801C78.9327 111.238 78.5634 104.279 78.2794 98.0208C78.2888 97.7466 78.4309 95.6761 80.1826 94.466C80.4288 94.2958 81.6313 93.4639 83.1085 93.7569C84.6993 94.0689 85.9776 95.5532 86.2806 97.4724C87.1517 103.164 88.0229 108.855 88.894 114.547C89.1591 115.785 89.8598 116.768 90.7972 116.995C92.0661 117.307 93.1929 116.088 93.8841 115.331C95.295 113.809 95.6737 111.994 95.7874 110.982C96.7342 96.6972 97.6906 82.412 98.6375 68.1267C98.7132 67.8242 99.2908 65.5836 101.488 64.572C101.829 64.4112 103.76 63.5226 105.682 64.572C107.444 65.5363 107.841 67.3798 107.898 67.654C108.239 80.5117 108.58 93.3788 108.93 106.236C109.063 106.898 109.441 108.364 110.511 108.77C110.511 108.77 111.752 109.233 113.835 107.503C117.698 104.289 117.897 69.923 117.878 57.2166C117.897 55.2218 118.92 53.4161 120.567 52.5557C120.889 52.3856 122.774 51.4496 124.686 52.395C126.239 53.1608 127.205 54.8625 127.139 56.7439C126.949 72.7687 126.77 88.7935 126.58 104.818C126.58 105.083 126.552 107.144 128.162 108.458C129.648 109.668 131.911 109.725 133.701 108.534C134.222 107.919 135.055 106.775 135.519 105.13C135.898 103.797 135.898 102.634 135.831 101.888C137.043 90.8167 138.255 79.7459 139.477 68.6751C139.515 68.5238 140.017 66.6046 141.778 65.9901C143.397 65.4228 145.376 66.2075 146.37 67.966C146.531 83.225 146.683 98.484 146.844 113.743C146.844 113.875 146.777 115.265 147.876 116.116C148.861 116.882 150.271 116.825 151.199 116.116C151.995 115.511 152.184 114.632 152.231 114.376C152.525 109.29 152.809 104.204 153.103 99.1175C153.046 97.6993 153.746 96.3757 154.921 95.714C156.066 95.0805 157.78 95.0049 158.803 96.0259C159.447 96.6688 159.56 97.4913 159.598 97.8411C159.475 101.765 159.191 107.229 158.49 113.734C158.064 117.695 157.742 120.663 157.061 124.407C155.337 133.871 152.676 140.735 149.694 148.289C147.042 155.02 145.669 158.442 143.359 161.411C139.193 166.781 134.42 169.504 131.637 171.054C121.571 176.67 111.572 177.162 106.014 176.963L106.033 176.991Z" stroke="#FB8984" stroke-width="3" stroke-miterlimit="10"/>
<path d="M98.1924 175.119C93.9977 174.987 89.7557 174.807 85.4852 174.58C55.4214 172.992 27.1 169.229 0.681763 164.039" stroke="#FB8984" stroke-width="3" stroke-miterlimit="10"/>
<path d="M79.444 118.801L0.492371 89.6724" stroke="#FB8984" stroke-width="3" stroke-miterlimit="10"/>
<path d="M72.8158 78.8286C60.421 75.8127 48.0262 72.8063 35.6409 69.7904C33.4252 69.2515 32.4783 72.6645 34.694 73.2128C47.0888 76.2287 59.4836 79.2351 71.8689 82.251C74.0846 82.7899 75.0315 79.3769 72.8158 78.8286Z" fill="#FB8984"/>
<path d="M89.6326 28.0692C84.5099 23.1341 79.3967 18.1896 74.274 13.2545C72.6264 11.6662 70.1172 14.1716 71.7648 15.7599C76.8874 20.6949 82.0006 25.6395 87.1233 30.5745C88.7709 32.1628 91.2802 29.6575 89.6326 28.0692Z" fill="#FB8984"/>
<path d="M122.045 18.2842C120.009 12.8197 117.982 7.35523 115.947 1.89072C115.161 -0.227008 111.723 0.690046 112.519 2.83614C114.555 8.30064 116.581 13.7651 118.617 19.2296C119.403 21.3474 122.84 20.4303 122.045 18.2842Z" fill="#FB8984"/>
<path d="M227.31 34.5263C230.927 29.7992 234.554 25.0627 238.171 20.3356C239.554 18.5204 236.476 16.7525 235.103 18.5488C231.486 23.2759 227.86 28.0124 224.242 32.7395C222.86 34.5547 225.937 36.3226 227.31 34.5263Z" fill="#FB8984"/>
<path d="M298.933 128.538C304.103 129.474 309.283 130.42 314.453 131.356C316.687 131.762 317.644 128.349 315.399 127.933C310.229 126.997 305.05 126.052 299.88 125.116C297.645 124.71 296.689 128.123 298.933 128.538Z" fill="#FB8984"/>
<path d="M84.1785 222.21C86.7256 219.516 89.2727 216.822 91.8104 214.137C93.3822 212.482 90.873 209.967 89.3011 211.631C86.754 214.326 84.2069 217.02 81.6692 219.705C80.0974 221.36 82.6066 223.874 84.1785 222.21Z" fill="#FB8984"/>
<path d="M144.571 240.608C144.192 236.826 143.804 233.045 143.425 229.263C143.198 227.013 139.647 226.994 139.874 229.263C140.253 233.045 140.641 236.826 141.02 240.608C141.247 242.858 144.798 242.877 144.571 240.608Z" fill="#FB8984"/>
<path d="M201.64 231.598C201.337 227.457 201.044 223.316 200.741 219.175C200.58 216.916 197.029 216.897 197.19 219.175C197.493 223.316 197.786 227.457 198.089 231.598C198.25 233.858 201.801 233.877 201.64 231.598Z" fill="#FB8984"/>
<path d="M297.91 86.6001C303.592 86.2597 309.264 85.9288 314.945 85.5885C317.217 85.4561 317.227 81.9108 314.945 82.0432C309.264 82.3835 303.592 82.7144 297.91 83.0548C295.638 83.1871 295.628 86.7324 297.91 86.6001Z" fill="#FB8984"/>
<path d="M272.998 52.5273C276.568 49.4925 280.137 46.4483 283.707 43.4135C285.449 41.9292 282.931 39.4333 281.198 40.9082C277.628 43.9429 274.058 46.9872 270.488 50.022C268.746 51.5063 271.265 54.0022 272.998 52.5273Z" fill="#FB8984"/>
<path d="M184.729 19.4092C184.274 13.7273 183.81 8.04533 183.356 2.36338C183.176 0.103833 179.625 0.0849249 179.805 2.36338C180.259 8.04533 180.723 13.7273 181.178 19.4092C181.358 21.6688 184.909 21.6877 184.729 19.4092Z" fill="#FB8984"/>
</g>
<defs>
<clipPath id="clip0_246_774">
<rect width="358" height="265" fill="white"/>
</clipPath>
</defs>
</svg>
