<svg width="3961" height="2368" viewBox="0 0 3961 2368" fill="none" xmlns="http://www.w3.org/2000/svg">
<g clip-path="url(#clip0_297_850)">
<path d="M3924.4 880.54C4053.9 1219.1 3803.98 1543.69 3722.4 1649.65C3330.81 2158.25 2606.5 2264.19 2219.4 2321.33C1345.6 2450.31 257.28 2312.62 59.4002 1900.56C-36.3298 1701.22 12.4002 1528.08 12.4002 1528.08C62.6902 1349.38 187.56 1348.17 238.4 1179.74C303.02 965.68 132.82 863.32 214.4 661.54C232.87 615.85 271.29 547.65 401.4 447.71C679.83 233.81 1437.79 -175.71 2021.9 82.97C2245.68 182.08 2201.66 278.15 2448.4 370.09C2856.78 522.27 3096.82 303.62 3475.4 453.73C3494.54 461.32 3814.48 593.15 3924.4 880.53V880.54Z" fill="#DEFFFE"/>
<path d="M845.4 823C930.452 823 999.4 754.052 999.4 669C999.4 583.948 930.452 515 845.4 515C760.348 515 691.4 583.948 691.4 669C691.4 754.052 760.348 823 845.4 823Z" fill="#1C586E"/>
<path d="M1034.4 700C1113.93 700 1178.4 635.529 1178.4 556C1178.4 476.471 1113.93 412 1034.4 412C954.871 412 890.4 476.471 890.4 556C890.4 635.529 954.871 700 1034.4 700Z" fill="#1C586E"/>
<path d="M1322.4 844C1401.93 844 1466.4 779.529 1466.4 700C1466.4 620.471 1401.93 556 1322.4 556C1242.87 556 1178.4 620.471 1178.4 700C1178.4 779.529 1242.87 844 1322.4 844Z" fill="#1C586E"/>
<path d="M1082.9 858C1189.21 858 1275.4 793.977 1275.4 715C1275.4 636.023 1189.21 572 1082.9 572C976.585 572 890.4 636.023 890.4 715C890.4 793.977 976.585 858 1082.9 858Z" fill="#1C586E"/>
<path d="M1208.4 718C1289.03 718 1354.4 652.634 1354.4 572C1354.4 491.366 1289.03 426 1208.4 426C1127.77 426 1062.4 491.366 1062.4 572C1062.4 652.634 1127.77 718 1208.4 718Z" fill="#1C586E"/>
<path d="M1011.27 1594.66C1022.67 1598.1 1033.95 1601.57 1045.12 1605.07C1046.59 1605.34 1048.81 1605.87 1051.34 1606.98C1052.22 1607.37 1061.95 1611.8 1066.09 1621.72C1066.82 1623.48 1068.14 1626.73 1067.79 1630.94C1067.7 1631.99 1067.53 1632.86 1067.39 1633.46C1052.6 1680.93 1046.37 1701.29 1045.51 1704.62C1045.44 1704.88 1045.17 1705.97 1044.66 1707.38C1044.24 1708.56 1043.03 1711.95 1040.84 1714.9C1037.32 1719.63 1032.5 1721.6 1030.61 1722.34C1028.3 1723.25 1024.67 1724.28 1020.25 1724.07C1018.31 1723.98 1016.7 1723.66 1015.55 1723.38C991.71 1716.05 967.88 1708.72 944.04 1701.39C943.62 1701.28 943.02 1701.11 942.31 1700.86C936.35 1698.72 932.98 1694.19 931.95 1692.76C930.93 1691.35 926.53 1684.94 927.46 1676.63C927.63 1675.12 927.94 1673.89 928.18 1673.07C930.94 1663.54 933.76 1653.94 936.65 1644.29C940.85 1630.29 945.1 1616.47 949.4 1602.84C949.57 1602.15 949.83 1601.19 950.25 1600.08C952.01 1595.38 954.84 1592.39 955.99 1591.26C957.1 1590.18 960.55 1587 966.14 1585.31C970.76 1583.91 974.73 1584.17 976.98 1584.48C988.33 1587.78 999.77 1591.17 1011.28 1594.65L1011.27 1594.66Z" fill="#184E61"/>
<path d="M978.8 1629.03C983.737 1629.03 987.74 1625.03 987.74 1620.09C987.74 1615.15 983.737 1611.15 978.8 1611.15C973.862 1611.15 969.86 1615.15 969.86 1620.09C969.86 1625.03 973.862 1629.03 978.8 1629.03Z" fill="white"/>
<path d="M966.66 1632.81C971.44 1634.28 976.23 1635.75 981.01 1637.22L966.72 1683.7C961.94 1682.23 957.15 1680.76 952.37 1679.29C957.13 1663.8 961.9 1648.3 966.66 1632.81Z" fill="white"/>
<path d="M988.87 1639.65C993.43 1641.05 997.98 1642.45 1002.54 1643.85L1000.75 1649.66C1001.18 1649.41 1001.63 1649.18 1002.09 1648.95C1006.19 1646.95 1010.3 1646.46 1013.68 1646.53C1014.28 1646.59 1014.89 1646.65 1015.49 1646.71C1016.29 1646.9 1017.35 1647.19 1018.57 1647.66C1018.57 1647.66 1019.98 1648.2 1021.2 1648.84C1026.72 1651.76 1029.67 1657.8 1029.67 1657.8C1030.66 1659.83 1032.28 1663.16 1031.35 1666.92C1031.24 1667.36 1031.12 1667.71 1031.03 1667.95C1027.7 1678.77 1024.37 1689.6 1021.05 1700.42C1016.27 1698.95 1011.48 1697.48 1006.7 1696.01C1009.47 1687.01 1012.24 1678.01 1015 1669.01C1015.06 1668.85 1015.14 1668.62 1015.21 1668.33C1015.87 1665.5 1014.02 1662.26 1011.63 1660.5C1009.89 1659.21 1008.13 1658.92 1007.29 1658.79C1006.42 1658.66 1004.27 1658.35 1001.87 1659.37C998.89 1660.64 997.51 1663.11 997.11 1663.89L988.91 1690.55C984.13 1689.08 979.34 1687.61 974.56 1686.14C979.32 1670.65 984.09 1655.15 988.85 1639.66L988.87 1639.65Z" fill="white"/>
<path d="M914.89 1372.93L876.5 1438.19L934.54 1429.06L914.89 1372.93Z" fill="#184E61"/>
<path d="M970.08 1449.12L989.79 1505.23L1028.1 1439.92" fill="#184E61"/>
<path d="M948.31 1444.17L1021.53 1432.39L924.74 1375.2" fill="#184E61"/>
<path d="M879.29 1446.09L938.02 1436.06L944.96 1452.32L962.54 1450.48L981.43 1506.16L879.29 1446.09Z" fill="#184E61"/>
<path d="M670.96 1563.34C679.69 1545.1 684.81 1535.76 697.41 1510.68C697.47 1510.56 697.78 1509.94 697.84 1509.82C698.08 1509.51 698.32 1509.21 698.56 1508.9C701.81 1505.29 705.53 1502.57 709.27 1503.12C709.65 1503.18 709.92 1503.25 710.04 1503.28C719.4 1505.78 807.04 1523.93 814.76 1524.84C814.86 1524.85 815.26 1524.9 815.77 1525.05C818.27 1525.78 820.92 1528.22 821.31 1531.51C821.56 1533.62 820.8 1535.31 820.36 1536.1C816.8 1542.61 797.37 1582.41 795.95 1585.34C795.85 1585.54 795.28 1586.72 794.31 1588.19C792.74 1590.56 790.23 1594.35 785.93 1595.51C785.11 1595.73 783.83 1595.96 782.17 1595.8C709.98 1580.91 681.27 1575.21 678.6 1575.01C678.42 1575 677.37 1574.93 676.06 1574.49C675.07 1574.16 672.56 1573.31 671.01 1570.79C669.61 1568.52 669.68 1566.01 670.03 1565.27C670.03 1565.25 670.21 1564.89 670.56 1564.16C670.56 1564.16 670.83 1563.6 670.96 1563.33V1563.34Z" fill="#184E61"/>
<path d="M723.28 1488.98C747.12 1493.89 770.95 1498.8 794.79 1503.71C796.18 1503.93 797.71 1504.36 799.25 1505.16C806.25 1508.8 807.83 1517.14 808.1 1518.69C746.38 1506.61 719.86 1501.04 714.27 1499.37C714.1 1499.32 713.11 1499.02 711.73 1498.85C705.39 1498.05 697.83 1500.8 694.31 1506.44C693.73 1507.37 693.37 1508.2 693.17 1508.73C686.96 1521.15 680.75 1533.57 674.54 1546C676.26 1537.66 677.97 1529.33 679.69 1520.99C682.53 1507.21 685.37 1493.43 688.2 1479.65L688.62 1477.61L689 1475.77L689.25 1474.55C690.14 1470.31 693.15 1468.44 693.15 1468.44C695.62 1466.9 698.32 1467.37 699.15 1467.55C705.07 1468.77 710.98 1469.99 716.9 1471.21C717.05 1471.23 717.44 1471.28 717.91 1471.42C721.25 1472.39 723.64 1476.13 724.15 1479.62C724.23 1480.19 724.29 1480.92 724.24 1481.77C723.92 1484.19 723.6 1486.6 723.28 1489.02V1488.98Z" fill="#184E61"/>
<path d="M918.48 1690.86C928.62 1788.73 938.77 1886.59 948.91 1984.46C949.08 1986.09 949.43 1988.74 950.29 1991.92C954.57 2007.75 967.95 2024.18 987.64 2030.49C990.39 2031.37 994.62 2032.49 1000.09 2032.98H1156.41C1159.01 2033.2 1161.33 2033.15 1163.33 2032.98C1184.73 2031.18 1204.19 2012.51 1207.6 1993.17C1208 1990.91 1208.07 1989.23 1208.09 1988.92C1208.78 1973.85 1217.67 1893.97 1242.19 1692.1V1690.86C1242.84 1690.99 1243.83 1691.1 1244.96 1690.86C1247.98 1690.22 1250.25 1687.44 1250.49 1684.64C1250.76 1681.53 1248.54 1678.46 1244.96 1677.18H914.33C910.59 1677.6 907.72 1680.26 907.41 1683.4C907.06 1686.95 910.07 1690.36 914.33 1690.86H918.48Z" fill="#666666"/>
<path d="M969.66 1726.93C975.65 1814.43 981.65 1901.93 987.64 1989.43C987.52 1990.05 987.44 1990.92 987.64 1991.92C988.84 1997.79 998.69 2001.95 1007.01 2001.87C1013.98 2001.8 1022.06 1998.74 1024.99 1993.16C1024.99 1993.16 1026.03 1991.18 1026.19 1988.9C1026.89 1978.49 1014.14 1789.84 1009.78 1725.69C1009.79 1725.58 1009.81 1725.37 1009.83 1725.1C1009.86 1724.61 1009.87 1723.96 1009.78 1723.2C1009.01 1716.58 1001.85 1709.68 993.18 1708.27C980.02 1706.13 969.69 1717.67 969.66 1720.71C969.66 1720.75 969.66 1720.89 969.66 1721.99C969.66 1723.09 969.66 1725.87 969.66 1726.93Z" fill="#DCF3F9"/>
<path d="M1196.87 1727.68C1188.75 1815.04 1180.64 1902.4 1172.52 1989.76C1172.62 1990.38 1172.69 1991.26 1172.46 1992.25C1171.1 1998.17 1160.86 2002.06 1152.86 2001.82C1141.37 2001.48 1134.57 1992.62 1133.74 1991.49C1141.43 1902.88 1149.11 1814.26 1156.8 1725.65C1156.79 1725.45 1156.78 1725.26 1156.76 1725.06C1156.74 1724.57 1156.75 1723.92 1156.86 1723.16C1157.79 1716.55 1165.11 1709.8 1173.82 1708.56C1187.03 1706.68 1197.08 1718.42 1197.03 1721.46C1197.03 1721.5 1197.03 1721.64 1197 1722.74C1196.97 1723.84 1196.91 1726.62 1196.88 1727.68H1196.87Z" fill="#DCF3F9"/>
<path d="M1063.73 1720.71V1986.94C1063.63 1987.58 1063.57 1988.44 1063.73 1989.43C1064.82 1996.15 1074.97 2001.96 1084.48 2001.87C1093.27 2001.79 1102.95 1996.66 1103.85 1990.67C1103.97 1989.91 1103.92 1989.25 1103.85 1988.78C1103.85 1899.84 1103.85 1810.9 1103.85 1721.95C1103.88 1721.62 1103.9 1721.2 1103.85 1720.71C1103.22 1714.42 1092.92 1708.18 1083.1 1708.27C1074.12 1708.35 1064.38 1713.73 1063.73 1719.47C1063.67 1719.97 1063.7 1720.4 1063.73 1720.71Z" fill="#DCF3F9"/>
<path d="M1082.86 1401.71C1093.69 1396.29 1100.81 1393.12 1104.98 1391.35C1105.71 1391.04 1106.6 1390.67 1107.88 1390.38C1115.21 1388.74 1122.37 1392.84 1126.69 1395.96C1128.42 1398.55 1130.15 1401.13 1131.88 1403.72C1149.71 1435.15 1167.55 1466.58 1185.38 1498.02C1192.93 1490.75 1200.49 1483.47 1208.04 1476.2C1213.48 1481.9 1218.91 1487.6 1224.35 1493.3C1227.97 1502.58 1231.58 1511.86 1235.2 1521.13C1224.19 1523.23 1213.17 1525.33 1202.16 1527.43C1223.79 1564.32 1245.42 1601.21 1267.05 1638.1C1267.83 1639.09 1268.56 1640.23 1269.14 1641.56C1272.17 1648.48 1268.94 1655.28 1267.79 1657.45C1266.92 1658.37 1265.98 1659.28 1264.96 1660.18C1256.03 1668.04 1245.15 1671.17 1237.04 1672.48C1185.65 1582.23 1134.25 1491.97 1082.86 1401.72V1401.71Z" fill="#666666"/>
<path d="M791.88 1230.63C804.21 1233.63 816.41 1236.67 828.5 1239.74C830.08 1239.95 832.47 1240.4 835.23 1241.41C836.19 1241.76 846.81 1245.84 851.9 1255.73C852.8 1257.48 854.42 1260.72 854.35 1265.01C854.33 1266.08 854.21 1266.97 854.11 1267.59C841.78 1316.37 836.6 1337.29 835.92 1340.71C835.87 1340.98 835.65 1342.09 835.21 1343.55C834.85 1344.76 833.8 1348.25 831.68 1351.34C828.29 1356.29 823.31 1358.49 821.36 1359.33C818.97 1360.35 815.2 1361.56 810.5 1361.53C808.43 1361.52 806.7 1361.27 805.47 1361.03C779.69 1354.62 753.91 1348.2 728.13 1341.79C727.68 1341.7 727.03 1341.55 726.26 1341.33C719.79 1339.41 715.9 1334.97 714.7 1333.56C713.52 1332.18 708.4 1325.86 708.8 1317.39C708.87 1315.85 709.11 1314.59 709.31 1313.75C711.56 1303.96 713.88 1294.11 716.27 1284.2C719.73 1269.82 723.27 1255.62 726.87 1241.61C727 1240.9 727.21 1239.91 727.58 1238.77C729.12 1233.93 731.9 1230.77 733.04 1229.58C734.14 1228.43 737.57 1225.06 743.38 1223.11C748.17 1221.5 752.4 1221.58 754.81 1221.81C767.07 1224.67 779.43 1227.62 791.89 1230.66L791.88 1230.63Z" fill="#184E61"/>
<path d="M758.01 1349.22C761.57 1334.9 765.13 1320.59 768.69 1306.27C763.33 1304.94 757.98 1303.61 752.62 1302.27C754.22 1296.39 755.81 1290.5 757.41 1284.62C762.64 1285.92 767.87 1287.22 773.1 1288.52C774.25 1283.91 775.4 1279.29 776.54 1274.68C776.63 1274.16 776.79 1273.42 777.07 1272.55C779.69 1264.36 787.96 1260.45 789.37 1259.78C797.69 1255.85 808.85 1257.39 818.19 1263.56L814.57 1278.11C811.08 1277.24 807.6 1276.37 804.11 1275.51C803.16 1275.43 802.35 1275.51 801.69 1275.66C796.59 1276.81 794.75 1282.94 794.54 1283.68L791.98 1293.97C797.58 1295.36 803.19 1296.76 808.79 1298.15L802.31 1314.63C797.45 1313.42 792.6 1312.21 787.74 1311C784.18 1325.32 780.62 1339.63 777.06 1353.95C770.71 1352.37 764.36 1350.79 758 1349.21L758.01 1349.22Z" fill="white"/>
<path d="M853.27 942.33C911.26 942.46 919.88 944.03 938.08 942.33C959.2 940.35 975.29 938.85 993.29 929.48C1027.41 911.72 1040.61 880.14 1044.5 870.51C1048.44 860.76 1059.27 832.73 1049.3 799.44C1034.76 750.89 987.82 730.7 978.89 726.86C962.17 719.67 947.06 717.22 937.28 716.28C939.56 707.98 941.97 695.65 941.28 680.74C939.41 640.39 916.21 612.81 909.28 605.13C870.74 562.49 815.02 560.23 803.67 559.77C754.38 557.77 718.62 578.77 706.06 586.99C702.9 582.29 698.17 575.85 691.66 568.84C660.94 535.82 622.47 524.74 606.85 520.45C589.24 515.61 537.41 501.37 480.43 524.99C469.3 529.6 429.35 546.8 403.62 588.5C377.37 631.05 381.27 674.26 382.82 691.32C383.62 700.12 384.94 707.4 386.02 712.49C378.1 713.45 366.56 715.71 354.02 721.56C333.38 731.2 321.94 745.02 314.01 754.83C304.51 766.58 288.88 785.91 285.21 815.32C281.2 847.43 293.77 872.84 301.21 884.88C326.08 925.09 368.58 936.92 378.02 939.32H488.44V1008.88H434.03C460.17 1038.62 486.3 1068.36 512.44 1098.1L594.05 1007.37C574.85 1007.87 555.64 1008.38 536.44 1008.88V942.35H642.05V1061.81H586.04C612.18 1091.55 638.31 1121.29 664.45 1151.03C690.59 1121.8 716.72 1092.56 742.86 1063.33H691.65C691.12 1022.5 690.58 981.68 690.05 940.85C723.65 941.35 757.26 941.86 790.86 942.36V1005.87C772.19 1006.37 753.52 1006.88 734.85 1007.38C762.05 1037.12 789.26 1066.86 816.46 1096.6C843.13 1066.86 869.8 1037.12 896.47 1007.38H840.46C839.93 985.71 839.39 964.03 838.86 942.36C842.17 942.36 847.18 942.35 853.26 942.36L853.27 942.33Z" fill="#DCF3F9"/>
<path d="M537.72 780.65L573 790.73C570.63 800.08 566.9 807.89 561.8 814.16C556.7 820.43 550.38 825.16 542.82 828.35C535.26 831.54 525.65 833.14 513.98 833.14C499.82 833.14 488.25 831.2 479.27 827.31C470.29 823.42 462.55 816.58 456.03 806.79C449.51 797 446.25 784.46 446.25 769.19C446.25 748.82 451.98 733.17 463.45 722.23C474.91 711.29 491.14 705.82 512.11 705.82C528.52 705.82 541.42 708.96 550.82 715.23C560.21 721.5 567.19 731.13 571.75 744.12L536.2 751.59C534.96 747.84 533.65 745.1 532.29 743.36C530.04 740.45 527.28 738.21 524.02 736.64C520.76 735.07 517.12 734.29 513.09 734.29C503.97 734.29 496.97 737.76 492.11 744.69C488.44 749.84 486.6 757.92 486.6 768.93C486.6 782.58 488.79 791.93 493.18 796.99C497.56 802.05 503.73 804.58 511.67 804.58C519.61 804.58 525.19 802.54 529.13 798.45C533.07 794.36 535.93 788.43 537.71 780.65H537.72Z" fill="#1C586E"/>
<path d="M587.49 769.57C587.49 749.47 593.41 733.82 605.27 722.62C617.12 711.42 633.62 705.82 654.77 705.82C675.92 705.82 693.17 711.32 704.9 722.32C716.63 733.32 722.5 748.73 722.5 768.55C722.5 782.94 719.94 794.74 714.81 803.95C709.68 813.16 702.28 820.33 692.59 825.45C682.9 830.57 670.83 833.13 656.37 833.13C641.91 833.13 629.51 830.92 619.89 826.5C610.26 822.08 602.45 815.08 596.47 805.5C590.48 795.93 587.49 783.95 587.49 769.55V769.57ZM627.75 769.73C627.75 782.16 630.19 791.09 635.08 796.52C639.97 801.95 646.62 804.67 655.03 804.67C663.44 804.67 670.38 802.01 675.12 796.69C679.86 791.37 682.23 781.82 682.23 768.05C682.23 756.46 679.76 747.99 674.81 742.64C669.86 737.29 663.15 734.62 654.68 734.62C646.21 734.62 640.04 737.34 635.13 742.77C630.21 748.2 627.75 757.19 627.75 769.73Z" fill="#1C586E"/>
<path d="M844.25 831.04H735.64C736.88 820.91 740.66 811.37 746.97 802.44C753.28 793.51 765.11 782.97 782.48 770.82C793.09 763.37 799.87 757.72 802.83 753.86C805.79 750 807.27 746.33 807.27 742.86C807.27 739.11 805.8 735.9 802.87 733.24C799.94 730.58 796.25 729.25 791.81 729.25C787.37 729.25 783.41 730.62 780.48 733.37C777.55 736.11 775.58 740.96 774.57 747.9L738.31 745.13C739.73 735.5 742.34 727.98 746.13 722.58C749.92 717.18 755.27 713.04 762.17 710.15C769.07 707.27 778.63 705.82 790.83 705.82C803.03 705.82 813.48 707.19 820.56 709.94C827.64 712.68 833.21 716.9 837.27 722.58C841.33 728.26 843.36 734.63 843.36 741.69C843.36 749.19 841.03 756.36 836.38 763.19C831.73 770.02 823.27 777.52 811.01 785.7C803.72 790.46 798.85 793.79 796.39 795.69C793.93 797.59 791.04 800.09 787.72 803.16H844.25V831.04Z" fill="#1C586E"/>
<path d="M1826.4 1442.44C1881.84 1442.44 1937.29 1442.44 1992.73 1442.44C1992.73 1454.29 1992.73 1466.14 1992.73 1478C2033.62 1448.96 2074.51 1419.93 2115.4 1390.89C2074.51 1361.26 2033.62 1331.63 1992.73 1302C1992.73 1314.44 1992.73 1326.89 1992.73 1339.33C1937.29 1339.92 1881.84 1340.52 1826.4 1341.11C1826.4 1374.89 1826.4 1408.67 1826.4 1442.44Z" fill="#1C586E"/>
<path d="M3085.2 1552.25C3098.56 1686.34 3111.92 1820.44 3125.27 1954.53C3125.49 1956.76 3125.96 1960.4 3127.09 1964.76C3132.73 1986.45 3150.34 2008.97 3176.27 2017.6C3179.9 2018.81 3185.46 2020.34 3192.66 2021.01H3398.49C3401.91 2021.31 3404.97 2021.24 3407.6 2021.01C3435.77 2018.54 3461.4 1992.97 3465.89 1966.46C3466.42 1963.36 3466.51 1961.06 3466.53 1960.64C3467.44 1939.99 3479.15 1830.54 3511.43 1553.95V1552.25C3512.29 1552.43 3513.6 1552.57 3515.07 1552.25C3519.04 1551.38 3522.03 1547.57 3522.36 1543.73C3522.72 1539.48 3519.79 1535.26 3515.07 1533.5H3079.72C3074.8 1534.07 3071.02 1537.72 3070.61 1542.02C3070.15 1546.89 3074.11 1551.55 3079.72 1552.25H3085.18H3085.2Z" fill="#666666"/>
<path d="M3152.6 1601.69C3160.49 1721.58 3168.39 1841.47 3176.28 1961.36C3176.12 1962.21 3176.01 1963.41 3176.28 1964.77C3177.85 1972.81 3190.83 1978.52 3201.78 1978.41C3210.95 1978.32 3221.59 1974.12 3225.46 1966.48C3225.46 1966.48 3226.83 1963.77 3227.03 1960.64C3227.95 1946.38 3211.16 1687.9 3205.42 1599.99C3205.44 1599.84 3205.47 1599.55 3205.49 1599.19C3205.53 1598.52 3205.54 1597.63 3205.42 1596.58C3204.4 1587.5 3194.98 1578.05 3183.56 1576.13C3166.23 1573.2 3152.63 1589.01 3152.59 1593.18C3152.59 1593.23 3152.59 1593.42 3152.59 1594.93C3152.59 1596.43 3152.59 1600.25 3152.59 1601.7L3152.6 1601.69Z" fill="#DCF3F9"/>
<path d="M3451.77 1602.72C3441.08 1722.42 3430.4 1842.12 3419.71 1961.82C3419.85 1962.68 3419.93 1963.87 3419.63 1965.23C3417.85 1973.34 3404.35 1978.67 3393.82 1978.34C3378.69 1977.87 3369.74 1965.73 3368.64 1964.19C3378.76 1842.77 3388.88 1721.36 3399 1599.94C3398.98 1599.67 3398.97 1599.4 3398.95 1599.14C3398.93 1598.47 3398.94 1597.58 3399.08 1596.54C3400.31 1587.49 3409.95 1578.23 3421.41 1576.54C3438.81 1573.97 3452.03 1590.04 3451.97 1594.21C3451.97 1594.26 3451.97 1594.45 3451.93 1595.96C3451.89 1597.46 3451.81 1601.28 3451.77 1602.73V1602.72Z" fill="#DCF3F9"/>
<path d="M3276.46 1593.16V1957.94C3276.33 1958.82 3276.25 1960 3276.46 1961.35C3277.89 1970.55 3291.26 1978.52 3303.78 1978.4C3315.35 1978.29 3328.1 1971.26 3329.28 1963.06C3329.43 1962.01 3329.37 1961.11 3329.28 1960.47C3329.28 1838.6 3329.28 1716.74 3329.28 1594.87C3329.32 1594.42 3329.34 1593.84 3329.28 1593.17C3328.46 1584.55 3314.89 1576 3301.96 1576.12C3290.14 1576.23 3277.31 1583.6 3276.46 1591.46C3276.39 1592.15 3276.41 1592.74 3276.46 1593.16Z" fill="#DCF3F9"/>
<path d="M3089.18 1530.3C3090.04 1513.73 3091.06 1503.1 3091.75 1496.94C3091.87 1495.87 3092.02 1494.55 3092.53 1492.83C3095.44 1482.99 3104.8 1477.25 3111.18 1474.23C3115.27 1473.93 3119.36 1473.62 3123.44 1473.32C3171.03 1473.41 3218.61 1473.51 3266.2 1473.6C3262.8 1459.67 3259.41 1445.75 3256.01 1431.82C3266.08 1429.22 3276.14 1426.61 3286.21 1424.01C3299.18 1426 3312.15 1427.99 3325.12 1429.98C3320.34 1444.51 3315.56 1459.05 3310.78 1473.58C3367.08 1472.86 3423.39 1472.13 3479.69 1471.41C3481.33 1471.15 3483.12 1471.06 3485.01 1471.27C3494.91 1472.35 3500.58 1480.82 3502.3 1483.66C3502.78 1485.32 3503.21 1487.06 3503.57 1488.88C3506.74 1504.85 3503.22 1519.91 3499.44 1530.46C3362.69 1530.41 3225.93 1530.36 3089.18 1530.31V1530.3Z" fill="#666666"/>
<path d="M3539.4 992.2C3632.18 992.2 3707.4 915.614 3707.4 821.14C3707.4 726.666 3632.18 650.08 3539.4 650.08C3446.62 650.08 3371.4 726.666 3371.4 821.14C3371.4 915.614 3446.62 992.2 3539.4 992.2Z" fill="#1C586E"/>
<path d="M3547.29 1015.2C3547.66 1043.95 3549.19 1203.02 3527.1 1220.77C3525.36 1222.17 3524.31 1222.01 3523.92 1221.91C3511.61 1218.78 3522.45 1113.56 3535.39 1013.52C3539.36 1014.08 3543.32 1014.63 3547.29 1015.19V1015.2Z" fill="#1C586E"/>
<path d="M3690.7 947.1C3713.58 966.13 3839.85 1071.8 3839.73 1101.03C3839.73 1103.34 3838.93 1104.05 3838.6 1104.29C3828.27 1111.83 3752.32 1032.65 3681.79 955.3C3684.76 952.57 3687.73 949.83 3690.71 947.1H3690.7Z" fill="#1C586E"/>
<path d="M3724.16 812.21C3754.04 810.4 3919.38 800.88 3939.01 822.45C3940.56 824.15 3940.45 825.23 3940.37 825.63C3937.77 838.31 3827.77 832.54 3723.05 824.4C3723.42 820.34 3723.79 816.28 3724.15 812.21H3724.16Z" fill="#1C586E"/>
<path d="M3340.74 829.38C3308.14 831.19 3127.76 840.71 3106.34 819.14C3104.65 817.44 3104.77 816.36 3104.86 815.96C3107.7 803.28 3227.7 809.05 3341.95 817.19C3341.55 821.25 3341.15 825.31 3340.74 829.38Z" fill="#1C586E"/>
<path d="M3531.21 624.69C3529.43 597.21 3520.08 445.18 3541.27 427.13C3542.94 425.7 3544 425.8 3544.39 425.88C3556.84 428.27 3551.18 529.41 3543.18 625.71C3539.19 625.37 3535.2 625.03 3531.21 624.69Z" fill="#1C586E"/>
<path d="M3386.69 975.42C3366.48 994.79 3254.33 1101.58 3226.8 1096.77C3224.63 1096.39 3224.03 1095.5 3223.84 1095.14C3217.76 1083.81 3299.94 1022.08 3379.85 965.37C3382.13 968.72 3384.41 972.07 3386.69 975.42Z" fill="#1C586E"/>
<path d="M3373.46 699.24C3352.09 677.4 3234.2 556.24 3236.89 526.8C3237.1 524.47 3237.96 523.85 3238.31 523.65C3249.37 517.25 3318.91 605.88 3383.15 692.02C3379.92 694.43 3376.68 696.84 3373.45 699.25L3373.46 699.24Z" fill="#1C586E"/>
<path d="M3682.19 697.82C3701.08 674.12 3805.93 543.31 3834.83 543.11C3837.11 543.09 3837.82 543.9 3838.05 544.23C3845.48 554.74 3766.96 633.6 3690.28 706.88C3687.59 703.86 3684.89 700.84 3682.2 697.82H3682.19Z" fill="#1C586E"/>
<path d="M179.4 1504.89C131.13 1516.8 98.5199 1650.96 179.4 2212.5C525.73 2214 872.07 2215.5 1218.4 2217C1218.02 2213.44 1217.52 2209.37 1216.84 2204.86C1216.84 2204.86 1213.22 2180.84 1205.4 2157.59C1198.15 2136.03 1060.03 1915.94 752.4 1871.31C610.31 1850.7 544.39 1883.82 475.4 1828.1C428.75 1790.42 437.93 1758.35 387.4 1681.36C333.12 1598.66 228.72 1492.74 179.4 1504.91V1504.89Z" fill="#3188A3"/>
<path d="M1690.4 1762.03C1815.75 1829.71 1860.82 2016.79 1772.86 2212.7C1426.53 2214.13 1080.19 2215.57 733.86 2217C734.24 2213.6 734.74 2209.71 735.42 2205.39C739.24 2181.19 745.65 2163.69 746.86 2160.2C761.55 2117.87 746.09 2016.24 783.4 1974.57C832.06 1920.22 942.52 1999.13 1088.4 1961.66C1238.37 1923.14 1228.46 1812.33 1395.4 1756.86C1412.5 1751.18 1574.47 1699.43 1690.4 1762.02V1762.03Z" fill="#1C586E"/>
<path d="M2385.41 1523.25C2339.38 1539.31 2330.17 1613.9 2327.28 1673.67C2322.25 1777.56 2336.6 1947.53 2385.41 2220.56C2731.74 2222.04 3078.08 2223.52 3424.41 2225C3422.97 2211.56 3419.73 2190.74 3411.41 2166.45C3407.45 2154.9 3325.86 1972.24 3010.41 1876.35C2790.43 1809.48 2704.66 1860.16 2635.4 1778.88C2582.52 1716.83 2603.56 1653.31 2518.4 1578.85C2503.01 1565.4 2435.02 1505.95 2385.41 1523.26V1523.25Z" fill="#9FE6F9"/>
<path d="M3827.41 1757.75C3952.76 1827.26 3997.83 2019.38 3909.87 2220.58C3563.54 2222.05 3217.2 2223.53 2870.87 2225C2871.25 2221.5 2871.75 2217.51 2872.43 2213.08C2876.25 2188.22 2882.66 2170.26 2883.87 2166.67C2898.56 2123.2 2883.1 2018.82 2920.41 1976.02C2969.07 1920.21 3079.53 2001.24 3225.41 1962.76C3375.38 1923.2 3365.47 1809.39 3532.41 1752.43C3549.51 1746.59 3711.48 1693.45 3827.41 1757.73V1757.75Z" fill="#3695B3"/>
<path d="M2888.95 1630.11C2899.86 1632.23 2903.11 1654.94 2906.35 1670.13C2906.35 1670.13 2917.99 1724.67 2968.99 1814.54C2970.45 1817.12 2974.41 1823.93 2975.95 1833.68C2976.24 1835.52 2978.36 1849.94 2972.47 1863.26C2962.42 1885.98 2933.47 1895.52 2911.57 1894.58C2887.81 1893.55 2871.79 1880.14 2866.33 1875.44C2863.33 1872.85 2849.64 1860.66 2841.97 1838.9C2834.29 1817.11 2840.08 1806.82 2845.45 1746.69C2847.83 1720 2847.45 1713.47 2850.67 1694.49C2855.41 1666.49 2862.31 1644.87 2878.51 1633.59C2883.24 1630.29 2886.31 1629.6 2888.95 1630.11Z" fill="#3188A3"/>
<path d="M2890.69 1779.74C2887.77 1781.71 2896.79 1798.69 2902.87 1812.8C2915.85 1842.95 2918.85 1868.09 2922.01 1894.57C2924.53 1915.66 2926.1 1944.91 2922.01 1979.82C2926.65 1983.88 2931.29 1987.94 2935.93 1992C2936.44 1987.82 2937.1 1981.82 2937.67 1974.6C2939.54 1950.93 2939.94 1919.86 2934.19 1878.91C2925.38 1816.15 2911.56 1797.36 2902.87 1788.44C2900.89 1786.41 2892.93 1778.23 2890.69 1779.74Z" fill="#1C586E"/>
<path d="M3830.72 1446.7C3841.43 1449.67 3842.88 1472.57 3844.91 1487.96C3844.91 1487.96 3852.22 1543.24 3895.97 1636.86C3897.23 1639.55 3900.63 1646.65 3901.4 1656.49C3901.55 1658.35 3902.52 1672.89 3895.6 1685.7C3883.79 1707.56 3854.18 1714.79 3832.43 1712.12C3808.82 1709.22 3793.91 1694.59 3788.84 1689.48C3786.05 1686.66 3773.37 1673.44 3767.44 1651.14C3761.5 1628.81 3768.09 1619.01 3778.17 1559.49C3782.65 1533.07 3782.78 1526.53 3787.49 1507.87C3794.43 1480.33 3803 1459.32 3820.04 1449.36C3825.02 1446.45 3828.13 1446 3830.72 1446.71V1446.7Z" fill="#3188A3"/>
<path d="M3820.67 1596C3817.61 1597.74 3825.26 1615.37 3830.21 1629.91C3840.77 1660.98 3841.78 1686.28 3842.85 1712.94C3843.7 1734.16 3842.96 1763.44 3836.13 1797.93C3840.44 1802.34 3844.74 1806.76 3849.05 1811.17C3849.88 1807.05 3851.02 1801.12 3852.16 1793.96C3855.89 1770.51 3858.73 1739.57 3856.23 1698.29C3852.39 1635.03 3840.09 1615.21 3832.14 1605.63C3830.33 1603.45 3823.03 1594.67 3820.68 1596H3820.67Z" fill="#1C586E"/>
<path d="M2521.42 1299.68C2531.92 1303.32 2531.93 1326.26 2533 1341.75C2533 1341.75 2536.83 1397.38 2574.63 1493.55C2575.72 1496.31 2578.67 1503.61 2578.82 1513.48C2578.85 1515.34 2578.91 1529.92 2571.2 1542.27C2558.04 1563.34 2528.03 1568.71 2506.49 1564.68C2483.11 1560.31 2469.14 1544.77 2464.41 1539.35C2461.8 1536.36 2449.97 1522.37 2445.45 1499.74C2440.92 1477.08 2448.11 1467.71 2461.91 1408.94C2468.03 1382.85 2468.58 1376.34 2474.44 1358C2483.09 1330.95 2492.97 1310.52 2510.59 1301.64C2515.74 1299.05 2518.88 1298.79 2521.42 1299.67V1299.68Z" fill="#3188A3"/>
<path d="M2502.03 1448.05C2498.86 1449.59 2505.4 1467.67 2509.42 1482.5C2518.01 1514.18 2517.44 1539.49 2516.83 1566.16C2516.35 1587.39 2513.78 1616.57 2504.8 1650.56C2508.82 1655.23 2512.84 1659.91 2516.86 1664.58C2517.95 1660.52 2519.45 1654.67 2521.04 1647.6C2526.23 1624.43 2531.01 1593.73 2531.1 1552.37C2531.24 1489 2520.2 1468.44 2512.86 1458.38C2511.19 1456.09 2504.46 1446.87 2502.03 1448.05Z" fill="#1C586E"/>
</g>
<defs>
<clipPath id="clip0_297_850">
<rect width="3960.95" height="2368" fill="white"/>
</clipPath>
</defs>
</svg>
