<svg width="1689" height="1805" viewBox="0 0 1689 1805" fill="none" xmlns="http://www.w3.org/2000/svg">
<path d="M715.18 411C800.232 411 869.18 342.052 869.18 257C869.18 171.948 800.232 103 715.18 103C630.128 103 561.18 171.948 561.18 257C561.18 342.052 630.128 411 715.18 411Z" fill="#1C586E"/>
<path d="M904.18 288C983.709 288 1048.18 223.529 1048.18 144C1048.18 64.471 983.709 0 904.18 0C824.651 0 760.18 64.471 760.18 144C760.18 223.529 824.651 288 904.18 288Z" fill="#1C586E"/>
<path d="M1192.18 432C1271.71 432 1336.18 367.529 1336.18 288C1336.18 208.471 1271.71 144 1192.18 144C1112.65 144 1048.18 208.471 1048.18 288C1048.18 367.529 1112.65 432 1192.18 432Z" fill="#1C586E"/>
<path d="M952.68 446C1058.99 446 1145.18 381.977 1145.18 303C1145.18 224.023 1058.99 160 952.68 160C846.365 160 760.18 224.023 760.18 303C760.18 381.977 846.365 446 952.68 446Z" fill="#1C586E"/>
<path d="M1078.18 306C1158.81 306 1224.18 240.634 1224.18 160C1224.18 79.3664 1158.81 14 1078.18 14C997.547 14 932.18 79.3664 932.18 160C932.18 240.634 997.547 306 1078.18 306Z" fill="#1C586E"/>
<path d="M881.051 1182.66C892.451 1186.1 903.73 1189.57 914.9 1193.07C916.37 1193.34 918.59 1193.87 921.12 1194.98C922 1195.37 931.73 1199.8 935.87 1209.72C936.6 1211.48 937.921 1214.73 937.571 1218.94C937.481 1219.99 937.311 1220.86 937.171 1221.46C922.381 1268.93 916.151 1289.29 915.291 1292.62C915.221 1292.88 914.951 1293.97 914.441 1295.38C914.021 1296.56 912.81 1299.95 910.62 1302.9C907.1 1307.63 902.28 1309.6 900.39 1310.34C898.08 1311.25 894.45 1312.28 890.03 1312.07C888.09 1311.98 886.48 1311.66 885.33 1311.38C861.49 1304.05 837.66 1296.72 813.82 1289.39C813.4 1289.28 812.8 1289.11 812.09 1288.86C806.13 1286.72 802.761 1282.19 801.731 1280.76C800.711 1279.35 796.311 1272.94 797.241 1264.63C797.411 1263.12 797.72 1261.89 797.96 1261.07C800.72 1251.54 803.541 1241.94 806.431 1232.29C810.631 1218.29 814.881 1204.47 819.181 1190.84C819.351 1190.15 819.61 1189.19 820.03 1188.08C821.79 1183.38 824.62 1180.39 825.77 1179.26C826.88 1178.18 830.331 1175 835.921 1173.31C840.541 1171.91 844.51 1172.17 846.76 1172.48C858.11 1175.78 869.551 1179.17 881.061 1182.65L881.051 1182.66Z" fill="#184E61"/>
<path d="M848.58 1217.03C853.518 1217.03 857.52 1213.03 857.52 1208.09C857.52 1203.15 853.518 1199.15 848.58 1199.15C843.643 1199.15 839.64 1203.15 839.64 1208.09C839.64 1213.03 843.643 1217.03 848.58 1217.03Z" fill="white"/>
<path d="M836.44 1220.81C841.22 1222.28 846.01 1223.75 850.79 1225.22L836.5 1271.7C831.72 1270.23 826.93 1268.76 822.15 1267.29C826.91 1251.8 831.68 1236.3 836.44 1220.81Z" fill="white"/>
<path d="M858.65 1227.65C863.21 1229.05 867.76 1230.45 872.32 1231.85L870.53 1237.66C870.96 1237.41 871.41 1237.18 871.87 1236.95C875.97 1234.95 880.08 1234.46 883.46 1234.53C884.06 1234.59 884.67 1234.65 885.27 1234.71C886.07 1234.9 887.13 1235.19 888.35 1235.66C888.35 1235.66 889.76 1236.2 890.98 1236.84C896.5 1239.76 899.45 1245.8 899.45 1245.8C900.44 1247.83 902.06 1251.16 901.13 1254.92C901.02 1255.36 900.9 1255.71 900.81 1255.95C897.48 1266.77 894.15 1277.6 890.83 1288.42C886.05 1286.95 881.26 1285.48 876.48 1284.01C879.25 1275.01 882.02 1266.01 884.78 1257.01C884.84 1256.85 884.92 1256.62 884.99 1256.33C885.65 1253.5 883.8 1250.26 881.41 1248.5C879.67 1247.21 877.91 1246.92 877.07 1246.79C876.2 1246.66 874.05 1246.35 871.65 1247.37C868.67 1248.64 867.29 1251.11 866.89 1251.89L858.69 1278.55C853.91 1277.08 849.12 1275.61 844.34 1274.14C849.1 1258.65 853.87 1243.15 858.63 1227.66L858.65 1227.65Z" fill="white"/>
<path d="M784.67 960.93L746.28 1026.19L804.32 1017.06L784.67 960.93Z" fill="#184E61"/>
<path d="M839.86 1037.12L859.57 1093.23L897.88 1027.92" fill="#184E61"/>
<path d="M818.091 1032.17L891.311 1020.39L794.521 963.2" fill="#184E61"/>
<path d="M749.07 1034.09L807.8 1024.06L814.74 1040.32L832.32 1038.48L851.21 1094.16L749.07 1034.09Z" fill="#184E61"/>
<path d="M540.74 1151.34C549.47 1133.1 554.59 1123.76 567.19 1098.68C567.25 1098.56 567.56 1097.94 567.62 1097.82C567.86 1097.51 568.1 1097.21 568.34 1096.9C571.59 1093.29 575.31 1090.57 579.05 1091.12C579.43 1091.18 579.7 1091.25 579.82 1091.28C589.18 1093.78 676.82 1111.93 684.54 1112.84C684.64 1112.85 685.04 1112.9 685.55 1113.05C688.05 1113.78 690.7 1116.22 691.09 1119.51C691.34 1121.62 690.58 1123.31 690.14 1124.1C686.58 1130.61 667.15 1170.41 665.73 1173.34C665.63 1173.54 665.06 1174.72 664.09 1176.19C662.52 1178.56 660.01 1182.35 655.71 1183.51C654.89 1183.73 653.61 1183.96 651.95 1183.8C579.76 1168.91 551.05 1163.21 548.38 1163.01C548.2 1163 547.15 1162.93 545.84 1162.49C544.85 1162.16 542.34 1161.31 540.79 1158.79C539.39 1156.52 539.46 1154.01 539.81 1153.27C539.81 1153.25 539.99 1152.89 540.34 1152.16C540.34 1152.16 540.61 1151.6 540.74 1151.33V1151.34Z" fill="#184E61"/>
<path d="M593.06 1076.98C616.9 1081.89 640.73 1086.8 664.57 1091.71C665.96 1091.93 667.49 1092.36 669.03 1093.16C676.03 1096.8 677.61 1105.14 677.88 1106.69C616.16 1094.61 589.64 1089.04 584.05 1087.37C583.88 1087.32 582.89 1087.02 581.51 1086.85C575.17 1086.05 567.61 1088.8 564.09 1094.44C563.51 1095.37 563.15 1096.2 562.95 1096.73C556.74 1109.15 550.53 1121.57 544.32 1134C546.04 1125.66 547.75 1117.33 549.47 1108.99C552.31 1095.21 555.15 1081.43 557.98 1067.65L558.4 1065.61L558.78 1063.77L559.03 1062.55C559.92 1058.31 562.93 1056.44 562.93 1056.44C565.4 1054.9 568.1 1055.37 568.93 1055.55C574.85 1056.77 580.76 1057.99 586.68 1059.21C586.83 1059.23 587.22 1059.28 587.69 1059.42C591.03 1060.39 593.42 1064.13 593.93 1067.62C594.01 1068.19 594.07 1068.92 594.02 1069.77C593.7 1072.19 593.38 1074.6 593.06 1077.02V1076.98Z" fill="#184E61"/>
<path d="M788.26 1278.86C798.4 1376.73 808.55 1474.59 818.69 1572.46C818.86 1574.09 819.21 1576.74 820.07 1579.92C824.35 1595.75 837.73 1612.18 857.42 1618.49C860.17 1619.37 864.4 1620.49 869.87 1620.98H1026.19C1028.79 1621.2 1031.11 1621.15 1033.11 1620.98C1054.51 1619.18 1073.97 1600.51 1077.38 1581.17C1077.78 1578.91 1077.85 1577.23 1077.87 1576.92C1078.56 1561.85 1087.45 1481.97 1111.97 1280.1V1278.86C1112.62 1278.99 1113.61 1279.1 1114.74 1278.86C1117.76 1278.22 1120.03 1275.44 1120.27 1272.64C1120.54 1269.53 1118.32 1266.46 1114.74 1265.18H784.11C780.37 1265.6 777.5 1268.26 777.19 1271.4C776.84 1274.95 779.85 1278.36 784.11 1278.86H788.26Z" fill="#666666"/>
<path d="M839.44 1314.93C845.43 1402.43 851.43 1489.93 857.42 1577.43C857.3 1578.05 857.22 1578.92 857.42 1579.92C858.62 1585.79 868.47 1589.95 876.79 1589.87C883.76 1589.8 891.84 1586.74 894.77 1581.16C894.77 1581.16 895.81 1579.18 895.97 1576.9C896.67 1566.49 883.92 1377.84 879.56 1313.69C879.57 1313.58 879.59 1313.37 879.61 1313.1C879.64 1312.61 879.65 1311.96 879.56 1311.2C878.79 1304.58 871.63 1297.68 862.96 1296.27C849.8 1294.13 839.47 1305.67 839.44 1308.71C839.44 1308.75 839.44 1308.89 839.44 1309.99C839.44 1311.09 839.44 1313.87 839.44 1314.93Z" fill="#DCF3F9"/>
<path d="M1066.65 1315.68C1058.53 1403.04 1050.42 1490.4 1042.3 1577.76C1042.4 1578.38 1042.47 1579.26 1042.24 1580.25C1040.88 1586.17 1030.64 1590.06 1022.64 1589.82C1011.15 1589.48 1004.35 1580.62 1003.52 1579.49C1011.21 1490.88 1018.89 1402.26 1026.58 1313.65C1026.57 1313.45 1026.56 1313.26 1026.54 1313.06C1026.52 1312.57 1026.53 1311.92 1026.64 1311.16C1027.57 1304.55 1034.89 1297.8 1043.6 1296.56C1056.81 1294.68 1066.86 1306.42 1066.81 1309.46C1066.81 1309.5 1066.81 1309.64 1066.78 1310.74C1066.75 1311.84 1066.69 1314.62 1066.66 1315.68H1066.65Z" fill="#DCF3F9"/>
<path d="M933.51 1308.71V1574.94C933.41 1575.58 933.35 1576.44 933.51 1577.43C934.6 1584.15 944.75 1589.96 954.26 1589.87C963.05 1589.79 972.73 1584.66 973.63 1578.67C973.75 1577.91 973.7 1577.25 973.63 1576.78C973.63 1487.84 973.63 1398.9 973.63 1309.95C973.66 1309.62 973.68 1309.2 973.63 1308.71C973 1302.42 962.7 1296.18 952.88 1296.27C943.9 1296.35 934.16 1301.73 933.51 1307.47C933.45 1307.97 933.48 1308.4 933.51 1308.71Z" fill="#DCF3F9"/>
<path d="M952.64 989.71C963.47 984.29 970.59 981.12 974.76 979.35C975.49 979.04 976.38 978.67 977.66 978.38C984.99 976.74 992.15 980.84 996.47 983.96C998.2 986.55 999.93 989.13 1001.66 991.72C1019.49 1023.15 1037.33 1054.58 1055.16 1086.02C1062.71 1078.75 1070.27 1071.47 1077.82 1064.2C1083.26 1069.9 1088.69 1075.6 1094.13 1081.3C1097.75 1090.58 1101.36 1099.86 1104.98 1109.13C1093.97 1111.23 1082.95 1113.33 1071.94 1115.43C1093.57 1152.32 1115.2 1189.21 1136.83 1226.1C1137.61 1227.09 1138.34 1228.23 1138.92 1229.56C1141.95 1236.48 1138.72 1243.28 1137.57 1245.45C1136.7 1246.37 1135.76 1247.28 1134.74 1248.18C1125.81 1256.04 1114.93 1259.17 1106.82 1260.48C1055.43 1170.23 1004.03 1079.97 952.64 989.72V989.71Z" fill="#666666"/>
<path d="M661.66 818.63C673.99 821.63 686.19 824.67 698.28 827.74C699.86 827.95 702.25 828.4 705.01 829.41C705.97 829.76 716.59 833.84 721.68 843.73C722.58 845.48 724.2 848.72 724.13 853.01C724.11 854.08 723.99 854.97 723.89 855.59C711.56 904.37 706.38 925.29 705.7 928.71C705.65 928.98 705.43 930.09 704.99 931.55C704.63 932.76 703.58 936.25 701.46 939.34C698.07 944.29 693.09 946.49 691.14 947.33C688.75 948.35 684.98 949.56 680.28 949.53C678.21 949.52 676.48 949.27 675.25 949.03C649.47 942.62 623.69 936.2 597.91 929.79C597.46 929.7 596.81 929.55 596.04 929.33C589.57 927.41 585.68 922.97 584.48 921.56C583.3 920.18 578.18 913.86 578.58 905.39C578.65 903.85 578.89 902.59 579.09 901.75C581.34 891.96 583.66 882.11 586.05 872.2C589.51 857.82 593.05 843.62 596.65 829.61C596.78 828.9 596.99 827.91 597.36 826.77C598.9 821.93 601.68 818.77 602.82 817.58C603.92 816.43 607.35 813.06 613.16 811.11C617.95 809.5 622.18 809.58 624.59 809.81C636.85 812.67 649.21 815.62 661.67 818.66L661.66 818.63Z" fill="#184E61"/>
<path d="M627.79 937.22C631.35 922.9 634.91 908.59 638.47 894.27C633.11 892.94 627.76 891.61 622.4 890.27C624 884.39 625.59 878.5 627.19 872.62C632.42 873.92 637.65 875.22 642.88 876.52C644.03 871.91 645.18 867.29 646.32 862.68C646.41 862.16 646.57 861.42 646.85 860.55C649.47 852.36 657.74 848.45 659.15 847.78C667.47 843.85 678.63 845.39 687.97 851.56L684.35 866.11C680.86 865.24 677.38 864.37 673.89 863.51C672.94 863.43 672.13 863.51 671.47 863.66C666.37 864.81 664.53 870.94 664.32 871.68L661.76 881.97C667.36 883.36 672.97 884.76 678.57 886.15L672.09 902.63C667.23 901.42 662.38 900.21 657.52 899C653.96 913.32 650.4 927.63 646.84 941.95C640.49 940.37 634.14 938.79 627.78 937.21L627.79 937.22Z" fill="white"/>
<path d="M723.05 530.33C781.04 530.46 789.66 532.03 807.86 530.33C828.98 528.35 845.07 526.85 863.07 517.48C897.19 499.72 910.39 468.14 914.28 458.51C918.22 448.76 929.051 420.73 919.081 387.44C904.541 338.89 857.6 318.7 848.67 314.86C831.95 307.67 816.84 305.22 807.06 304.28C809.34 295.98 811.75 283.65 811.06 268.74C809.19 228.39 785.99 200.81 779.06 193.13C740.52 150.49 684.8 148.23 673.45 147.77C624.16 145.77 588.4 166.77 575.84 174.99C572.68 170.29 567.95 163.85 561.44 156.84C530.72 123.82 492.25 112.74 476.63 108.45C459.02 103.61 407.19 89.37 350.21 112.99C339.08 117.6 299.13 134.8 273.4 176.5C247.15 219.05 251.05 262.26 252.6 279.32C253.4 288.12 254.72 295.4 255.8 300.49C247.88 301.45 236.34 303.71 223.8 309.56C203.16 319.2 191.72 333.02 183.79 342.83C174.29 354.58 158.66 373.91 154.99 403.32C150.98 435.43 163.55 460.84 170.99 472.88C195.86 513.09 238.36 524.92 247.8 527.32H358.22V596.88H303.81C329.95 626.62 356.08 656.36 382.22 686.1L463.83 595.37C444.63 595.87 425.42 596.38 406.22 596.88V530.35H511.83V649.81H455.82C481.96 679.55 508.09 709.29 534.23 739.03C560.37 709.8 586.5 680.56 612.64 651.33H561.431C560.901 610.5 560.36 569.68 559.83 528.85C593.43 529.35 627.04 529.86 660.64 530.36V593.87C641.97 594.37 623.3 594.88 604.63 595.38C631.83 625.12 659.04 654.86 686.24 684.6C712.91 654.86 739.58 625.12 766.25 595.38H710.24C709.71 573.71 709.17 552.03 708.64 530.36C711.95 530.36 716.96 530.35 723.04 530.36L723.05 530.33Z" fill="#DCF3F9"/>
<path d="M407.5 368.65L442.78 378.73C440.41 388.08 436.68 395.89 431.58 402.16C426.48 408.43 420.16 413.16 412.6 416.35C405.04 419.54 395.43 421.14 383.76 421.14C369.6 421.14 358.03 419.2 349.05 415.31C340.07 411.42 332.33 404.58 325.81 394.79C319.29 385 316.03 372.46 316.03 357.19C316.03 336.82 321.76 321.17 333.23 310.23C344.69 299.29 360.92 293.82 381.89 293.82C398.3 293.82 411.2 296.96 420.6 303.23C429.99 309.5 436.97 319.13 441.53 332.12L405.98 339.59C404.74 335.84 403.43 333.1 402.07 331.36C399.82 328.45 397.06 326.21 393.8 324.64C390.54 323.07 386.9 322.29 382.87 322.29C373.75 322.29 366.75 325.76 361.89 332.69C358.22 337.84 356.38 345.92 356.38 356.93C356.38 370.58 358.57 379.93 362.96 384.99C367.34 390.05 373.51 392.58 381.45 392.58C389.39 392.58 394.97 390.54 398.91 386.45C402.85 382.36 405.71 376.43 407.49 368.65H407.5Z" fill="#1C586E"/>
<path d="M457.271 357.57C457.271 337.47 463.191 321.82 475.051 310.62C486.901 299.42 503.401 293.82 524.551 293.82C545.701 293.82 562.951 299.32 574.681 310.32C586.411 321.32 592.281 336.73 592.281 356.55C592.281 370.94 589.721 382.74 584.591 391.95C579.461 401.16 572.061 408.33 562.371 413.45C552.681 418.57 540.611 421.13 526.151 421.13C511.691 421.13 499.291 418.92 489.671 414.5C480.041 410.08 472.23 403.08 466.25 393.5C460.26 383.93 457.271 371.95 457.271 357.55V357.57ZM497.531 357.73C497.531 370.16 499.971 379.09 504.861 384.52C509.751 389.95 516.401 392.67 524.811 392.67C533.221 392.67 540.161 390.01 544.901 384.69C549.641 379.37 552.01 369.82 552.01 356.05C552.01 344.46 549.541 335.99 544.591 330.64C539.641 325.29 532.931 322.62 524.461 322.62C515.991 322.62 509.821 325.34 504.911 330.77C499.991 336.2 497.531 345.19 497.531 357.73Z" fill="#1C586E"/>
<path d="M714.03 419.04H605.42C606.66 408.91 610.44 399.37 616.75 390.44C623.06 381.51 634.89 370.97 652.26 358.82C662.87 351.37 669.65 345.72 672.61 341.86C675.57 338 677.05 334.33 677.05 330.86C677.05 327.11 675.58 323.9 672.65 321.24C669.72 318.58 666.03 317.25 661.59 317.25C657.15 317.25 653.19 318.62 650.26 321.37C647.33 324.11 645.36 328.96 644.35 335.9L608.09 333.13C609.51 323.5 612.12 315.98 615.91 310.58C619.7 305.18 625.05 301.04 631.95 298.15C638.85 295.27 648.41 293.82 660.61 293.82C672.81 293.82 683.26 295.19 690.34 297.94C697.42 300.68 702.99 304.9 707.05 310.58C711.11 316.26 713.14 322.63 713.14 329.69C713.14 337.19 710.81 344.36 706.16 351.19C701.51 358.02 693.05 365.52 680.79 373.7C673.5 378.46 668.63 381.79 666.17 383.69C663.71 385.59 660.82 388.09 657.5 391.16H714.03V419.04Z" fill="#1C586E"/>
<path d="M49.1802 1092.89C0.910187 1104.8 -31.6998 1238.96 49.1802 1800.5C395.51 1802 741.85 1803.5 1088.18 1805C1087.8 1801.44 1087.3 1797.37 1086.62 1792.86C1086.62 1792.86 1083 1768.84 1075.18 1745.59C1067.93 1724.03 929.81 1503.94 622.18 1459.31C480.09 1438.7 414.17 1471.82 345.18 1416.1C298.53 1378.42 307.71 1346.35 257.18 1269.36C202.9 1186.66 98.5002 1080.74 49.1802 1092.91V1092.89Z" fill="#3188A3"/>
<path d="M1560.18 1350.03C1685.53 1417.71 1730.6 1604.79 1642.64 1800.7C1296.31 1802.13 949.97 1803.57 603.64 1805C604.02 1801.6 604.52 1797.71 605.2 1793.39C609.02 1769.19 615.43 1751.69 616.64 1748.2C631.33 1705.87 615.87 1604.24 653.18 1562.57C701.84 1508.22 812.3 1587.13 958.18 1549.66C1108.15 1511.14 1098.24 1400.33 1265.18 1344.86C1282.28 1339.18 1444.25 1287.43 1560.18 1350.02V1350.03Z" fill="#1C586E"/>
</svg>
