<svg width="58" height="44" viewBox="0 0 58 44" fill="none" xmlns="http://www.w3.org/2000/svg">
<path d="M33.909 0.0419989C33.5617 0.142735 33.2145 0.380841 32.7118 0.852474C32.0264 1.50269 31.9213 1.5439 31.3273 1.3699C30.8749 1.24169 30.6373 1.23253 30.4179 1.33327C30.2169 1.434 30.1392 1.55305 30.0341 1.93769C29.8376 2.66116 29.9747 2.87637 30.9023 3.27932C31.3364 3.46706 32.0538 3.69143 32.8717 3.8929C33.4384 4.03485 35.947 4.95064 38.675 6.00838C41.2613 7.01117 41.6908 7.18975 44.0669 8.23376C48.4034 10.134 51.3278 11.526 53.448 12.6937C55.0428 13.5728 55.4221 13.7606 55.6322 13.7606C55.8516 13.7606 56.0801 13.6507 56.3588 13.408C56.473 13.3118 56.6649 13.1516 56.7838 13.0554C57.2544 12.6799 57.1539 12.4052 56.3862 11.9748C56.1623 11.8466 56.1029 11.7824 56.0115 11.5856C55.8881 11.32 55.6734 10.3996 55.6734 10.1478C55.6734 9.90508 55.5546 9.47465 55.4083 9.20907C55.1068 8.64586 54.5996 8.27955 52.5204 7.13481C51.1633 6.38386 50.5921 6.09538 49.7011 5.70159L49.3758 5.55698C49.1998 5.47872 49.1252 5.26903 49.2122 5.09717C49.4406 4.64385 49.5229 4.29127 49.4589 4.04401C49.3629 3.68685 49.0888 3.4808 47.9464 2.91758C45.9313 1.92395 43.7745 1.06311 42.6778 0.825001C41.8416 0.641842 41.275 0.902843 40.8272 1.68127C40.7449 1.82779 40.6718 1.94685 40.6672 1.94685C40.6627 1.94685 40.0641 1.73163 39.3375 1.46605C35.9744 0.238894 34.5396 -0.13658 33.909 0.0419989ZM33.8496 1.08142C33.9034 1.07652 33.8827 1.1284 33.8311 1.11221C33.8281 1.11125 33.8251 1.11015 33.8222 1.1089C33.7856 1.09516 33.7993 1.08142 33.8496 1.08142ZM33.6486 1.18216C33.4932 1.26458 33.3744 1.30579 33.3744 1.2829C33.3744 1.25084 33.6211 1.12721 33.6942 1.12263C33.7308 1.12263 33.7125 1.15011 33.6486 1.18216ZM43.4866 2.26737C43.7562 2.34064 44.1766 2.48716 44.4234 2.58332C45.4286 2.98627 47.462 3.97075 47.7819 4.21343C47.8596 4.26838 47.8596 4.29127 47.7956 4.53396C47.7482 4.71814 47.6219 4.77698 47.4464 4.70369C47.2655 4.62815 47.0087 4.51774 46.7264 4.39201C45.6434 3.9158 43.9024 3.1969 42.856 2.79395C42.4813 2.64743 42.1523 2.51464 42.134 2.49632C42.1158 2.478 42.1843 2.37727 42.2894 2.26737C42.4768 2.07506 42.4813 2.07048 42.7372 2.09795C42.8789 2.11627 43.2124 2.18953 43.4866 2.26737ZM45.0494 4.86822C45.0357 4.88196 44.9991 4.86822 44.9671 4.83617C44.926 4.79038 44.9306 4.7858 44.9945 4.81327C45.0402 4.82701 45.0631 4.85448 45.0494 4.86822ZM46.6487 7.24012C46.7755 7.27003 46.8173 7.36791 46.6972 7.31726C46.6735 7.30727 46.6492 7.29521 46.6258 7.28133C46.6036 7.26796 46.6169 7.23374 46.6423 7.23884L46.6487 7.24012ZM50.2997 8.27039C50.3535 8.26548 50.3328 8.31736 50.2812 8.30117C50.2782 8.30022 50.2752 8.29912 50.2723 8.29786C50.2357 8.28412 50.2494 8.27039 50.2997 8.27039ZM53.0733 10.2668C53.1328 10.3355 53.1282 10.3355 53.0231 10.2806C52.8677 10.2027 52.8586 10.189 52.9408 10.189C52.982 10.189 53.0414 10.221 53.0733 10.2668ZM54.7412 11.091C54.7321 11.1002 54.6909 11.091 54.6498 11.0773C54.5858 11.0544 54.5813 11.0361 54.627 11.0086C54.6818 10.9766 54.7823 11.0544 54.7412 11.091Z" fill="white"/>
<path d="M22.4717 1.62176C21.8137 1.94686 21.2654 2.23076 21.2471 2.25823C21.1603 2.40018 18.9807 8.84278 18.9807 8.95725C18.9807 9.13125 19.0812 9.33272 19.232 9.4472C19.2959 9.50215 19.5793 9.61662 19.8626 9.71278C20.1459 9.80436 20.3835 9.88678 20.3926 9.89594C20.4018 9.90509 20.3241 10.1569 20.2144 10.4591C20.0042 11.0544 19.9996 11.1826 20.1687 11.4574C20.2144 11.5398 20.3195 11.6359 20.3926 11.6772C20.7125 11.842 25.4556 13.4446 25.6338 13.4492C25.8486 13.4538 26.0816 13.3393 26.205 13.1653C26.2461 13.1012 26.8219 11.4803 27.4799 9.55709C28.8141 5.66956 28.7639 5.87561 28.4486 5.56424C28.3206 5.43603 28.1607 5.35361 27.7769 5.22082C27.4308 5.09944 27.3025 4.85237 27.4179 4.50423C27.4688 4.35046 27.5289 4.17276 27.5941 3.9845C27.9916 2.8306 27.9962 2.7436 27.7403 2.47344C27.6124 2.33607 27.3839 2.24907 25.7206 1.67671C24.6879 1.31955 23.806 1.03107 23.7557 1.03565C23.7055 1.03565 23.1297 1.30123 22.4717 1.62176ZM26.5751 2.5055C27.0183 2.6566 27.393 2.80771 27.4067 2.84434C27.4387 2.92676 24.761 10.743 24.6879 10.7888C24.6194 10.83 24.6833 10.8529 21.928 9.89594C20.2053 9.30067 19.5016 9.03967 19.4924 8.9893C19.4833 8.94809 19.9677 7.49656 20.5617 5.75656L21.338 3.49499C21.5345 2.92253 21.9483 2.45034 22.49 2.18039C22.9561 1.94686 23.3216 1.7866 23.3125 1.81865C23.2988 1.85071 23.2348 2.0476 23.1663 2.25365C23.0977 2.46429 23.0246 2.64287 23.0018 2.6566C22.9835 2.66576 22.8144 2.62455 22.6317 2.56044C22.2615 2.43681 22.1199 2.45513 22.065 2.63371C22.0102 2.80313 22.1427 2.92676 22.5403 3.06413C23.2165 3.30224 23.3719 3.18776 23.7009 2.23076C23.8247 1.87623 24.2118 1.68843 24.5669 1.81059L24.8433 1.90565C25.3505 2.08423 26.1319 2.34981 26.5751 2.5055ZM27.3336 5.60545C27.3748 5.62835 27.3245 5.66498 27.2011 5.71535C27.096 5.75656 27.0001 5.78403 26.9909 5.77487C26.9818 5.76572 26.9955 5.70619 27.0229 5.6375C27.0686 5.51387 27.1417 5.50471 27.3336 5.60545ZM27.9322 5.79777C28.0876 5.85272 28.179 5.97635 28.1379 6.07709C28.1218 6.11571 27.3991 6.48916 26.96 6.69811C26.7456 6.80012 26.655 6.71727 26.735 6.49377C26.8082 6.2856 26.961 6.11501 27.1599 6.01951L27.2879 5.95803C27.7952 5.71993 27.7449 5.73366 27.9322 5.79777ZM27.882 6.84635C27.7632 7.18519 27.786 7.1623 26.8767 7.5973L26.5695 7.74216C26.4512 7.79796 26.3236 7.68481 26.3649 7.56067C26.4352 7.35235 26.5846 7.18008 26.781 7.08111L27.2194 6.86009C27.3849 6.7781 27.539 6.70446 27.6643 6.64718C27.8664 6.5547 27.9539 6.63599 27.882 6.84635ZM27.5256 7.87662C27.4612 8.07012 27.3226 8.23014 27.1403 8.3215L26.6939 8.54514C26.531 8.62675 26.3787 8.70084 26.2541 8.7592C26.0487 8.85542 25.9478 8.77465 26.0176 8.55888C26.0819 8.36286 26.2231 8.20144 26.4089 8.1118L26.8584 7.89493C27.2605 7.70262 27.5987 7.54693 27.6078 7.55609C27.6169 7.56525 27.5804 7.70719 27.5256 7.87662ZM27.1691 8.88857C27.0901 9.11162 26.9267 9.29477 26.714 9.39867L26.3055 9.5983C26.1508 9.67066 26.0071 9.73523 25.8882 9.78618C25.6761 9.87707 25.5859 9.78556 25.6703 9.57083C25.7349 9.39441 25.8646 9.24942 26.0328 9.16568L26.5248 8.92062C26.6849 8.8404 26.8347 8.76573 26.9581 8.70445C27.1659 8.60128 27.247 8.67005 27.1691 8.88857ZM26.9315 9.61204C26.9315 9.62578 26.8767 9.77688 26.8127 9.95088C26.7394 10.1535 26.5902 10.3197 26.3966 10.4143L25.9765 10.6194C25.579 10.8117 25.2408 10.9674 25.2271 10.9674C25.2134 10.9674 25.2454 10.83 25.3048 10.656C25.3692 10.4594 25.5083 10.296 25.6921 10.201L26.1319 9.97378C26.831 9.61204 26.9315 9.57083 26.9315 9.61204ZM21.27 10.2027C21.3294 10.2273 21.3313 10.3108 21.2731 10.338L21.0826 10.4271C20.8953 10.5141 20.7308 10.5828 20.7216 10.5736C20.717 10.569 20.7445 10.4546 20.7856 10.3264C20.8587 10.102 20.8724 10.0883 20.9912 10.1157C21.0598 10.1295 21.1877 10.1661 21.27 10.2027ZM21.7178 10.9766C21.1146 11.2696 20.941 11.3337 20.8267 11.3108C20.6576 11.2788 20.5114 11.1368 20.5525 11.0361C20.5663 10.9949 20.8496 10.83 21.1786 10.6744L21.4554 10.5399C21.6643 10.4383 21.905 10.4241 22.1244 10.5004C22.2494 10.5421 22.2604 10.7146 22.1418 10.7719L21.7178 10.9766ZM26.5385 10.6469C26.5828 10.6469 26.546 10.7231 26.5327 10.7653C26.5131 10.8277 26.4824 10.924 26.4517 11.0224C26.3992 11.1862 26.2822 11.3216 26.1278 11.3975L25.2043 11.8512L24.3677 12.2637C24.1601 12.3661 23.9205 12.3824 23.7009 12.309C23.5136 12.2449 23.3673 12.19 23.3765 12.1808C23.413 12.1488 26.502 10.6515 26.5385 10.6469ZM23.1252 10.8346C23.329 10.9112 23.3429 11.0315 23.15 11.1325C23.0288 11.196 22.8762 11.2721 22.7093 11.352L22.247 11.5724C22.0628 11.6602 21.8518 11.6731 21.6584 11.6085C21.4939 11.5535 21.3568 11.494 21.3568 11.4757C21.3568 11.4521 22.114 11.069 22.5431 10.8664C22.7304 10.778 22.9293 10.7671 23.1252 10.8346ZM24.2173 11.2147C24.3339 11.2553 24.3433 11.4166 24.2323 11.4706L23.7603 11.7L23.1597 11.9868C23.0471 12.0406 22.9175 12.0461 22.8007 12.0023C22.2844 11.8099 22.2524 11.8695 23.0703 11.4665C23.2277 11.3913 23.3773 11.3202 23.5028 11.2616C23.7325 11.1544 23.9769 11.1344 24.2173 11.2147ZM26.1044 12.0114C26.0403 12.2159 25.8943 12.3847 25.7012 12.4776L25.547 12.5517C25.0535 12.7898 25.0032 12.7898 24.5463 12.6021C24.4873 12.577 24.4851 12.4942 24.5427 12.4661L25.2865 12.103C25.5107 11.9938 25.7186 11.8942 25.8785 11.8193C26.0797 11.725 26.1762 11.8011 26.1044 12.0114ZM25.8257 12.8219C25.7846 12.9089 25.7389 12.9364 25.6201 12.9364C25.4236 12.9364 25.4282 12.886 25.6429 12.7898C25.876 12.6891 25.8851 12.6891 25.8257 12.8219Z" fill="white"/>
<path d="M16.344 11.1506C16.1567 11.2925 16.1156 11.3566 15.8962 11.8832C15.7592 12.2083 15.4256 12.8723 15.1423 13.3714C15.0418 13.5454 14.8955 13.8567 14.8178 14.0536C14.6625 14.452 14.3655 15.0656 14.137 15.4548C14.0547 15.5922 13.8994 15.9493 13.7897 16.2515C13.6558 16.6095 13.6334 16.9995 13.7255 17.3704L13.8171 17.7397C14.1873 19.2279 14.3883 19.8277 14.9138 21.0182C15.2291 21.728 15.2611 21.9157 15.3251 23.2161C15.3525 23.7427 15.3982 24.3105 15.4256 24.4754C15.517 25.0202 15.517 25.4781 15.421 26.1009L15.3748 26.4018C15.3456 26.5923 15.2523 26.7672 15.1103 26.8976C14.9915 27.0121 14.7219 27.2594 14.5163 27.4563C14.0867 27.8546 13.5384 28.2438 12.9032 28.5964C12.0442 29.0726 11.24 29.6771 10.1616 30.6524C9.92395 30.8676 9.71832 31.0645 9.70919 31.0919C9.66349 31.2202 9.14257 31.6506 8.05961 32.4656C7.40618 32.9602 6.55625 33.6379 6.17242 33.9675C5.78858 34.3018 5.24482 34.7689 4.96608 35.0024C4.68277 35.2359 4.44973 35.4557 4.44973 35.4923C4.44973 35.529 4.52284 35.5656 4.64165 35.5839C4.71757 35.5966 4.74404 35.6922 4.68544 35.7421L4.65079 35.7716C4.55483 35.8586 4.2304 36.0693 3.92881 36.2341C3.50842 36.4722 3.37134 36.573 3.33021 36.6783C3.27081 36.8156 3.08346 37.8368 2.96466 38.6472C2.9281 38.8716 2.87784 39.1738 2.84585 39.3158C2.81059 39.4777 2.83756 39.647 2.92139 39.7899L3.05148 40.0118C3.39419 40.5979 3.55869 40.7856 3.71405 40.7673C3.82371 40.7536 3.85113 40.694 4.16642 39.7004C4.60966 38.3038 4.73761 37.9787 4.97979 37.5803C5.25396 37.1408 5.52356 36.8706 6.03991 36.5272C6.36891 36.3074 6.50599 36.2433 6.63394 36.2433C6.73446 36.2433 6.88983 36.1883 7.0132 36.1151C7.13201 36.0464 7.95908 35.4053 8.85013 34.6864C10.1661 33.6287 10.5271 33.3631 10.7556 33.2715C10.9155 33.212 11.208 33.0517 11.409 32.9144C11.6147 32.7816 11.9756 32.5847 12.2133 32.4794C12.7524 32.2458 14.3106 31.4537 14.9595 31.0874L15.2788 30.9076C15.3298 30.8788 15.3147 30.8016 15.2565 30.7943C15.0418 30.7668 15.028 30.7714 15.782 30.5104C16.0699 30.4143 16.4491 30.2494 16.6182 30.1441C17.0112 29.9152 17.3585 29.8511 18.3957 29.8144C19.0309 29.7915 19.3416 29.7549 20.2464 29.5855C21.3568 29.3794 22.3209 29.2375 22.6362 29.2375C22.9149 29.2375 22.8875 29.3153 22.5996 29.3428C21.9599 29.4115 21.5852 29.5076 21.3202 29.6771C20.9638 29.906 20.388 30.3502 20.155 30.5745C19.8671 30.8538 19.5335 31.1103 19.3279 31.2156C19.0629 31.3484 18.7247 31.6094 18.6608 31.733C18.6105 31.8292 18.6425 31.9024 18.9761 32.4611C19.5107 33.3448 19.497 33.3173 19.9905 35.1077C20.0133 35.2039 20.0453 35.2817 20.0545 35.2817C20.0636 35.2817 20.1504 35.2313 20.2418 35.1672C20.3332 35.1031 20.4383 35.0527 20.4703 35.0527C20.5662 35.0527 20.5937 34.7689 20.5617 34.1873C20.484 32.7587 20.4748 32.3191 20.5251 32.2321C20.5662 32.1634 20.5754 32.2001 20.5799 32.429C20.5799 32.6167 20.5982 32.7175 20.6348 32.7175C20.6622 32.7175 20.7993 32.5938 20.9364 32.4427C21.3705 31.9574 21.9873 31.4903 24.2584 29.9243C25.0763 29.3611 25.6292 28.9078 25.7206 28.7292C25.7617 28.6559 25.7891 28.4774 25.7891 28.3125C25.7891 28.1282 25.7139 27.9519 25.5809 27.8244L25.3687 27.6211C25.1357 27.3967 24.8707 27.1815 24.7838 27.1449C24.665 27.0899 24.3452 27.0625 23.5044 27.035C22.8875 27.0121 22.1381 26.9709 21.8365 26.9388C21.535 26.9068 20.781 26.8793 20.1641 26.8793C19.6458 26.8793 19.3089 26.3336 19.5411 25.8702L19.5792 25.7941C20.1915 24.5669 20.2144 24.4891 20.2144 23.5412C20.2144 23.1607 20.0606 22.7962 19.7879 22.5307L19.5655 22.3141L19.1139 21.8774C19.0198 21.7865 19.0481 21.6293 19.168 21.5769C19.3051 21.5128 19.5518 21.4029 19.7209 21.325C19.9157 21.2363 20.0729 21.0817 20.165 20.8885L20.2144 20.7847C20.3195 20.5603 20.516 20.1208 20.6531 19.814L20.8335 19.4063C20.8777 19.3065 20.8682 19.191 20.8084 19.0997C20.685 18.8936 20.1504 18.4494 19.8351 18.2892C19.3051 18.019 18.9486 18.0328 18.3912 18.3533C18.1124 18.509 18.0393 18.5777 17.9662 18.7379C17.884 18.9257 17.8931 19.0997 17.9845 19.0401C18.0713 18.9898 17.9982 19.6308 17.8885 19.8735C17.7743 20.1299 17.4316 20.6748 17.3859 20.6702C17.3722 20.6702 17.1437 20.4001 16.8832 20.0704C16.4491 19.5301 16.4035 19.4522 16.3669 19.2187C16.344 19.0676 16.2115 18.7242 16.0562 18.3853C15.9054 18.0694 15.7409 17.639 15.6906 17.4283C15.5992 17.062 15.5992 17.03 15.6678 16.8331C15.7089 16.7186 15.7911 16.3935 15.846 16.1188C15.9054 15.8394 15.9922 15.4411 16.047 15.2259C16.0973 15.0106 16.175 14.6626 16.2115 14.4566C16.2938 13.9987 16.5634 13.3897 16.7553 13.2294C16.865 13.1379 16.9335 13.115 17.0889 13.1241C17.2579 13.1379 17.3128 13.115 17.427 13.0051C17.5001 12.9318 17.5778 12.8311 17.5915 12.7807C17.6098 12.7257 17.6783 12.6113 17.7469 12.5243C17.8154 12.4373 17.9342 12.2358 18.0165 12.0801C18.0982 11.9163 18.0495 11.7174 17.9013 11.6099L17.8931 11.6039C17.7514 11.4986 17.5687 11.3658 17.4956 11.3108C17.3722 11.2193 16.7462 11.0132 16.5908 11.0132C16.5588 11.0132 16.4491 11.0773 16.344 11.1506Z" fill="white"/>
<path d="M43.2674 14.1726C42.5911 14.191 41.2203 14.2322 40.2287 14.2596C39.2371 14.2871 38.0216 14.3283 37.5327 14.3558C37.0438 14.3787 35.7872 14.4336 34.7453 14.4703C33.7035 14.5115 32.3464 14.571 31.7295 14.6076C31.1126 14.6443 30.2079 14.6946 29.7189 14.7221C27.8774 14.8183 26.4472 14.9648 26.1776 15.0838C26.0725 15.1296 25.9126 15.235 25.8212 15.3174C25.6612 15.4547 25.6521 15.4822 25.6521 15.7249C25.6521 16.0317 25.7618 16.3934 25.8943 16.5445C25.9491 16.5995 26.0816 16.6727 26.1913 16.7002C26.438 16.7597 26.598 16.9658 26.7899 17.4649C27.1189 18.3303 27.2057 18.9668 27.5256 22.7353C27.6261 23.8983 27.6535 24.9332 27.7495 31.7558C27.7769 33.4821 27.8089 34.984 27.8226 35.0985C27.8363 35.213 27.8683 35.8906 27.8911 36.6095C27.9368 37.9832 28.0008 38.5785 28.1836 39.334C28.3983 40.2223 28.6679 40.7214 29.1158 41.0786C29.3899 41.2938 30.0616 41.6555 30.2855 41.7105C30.3586 41.7288 31.2131 41.7609 32.1819 41.7838C33.1506 41.8067 34.4072 41.8479 34.9738 41.8708C36.5366 41.9394 44.7479 42.031 45.9771 41.9944C47.1789 41.9578 47.9282 41.9028 48.4766 41.8112C48.6776 41.7746 49.0295 41.7334 49.258 41.7197C50.3501 41.6418 51.0903 41.2205 51.6752 40.3414C52.2007 39.5538 52.4337 38.6975 52.5891 37.0216C52.6257 36.605 52.6896 36.028 52.7262 35.7395C52.9547 33.9949 53.1283 32.3328 53.2517 30.7256C53.3248 29.7182 53.4207 28.4819 53.4619 27.9782C53.4984 27.4745 53.5715 26.7739 53.6172 26.4214C53.6675 26.0688 53.7086 25.5742 53.7086 25.3224C53.7086 24.663 53.8274 23.2298 53.9645 22.2637C54.0879 21.3799 54.1519 20.6885 54.2067 19.6445C54.2661 18.5776 54.3666 18.0281 54.5951 17.497L54.6568 17.3551C54.7469 17.1477 54.9059 16.9779 55.1069 16.8742C55.3216 16.7643 55.4496 16.6682 55.5044 16.5629C55.6232 16.3614 55.7557 15.8256 55.7923 15.4227C55.8426 14.8824 55.7146 14.7816 54.819 14.6305C54.0056 14.4932 51.7575 14.2734 50.6471 14.2184C49.3265 14.1543 44.8027 14.1268 43.2674 14.1726ZM36.0476 15.5463C35.8603 15.583 34.6951 15.6471 34.8596 15.6104C35.0149 15.5784 35.7598 15.5143 36.0019 15.5097H36.044C36.0663 15.5097 36.0695 15.5419 36.0476 15.5463ZM48.3852 16.3751C48.2847 16.3934 48.1521 16.4117 48.0882 16.4117C47.9831 16.4117 47.9831 16.4072 48.0653 16.3705C48.1156 16.3476 48.2481 16.3339 48.3623 16.3339H48.3806C48.4055 16.3339 48.4095 16.3696 48.3852 16.3751ZM52.2921 16.6819C52.2921 16.7002 52.2098 16.7964 52.1139 16.8925L52.0852 16.9206C52.0299 16.9746 51.937 16.9332 51.9402 16.8559L51.9418 16.8188C51.9461 16.7217 52.0259 16.6453 52.123 16.6453C52.2144 16.6453 52.2921 16.6636 52.2921 16.6819ZM32.0494 16.9063C32.552 17.3092 32.7074 17.5519 32.8627 18.1426C32.9313 18.4173 32.9404 18.6966 32.9404 20.4C32.9404 22.108 32.9313 22.3827 32.8581 22.662C32.6982 23.2985 32.4149 23.6969 31.9854 23.8892C31.7706 23.9853 31.6838 23.9945 30.9527 23.9945C30.5105 23.9945 30.1516 23.637 30.1499 23.1949L30.1393 20.4687C30.1347 18.5272 30.1393 16.9154 30.153 16.8788C30.185 16.7964 31.9443 16.8193 32.0494 16.9063ZM49.0158 16.8742C49.0341 16.8742 49.0478 18.138 49.0478 19.6857C49.0478 22.2957 49.0523 22.5018 49.13 22.5933C49.1986 22.6803 49.2625 22.6895 49.7789 22.6987C50.0986 22.7063 50.3559 22.9639 50.3633 23.2836L50.3638 23.3031C50.3729 23.7472 50.3592 23.9029 50.3181 23.935C50.2175 23.9945 47.9785 23.9808 47.9145 23.9167C47.8414 23.8434 47.8323 16.8925 47.9054 16.8651C47.9374 16.8559 48.7325 16.8605 49.0158 16.8742ZM34.6996 16.9429C34.7728 16.9887 34.7636 23.8892 34.6905 23.9625C34.6539 23.9991 34.4666 24.0174 34.1513 24.0174C33.836 24.0174 33.6487 23.9991 33.6121 23.9625C33.571 23.9212 33.5573 23.0833 33.5573 20.4641C33.5573 18.5684 33.571 16.9841 33.5893 16.9383C33.6167 16.8696 33.6715 16.8651 34.133 16.888C34.4163 16.9017 34.6722 16.9246 34.6996 16.9429ZM37.9714 17.0345C38.4969 17.3046 38.6477 17.7809 38.6202 19.095L38.6173 19.2426C38.6113 19.5443 38.369 19.7879 38.0673 19.7956C37.6652 19.8048 37.5236 19.791 37.5099 19.7498C37.4962 19.7178 37.4687 19.3789 37.4459 19.0034C37.4048 18.2708 37.3317 18.0052 37.1717 17.9503C37.0483 17.9136 36.9021 17.9961 36.8336 18.1472C36.797 18.2342 36.7742 18.8615 36.765 20.2993C36.7513 22.0897 36.7605 22.3552 36.8244 22.5567C36.9158 22.8314 37.0666 22.9505 37.2128 22.8727C37.3728 22.7857 37.4505 22.5247 37.4779 21.9935C37.5007 21.444 37.4733 21.3616 37.254 21.3616C37.1808 21.3616 37.1215 21.3023 37.1215 21.2291V20.8579C37.1215 20.5797 37.347 20.3542 37.6251 20.3542H37.8754C38.2918 20.3542 38.6294 20.6918 38.6294 21.1082V22.1629V23.7888C38.6294 23.8898 38.5475 23.9716 38.4466 23.9716C38.273 23.9716 38.2593 23.9579 38.1907 23.7839L38.1762 23.7497C38.1455 23.6772 38.0521 23.6571 37.9942 23.7106C37.7977 23.8983 37.6698 23.9396 37.2357 23.9625C36.1847 24.0174 35.6684 23.619 35.577 22.6895C35.5541 22.4743 35.5496 21.3021 35.5678 20.0795C35.5953 18.1105 35.6044 17.8312 35.6775 17.6297C35.8192 17.236 36.0202 17.0345 36.3903 16.9154C36.4543 16.8925 36.7742 16.8834 37.1032 16.888C37.6652 16.8971 37.7155 16.9063 37.9714 17.0345ZM40.4892 16.9933C40.5303 17.0482 40.5486 17.2405 40.5486 17.5656V17.7798C40.5486 17.9171 40.6838 18.0134 40.8136 17.9686C40.9678 17.9171 41.0694 17.7697 41.0626 17.6072L41.0603 17.5519C41.0512 17.3687 41.0649 17.1444 41.0923 17.0482C41.125 16.9447 41.221 16.8742 41.3296 16.8742H42.582H43.9181C43.9785 16.8742 44.0308 16.916 44.0442 16.975C44.0579 17.0345 44.067 17.2863 44.0579 17.5382L44.0558 17.6076C44.0493 17.8261 43.8743 18.0021 43.6558 18.0098C43.4456 18.019 43.2445 18.0464 43.2126 18.0739C43.1669 18.1105 43.1532 18.7012 43.1532 21.0457V23.7568C43.1532 23.8762 43.0577 23.9736 42.9384 23.9762C42.8929 23.9767 42.8468 23.9769 42.8009 23.9769C42.2739 23.9768 41.9974 23.6749 41.9892 23.1479C41.9808 22.6059 41.9723 21.8331 41.9651 20.9815L41.9454 18.4533C41.9437 18.2234 41.7608 18.0358 41.531 18.0281C41.3071 18.019 41.1106 17.9961 41.0923 17.9686C41.0786 17.9411 40.9689 17.9594 40.809 18.019C40.6525 18.0767 40.5486 18.2259 40.5486 18.3928V20.9953C40.5486 23.5503 40.5394 23.88 40.4754 23.9441C40.4206 24.0037 40.3018 24.0174 39.9317 24.0174C39.5616 24.0174 39.4427 24.0037 39.3879 23.9441C39.3239 23.88 39.3148 23.5046 39.3148 20.4641C39.3148 18.0464 39.3285 17.0253 39.3651 16.9566C39.4153 16.8651 39.4427 16.8605 39.9225 16.888C40.3338 16.9109 40.4435 16.9292 40.4892 16.9933ZM46.2604 17.062C46.3838 17.5199 46.6716 19.2324 47.0783 21.9569C47.2337 22.978 47.3708 23.8571 47.3799 23.9121C47.4028 24.0174 47.4028 24.0174 46.8316 24.0174H46.3981C46.315 24.0174 46.2404 23.9665 46.2101 23.8892C46.1827 23.8205 46.1233 23.5595 46.073 23.3077C46.0228 23.0558 45.9725 22.804 45.9588 22.7444C45.9405 22.6574 45.9131 22.6437 45.6892 22.6437C45.447 22.6437 45.4425 22.6437 45.4196 22.7902C45.3739 23.0604 45.2551 23.761 45.2277 23.8892C45.2117 23.964 45.1456 24.0174 45.0692 24.0174H44.588C44.0716 24.0174 43.9757 24.0082 43.9757 23.9487C43.9757 23.88 44.6382 19.846 44.7799 19.0721C44.9398 18.1838 45.1774 17.0299 45.214 16.9521C45.2505 16.888 45.3282 16.8742 45.7349 16.8742H46.0158C46.1304 16.8742 46.2307 16.9512 46.2604 17.062ZM50.6197 17.9365C50.574 18.0144 50.0119 18.7104 49.9205 18.7974C49.884 18.834 49.9114 18.7836 49.9845 18.6829C50.3044 18.2342 50.7567 17.703 50.6197 17.9365ZM33.603 24.7958C33.5527 24.8691 33.4887 24.9423 33.4659 24.9561C33.3379 25.0339 33.4613 25.0706 33.8543 25.0706H34.0272C34.1729 25.0706 34.2924 25.186 34.2975 25.3316C34.3021 25.4781 34.3112 26.751 34.3112 28.1659C34.3112 30.2723 34.3204 30.7485 34.3752 30.808C34.4255 30.8721 34.5306 30.8858 34.9784 30.8858C35.6775 30.8858 35.6592 30.8675 35.6592 31.5452C35.6592 31.9298 35.641 32.0809 35.5953 32.1176C35.5541 32.1542 35.184 32.1679 34.3524 32.1588L33.4182 32.1479C33.2752 32.1463 33.1552 32.0396 33.1369 31.8978C33.114 31.765 33.1049 30.1807 33.1095 28.372L33.1227 25.1994C33.123 25.1387 33.1681 25.0876 33.2283 25.0797C33.2877 25.0706 33.3791 24.9927 33.443 24.8874C33.4832 24.8231 33.5171 24.7764 33.5503 24.7423C33.6239 24.6668 33.6637 24.7096 33.603 24.7958ZM31.9945 25.0477C32.2504 25.153 32.5657 25.5101 32.6936 25.8398C32.817 26.1603 32.8764 27.2181 32.7805 27.3371C32.7348 27.3875 32.6205 27.4058 32.2824 27.4058C32.0402 27.4058 31.8209 27.3875 31.7935 27.3692C31.7615 27.3509 31.7341 27.1494 31.7203 26.893C31.7021 26.3985 31.6153 26.2061 31.4005 26.1787C31.2497 26.1603 31.1994 26.2336 31.1035 26.5862C31.0304 26.8426 31.0212 27.1082 31.0212 28.7108C31.0212 30.4829 31.0258 30.547 31.1172 30.753C31.2268 30.9866 31.3502 31.0507 31.501 30.9454C31.6518 30.8355 31.6975 30.6752 31.7249 30.0845L31.7261 30.0599C31.7408 29.7659 31.9835 29.535 32.2778 29.535C32.568 29.535 32.8033 29.7703 32.8033 30.0605V30.2219C32.8033 30.7714 32.785 30.9591 32.7165 31.1743C32.5977 31.536 32.3418 31.884 32.0813 32.0489C31.894 32.1634 31.8026 32.1863 31.4736 32.2046C30.8384 32.2366 30.4409 32.0168 30.2079 31.4948C30.0068 31.0369 29.9885 30.721 30.0022 28.317L30.0135 26.4852C30.0151 26.2293 30.0753 25.9772 30.1896 25.7482C30.3861 25.3453 30.6328 25.1026 30.9527 25.0019C31.2086 24.9149 31.7249 24.9423 31.9945 25.0477ZM40.8227 25.0843C40.8227 25.0935 40.8638 25.2812 40.9141 25.5056C41.0786 26.2702 41.9651 31.8474 41.9651 32.1267C41.9651 32.2046 41.9194 32.2137 41.4122 32.2137H41.0279C40.9285 32.2137 40.8387 32.1542 40.7999 32.0626C40.7679 31.9802 40.6948 31.6917 40.6445 31.417C40.5897 31.1423 40.5348 30.9042 40.5211 30.8813C40.4846 30.8172 40.1099 30.8309 40.0596 30.895C40.0322 30.927 40.0002 31.0507 39.9865 31.1743C39.9682 31.2934 39.9225 31.5773 39.8814 31.8016C39.8364 32.0406 39.6276 32.2137 39.3844 32.2137H39.196C38.6202 32.2137 38.5837 32.2092 38.5837 32.1267C38.5837 32.0306 39.0361 29.2603 39.2965 27.7492C39.4839 26.664 39.6072 26.0184 39.7352 25.4689C39.7887 25.2358 39.9961 25.0706 40.2353 25.0706H40.3247C40.5988 25.0706 40.8227 25.0751 40.8227 25.0843ZM43.6147 25.1484C43.6329 25.1667 43.7472 25.6292 43.8614 26.1695C43.998 26.8059 44.1048 27.2793 44.1881 27.6134C44.3019 28.0699 44.4387 28.0216 44.4405 27.5511C44.4414 27.3086 44.4405 27.0206 44.4372 26.7144C44.428 25.5742 44.4372 25.1896 44.4783 25.1392C44.5605 25.0385 45.447 25.0431 45.5293 25.1392C45.575 25.1942 45.5795 25.9406 45.5521 28.6605C45.5338 30.5607 45.5019 32.1405 45.479 32.1725C45.4196 32.2687 44.5057 32.2641 44.4143 32.1679C44.3549 32.113 44.1127 31.101 43.6969 29.2374C43.6421 28.9856 43.5918 28.894 43.5233 28.9352C43.4867 28.9581 43.473 29.4297 43.473 30.5195C43.473 32.3603 43.5278 32.2137 42.8516 32.2137C42.5454 32.2137 42.4175 32.1954 42.3809 32.1496C42.3398 32.0993 42.3261 31.3804 42.3261 29.274C42.3306 26.2657 42.3581 25.2217 42.4403 25.1209C42.4814 25.0706 42.6002 25.0614 43.0343 25.0843C43.3359 25.098 43.5964 25.1301 43.6147 25.1484ZM47.1743 27.9095C47.1971 30.8172 47.2017 30.8813 47.3845 30.9499C47.5353 31.0095 47.5855 30.9774 47.5901 30.8263C47.5992 30.6889 47.5992 30.6889 47.6175 30.8034C47.6267 30.8767 47.6586 30.9316 47.6815 30.9316C47.8231 30.9316 47.8369 30.6615 47.8597 27.8866L47.8783 25.6145C47.8807 25.3239 48.1129 25.0874 48.4035 25.0797C48.7462 25.0706 48.9427 25.0843 48.9838 25.1209C49.0569 25.1805 49.0615 26.4442 49.0066 29.5121C48.9792 31.0827 48.9747 31.1972 48.8833 31.3941C48.7416 31.7009 48.4903 31.9573 48.2161 32.0764C47.9282 32.2 47.3936 32.2458 47.0143 32.1725C46.3838 32.0535 46.1187 31.7787 46.0365 31.1468C45.9817 30.7622 45.9634 25.272 46.0136 25.1438C46.0365 25.0797 46.1233 25.0706 46.5985 25.0797C46.9068 25.0874 47.1534 25.3382 47.1559 25.6465L47.1743 27.9095ZM51.2502 25.1621C51.529 25.2446 51.9402 25.5468 52.0636 25.7666C52.1384 25.8955 52.1778 26.042 52.1778 26.1911V27.2914C52.1778 28.5643 52.1733 28.6284 52.0773 28.8024C51.8671 29.1916 51.4193 29.4755 50.9121 29.535C50.7604 29.5534 50.6456 29.6812 50.6436 29.834L50.6425 29.9197C50.6379 30.112 50.6197 30.6981 50.6059 31.2293L50.5935 31.6656C50.5852 31.9581 50.3457 32.1908 50.053 32.1908C49.7621 32.1908 49.5254 31.9564 49.5228 31.6654L49.4956 28.6879C49.4773 26.0825 49.4819 25.1667 49.5184 25.1209C49.5641 25.0706 49.7149 25.0614 50.3272 25.0843C50.743 25.098 51.1589 25.1347 51.2502 25.1621ZM38.3461 25.5468C38.3598 25.9451 38.3598 25.9497 38.4466 25.8719C38.5334 25.794 38.538 25.794 38.538 25.881C38.538 25.9314 38.506 26.0047 38.4649 26.0367C38.4238 26.0688 38.3735 26.142 38.3506 26.2016C38.3141 26.3023 38.2958 26.3069 37.7429 26.3069C37.4276 26.3069 37.1626 26.3252 37.1489 26.3435C37.1352 26.3664 37.1215 26.7052 37.1123 27.1036C37.0986 27.7035 37.1077 27.8271 37.1672 27.8637C37.2037 27.8866 37.4368 27.9095 37.6835 27.9095C37.9293 27.9095 38.1272 28.1114 38.1222 28.3572L38.1176 28.5826L38.1136 28.7801C38.1081 29.0504 37.8942 29.2703 37.6241 29.2832L37.3752 29.2951C37.2413 29.3015 37.1309 29.4023 37.1123 29.535C37.0758 29.8327 37.0758 30.6477 37.1169 30.7943C37.1489 30.9087 37.158 30.9087 37.7383 30.9316C38.0701 30.9444 38.3384 31.2132 38.3461 31.5452C38.3506 31.8703 38.3415 32.1542 38.3187 32.1771C38.2593 32.2366 36.0705 32.2275 35.9974 32.1634C35.9425 32.1176 35.9334 31.5269 35.9334 28.6421C35.9334 27.4249 35.939 26.3423 35.9478 25.7157C35.9531 25.3371 36.154 25.1291 36.5327 25.1257C36.7168 25.124 36.9332 25.1239 37.1626 25.1255L37.9246 25.1345C38.1528 25.1371 38.3384 25.3188 38.3461 25.5468ZM38.5883 30.8446L38.5715 30.89C38.5566 30.9303 38.4969 30.9196 38.4969 30.8767C38.4923 30.7164 38.5151 30.6477 38.57 30.6157C38.628 30.5866 38.6597 30.6162 38.6412 30.6784C38.6277 30.7242 38.6089 30.7825 38.5883 30.8446ZM39.7032 33.1753C39.8449 33.1753 39.8129 33.3768 39.5433 34.1873C39.3879 34.6497 39.1731 35.3457 39.0589 35.7304C38.9255 36.1951 38.8579 36.6763 38.8579 37.1598V38.3175C38.8579 39.3569 38.8396 40.2315 38.8167 40.2681C38.7847 40.3185 38.6751 40.3276 38.2593 40.3048C37.9759 40.2864 37.7246 40.2544 37.7018 40.2315C37.6744 40.204 37.6607 39.4897 37.6652 38.3862L37.6705 37.3488C37.6731 36.8433 37.6036 36.3399 37.4642 35.854C37.3454 35.4511 37.1215 34.7138 36.9661 34.2193C36.7696 33.6057 36.6919 33.2989 36.7193 33.2486C36.7833 33.1341 37.7658 33.1433 37.8617 33.2532C37.8983 33.2989 37.9988 33.6561 38.081 34.0453C38.1633 34.4345 38.2455 34.7871 38.2638 34.8237C38.3095 34.9062 38.3095 34.9107 38.474 34.0224C38.538 33.6698 38.6202 33.3356 38.6568 33.2806C38.7116 33.1891 38.7665 33.1753 39.1412 33.1662C39.5524 33.1524 39.5661 33.1478 39.589 33.0379C39.5922 33.0178 39.6212 33.018 39.6242 33.0381L39.6255 33.0471C39.6347 33.1204 39.6666 33.1753 39.7032 33.1753ZM32.0722 33.2989C32.4469 33.5004 32.7074 33.8942 32.8581 34.4849C32.9313 34.7642 32.9404 35.0344 32.9404 36.7469C32.9404 38.8257 32.9267 38.9585 32.6936 39.5034C32.5748 39.7873 32.2778 40.1033 32.0128 40.2315C31.8117 40.3276 31.7386 40.3368 30.9755 40.3414H30.3367C30.2331 40.3414 30.147 40.2615 30.1393 40.1582C30.1302 40.0575 30.0891 39.9339 30.0479 39.8835C29.9748 39.7965 29.9748 39.7965 30.0525 39.856C30.1256 39.9155 30.1302 39.7507 30.1302 36.5775C30.1302 34.7413 30.1439 33.2211 30.1622 33.2028C30.1804 33.1845 30.578 33.1753 31.0441 33.1845C31.8072 33.1982 31.9077 33.2074 32.0722 33.2989ZM41.6772 33.2532C41.9879 33.3997 42.0154 33.505 42.0016 34.4345C41.9879 35.3824 41.9925 35.3549 41.5264 35.941C41.2568 36.2798 41.138 36.5271 41.2111 36.6004C41.2294 36.6187 41.4168 36.6278 41.627 36.6187L41.7267 36.6152C41.8821 36.6097 42.009 36.7381 42.0016 36.8934C41.994 37.0549 41.8608 37.1819 41.6991 37.1819H41.234H40.8235C40.6345 37.1819 40.4821 37.0274 40.4846 36.8385C40.4846 36.4126 40.5668 36.2157 40.9781 35.6571C41.4122 35.0618 41.4624 34.9382 41.4624 34.3842C41.4624 33.9904 41.4487 33.9034 41.3756 33.8118C41.2888 33.7065 41.2842 33.7065 41.202 33.7843C41.1426 33.8438 41.1152 33.9537 41.106 34.2285L41.101 34.3301C41.0936 34.4784 40.9712 34.5948 40.8227 34.5948H40.7565C40.64 34.5948 40.5414 34.5087 40.5257 34.3933C40.4846 34.1277 40.5714 33.5966 40.6765 33.4501C40.8684 33.1891 41.3482 33.0929 41.6772 33.2532ZM43.4045 33.2669C43.6923 33.4455 43.7243 33.5783 43.738 34.7688C43.7518 35.6846 43.7655 35.8265 43.8203 35.7807C43.8568 35.7487 43.8843 35.7487 43.8843 35.7762C43.8843 35.7991 43.8568 35.8311 43.8203 35.8448C43.7792 35.8632 43.7518 35.996 43.738 36.2982C43.7015 36.9987 43.5233 37.2048 42.9567 37.2048C42.582 37.2048 42.4129 37.1224 42.2987 36.8843C42.2255 36.7423 42.2164 36.5683 42.2164 35.2358C42.2164 33.8393 42.221 33.7385 42.3078 33.5645C42.4449 33.2944 42.6505 33.1753 42.9841 33.1753C43.176 33.1753 43.2994 33.2028 43.4045 33.2669ZM45.2551 33.2669C45.5567 33.4226 45.5841 33.5233 45.5658 34.4528C45.5476 35.3778 45.5567 35.3549 45.0906 35.9318C44.8256 36.2615 44.7022 36.5271 44.7753 36.6004C44.7936 36.6187 44.9672 36.6278 45.1683 36.6187L45.2273 36.6164C45.3922 36.6102 45.5293 36.7422 45.5293 36.9072C45.5293 37.0709 45.3954 37.2031 45.2317 37.2011L44.789 37.1956L44.3876 37.1882C44.1977 37.1847 44.0462 37.0284 44.0488 36.8385C44.0488 36.4126 44.1447 36.1928 44.5468 35.648C44.9764 35.071 45.0266 34.9382 45.0266 34.3842C45.0266 33.9858 45.0129 33.9034 44.9352 33.8118C44.8877 33.7546 44.8 33.7546 44.7525 33.8118C44.6794 33.8988 44.6611 33.9858 44.6611 34.2605V34.3157C44.6611 34.4701 44.532 34.5931 44.3778 34.5856L44.3281 34.5833C44.1927 34.5768 44.084 34.4692 44.0762 34.3338C44.0579 34.0178 44.1356 33.592 44.2407 33.4501C44.4372 33.1799 44.917 33.0929 45.2551 33.2669ZM35.6866 33.4363C35.8009 33.8301 36.4406 37.7451 36.7787 40.1445C36.7956 40.2604 36.7057 40.3643 36.5886 40.3643H36.2396C35.7369 40.3643 35.6638 40.3551 35.6364 40.2819C35.6181 40.2406 35.5496 39.9339 35.481 39.6088L35.4114 39.2599C35.3828 39.1167 35.257 39.0135 35.1109 39.0135C34.9684 39.0135 34.8467 39.1163 34.8228 39.2567L34.759 39.6316C34.7556 39.6515 34.7521 39.6713 34.7486 39.6909C34.6766 40.1007 34.4348 40.3643 34.0188 40.3643C33.609 40.3643 33.4215 40.1234 33.4835 39.7184C33.7337 38.0864 34.5009 33.7191 34.6128 33.3676C34.6427 33.2779 34.7278 33.2184 34.8223 33.221L35.1474 33.2303L35.4319 33.2383C35.5509 33.2417 35.654 33.3218 35.6866 33.4363ZM47.3205 34.3979L47.3322 35.4051C47.3333 35.5037 47.4095 35.5852 47.5079 35.593C47.6034 35.6008 47.6769 35.6805 47.6769 35.7764V35.9044V36.0146C47.6769 36.1156 47.5951 36.1974 47.4941 36.1974C47.3949 36.1974 47.3137 36.2764 47.311 36.3756L47.3022 36.6874L47.2974 36.8622C47.2924 37.0402 47.1467 37.1819 46.9687 37.1819C46.7906 37.1819 46.6449 37.0402 46.6399 36.8622L46.6351 36.6874L46.6321 36.5811C46.6261 36.3675 46.4512 36.1974 46.2375 36.1974H46.1559C45.9865 36.1974 45.8491 36.0601 45.8491 35.8906C45.8491 35.6251 45.8994 35.4419 46.2375 34.4803C46.4477 33.8713 46.6351 33.3356 46.6534 33.2944C46.6762 33.2348 46.7493 33.2211 46.9961 33.2211C47.1706 33.2211 47.3125 33.3619 47.3138 33.5364L47.3205 34.3979ZM41.1426 39.128V40.2502C41.1426 40.3638 41.0505 40.4559 40.937 40.4559C40.8231 40.4559 40.7305 40.3641 40.7295 40.2502L40.7222 39.4119L40.7101 38.4966C40.7092 38.4257 40.6556 38.3665 40.5851 38.3587C40.48 38.345 40.4572 38.3221 40.4572 38.2122C40.4572 38.0427 40.7679 37.8046 40.9964 37.8001C41.0771 37.8001 41.1426 37.8655 41.1426 37.9463V39.128ZM42.0245 37.8504C42.1844 37.9237 42.285 38.1252 42.285 38.3724C42.285 38.5831 42.285 38.5831 42.1387 38.5693C42.0199 38.5602 41.9879 38.5327 41.956 38.4091C41.8646 38.0519 41.6909 38.1984 41.6909 38.6334C41.6909 38.9311 41.6955 38.9448 41.7777 38.899C41.9285 38.8212 42.0565 38.8486 42.1981 38.986C42.3306 39.1188 42.3306 39.1234 42.3306 39.6774C42.3306 40.204 42.3261 40.2361 42.2164 40.3414C42.125 40.4375 42.0611 40.4559 41.8371 40.4559C41.6178 40.4559 41.5447 40.4375 41.4487 40.346C41.2842 40.1903 41.2614 40.0071 41.2934 38.9998C41.3162 38.2946 41.3345 38.0885 41.3939 38.0015C41.5173 37.8138 41.8006 37.7451 42.0245 37.8504ZM43.8203 38.4182C43.93 38.7708 44.0214 38.986 44.0396 38.9448C44.0533 38.9082 44.1356 38.638 44.2224 38.3495L44.3165 38.0211C44.3505 37.9022 44.4555 37.8175 44.5788 37.8092C44.7799 37.7955 44.789 37.8001 44.8164 37.942C44.8301 38.0199 44.8439 38.6197 44.8439 39.2699V40.2274C44.8439 40.3536 44.7416 40.4559 44.6154 40.4559C44.4892 40.4559 44.3869 40.3536 44.3869 40.2274V39.9201C44.3869 39.2653 44.3229 39.2791 44.2407 39.9522L44.2021 40.2646C44.19 40.3627 44.1107 40.4387 44.0122 40.4467C43.866 40.4604 43.8386 40.4467 43.8157 40.3551C43.7974 40.2544 43.7015 39.5172 43.7015 39.4393C43.7015 39.4164 43.6832 39.4027 43.6558 39.4027C43.6284 39.4027 43.6101 39.6088 43.6101 39.9293V40.2274C43.6101 40.3536 43.5078 40.4559 43.3816 40.4559C43.2554 40.4559 43.1532 40.3536 43.1532 40.2274V39.5034C43.1532 38.9814 43.1669 38.3862 43.1851 38.1755L43.1974 38.0056C43.2058 37.8893 43.3064 37.8016 43.4228 37.8092C43.5469 37.8175 43.6534 37.9007 43.6916 38.0191L43.8203 38.4182ZM45.936 38.0382C45.9954 38.3129 46.3061 40.3093 46.3061 40.3963C46.3061 40.4375 46.233 40.4559 46.105 40.4559C45.8857 40.4559 45.8811 40.4513 45.8217 40.1216C45.7989 39.9842 45.776 39.9522 45.6892 39.9522C45.5932 39.9522 45.5795 39.9796 45.5521 40.204L45.5483 40.2337C45.5322 40.3607 45.4242 40.4559 45.2962 40.4559C45.1272 40.4559 45.0723 40.4375 45.0723 40.3872C45.0723 40.2178 45.4744 37.9008 45.5156 37.8321C45.5247 37.8138 45.6161 37.8001 45.7121 37.8001C45.8903 37.8001 45.8903 37.8001 45.936 38.0382ZM47.3753 37.8962C47.4896 37.9878 47.4941 38.0061 47.4941 38.4686C47.4941 38.9173 47.485 38.9585 47.3799 39.0593L47.3776 39.0616C47.3179 39.124 47.3189 39.2226 47.3799 39.2836C47.4987 39.4073 47.5261 39.5309 47.5535 40.0758L47.5611 40.2322C47.5669 40.354 47.4698 40.4559 47.3479 40.4559C47.2268 40.4559 47.1286 40.3577 47.1286 40.2365V40.0712C47.1286 39.6225 47.0646 39.4027 46.9412 39.4027C46.859 39.4027 46.8544 39.4439 46.8544 39.9293V40.2731C46.8544 40.374 46.7726 40.4559 46.6716 40.4559C46.5707 40.4559 46.4889 40.374 46.4889 40.2731V39.128V38.1839C46.4889 37.9719 46.6607 37.8001 46.8727 37.8001C47.188 37.8001 47.2748 37.8184 47.3753 37.8962Z" fill="white"/>
<path d="M31.2953 18.1975C31.2155 18.2135 31.1579 18.2834 31.1574 18.3648L31.1445 20.4C31.14 21.5951 31.1445 22.6208 31.1582 22.6758C31.1948 22.8314 31.341 22.804 31.4781 22.6208C31.5466 22.5338 31.6563 22.3049 31.7203 22.108C31.802 21.8715 31.8437 21.6231 31.8437 21.3729V20.2397C31.8437 18.6509 31.8345 18.5867 31.6289 18.28C31.5375 18.1517 31.5238 18.1472 31.2953 18.1975Z" fill="white"/>
<path d="M45.648 20.661C45.6115 20.8396 45.5292 21.412 45.5292 21.5082C45.5292 21.5723 45.5704 21.5906 45.7166 21.5906C45.8948 21.5906 45.8994 21.586 45.8765 21.4624C45.8628 21.3937 45.8308 21.1693 45.7988 20.9587C45.744 20.5603 45.6892 20.455 45.648 20.661Z" fill="white"/>
<path d="M40.256 28.8574C40.2195 28.9902 40.1372 29.5213 40.1372 29.6587C40.1372 29.7549 40.1646 29.7915 40.256 29.8144C40.4571 29.8647 40.4799 29.7915 40.4159 29.2832C40.3565 28.8345 40.3063 28.6971 40.256 28.8574Z" fill="white"/>
<path d="M50.5877 26.197C50.5694 26.2153 50.5557 26.6869 50.5557 27.2456C50.5557 28.0332 50.5694 28.2758 50.6151 28.3125C50.7065 28.3903 50.9989 28.2942 51.0674 28.1705C51.104 28.1064 51.1314 27.8042 51.1406 27.3463C51.1543 26.7465 51.1451 26.5862 51.0812 26.4168C51.0217 26.2657 50.9806 26.2153 50.9075 26.2153C50.8527 26.2153 50.7659 26.2016 50.7156 26.1878C50.6653 26.1741 50.6059 26.1787 50.5877 26.197Z" fill="white"/>
<path d="M31.1857 34.3796C31.1308 34.4346 31.1126 38.9174 31.1628 39.0547C31.2451 39.2699 31.5284 39.0044 31.6837 38.5694C31.8482 38.0977 31.8757 37.7772 31.8574 36.376C31.8391 34.9016 31.83 34.8604 31.5467 34.5353C31.3959 34.3613 31.2634 34.3018 31.1857 34.3796Z" fill="white"/>
<path d="M42.8332 33.9538C42.8012 34.0087 42.7921 34.4758 42.7966 35.2634C42.8103 36.3715 42.8195 36.4905 42.8926 36.5363C42.9474 36.5729 42.9931 36.5729 43.0525 36.5363C43.1211 36.4905 43.1302 36.3715 43.1439 35.2771C43.1485 34.6131 43.1439 34.0225 43.1302 33.9629C43.0982 33.8347 42.9017 33.8256 42.8332 33.9538Z" fill="white"/>
<path d="M35.0926 36.9667C35.0515 37.0354 34.9372 37.8871 34.9646 37.9145C34.9784 37.9283 35.056 37.9374 35.1429 37.9374C35.3165 37.9374 35.3211 37.9329 35.2434 37.4017C35.184 37.0171 35.1429 36.8889 35.0926 36.9667Z" fill="white"/>
<path d="M46.4157 34.952C46.3106 35.2816 46.2375 35.5655 46.2512 35.5793C46.3014 35.6297 46.5847 35.5976 46.6076 35.5427C46.6167 35.5106 46.6213 35.2267 46.6167 34.9153C46.6142 34.8102 46.4664 34.7895 46.4351 34.8899L46.4157 34.952Z" fill="white"/>
<path d="M41.7183 39.3386C41.6772 39.4485 41.6864 39.966 41.732 40.0346C41.7549 40.0713 41.8097 40.0896 41.8554 40.0804C41.9331 40.0667 41.9422 40.0163 41.956 39.6637C41.9697 39.27 41.9697 39.2654 41.8554 39.2654C41.796 39.2654 41.732 39.2974 41.7183 39.3386Z" fill="white"/>
<path d="M45.6526 39.3066C45.6069 39.5309 45.6115 39.5859 45.6891 39.5859C45.7622 39.5859 45.776 39.4027 45.7166 39.2425C45.6846 39.1692 45.6754 39.1783 45.6526 39.3066Z" fill="white"/>
<path d="M46.9 38.5556C46.9 38.8761 46.9137 38.9448 46.9686 38.9448C47.0645 38.9448 47.1285 38.7571 47.1285 38.4915C47.1285 38.2763 47.0737 38.1664 46.9594 38.1664C46.9137 38.1664 46.9 38.2671 46.9 38.5556Z" fill="white"/>
<path d="M1.08203 41.1931C0.972358 41.3259 0.839844 41.6739 0.839844 41.8296C0.839844 41.9166 0.876399 42.0631 0.926664 42.1501C0.972358 42.2371 1.03633 42.3928 1.06832 42.4936C1.13686 42.7088 1.2648 42.8645 1.45672 42.9652C1.49742 42.9856 1.54967 43.007 1.60622 43.0273C1.89092 43.1297 1.96564 42.9934 1.74917 42.782C1.33335 42.3745 1.21454 42.1227 1.16885 41.5503C1.14143 41.2115 1.12772 41.1428 1.08203 41.1931Z" fill="white"/>
<path d="M0.122431 43.1987C-0.0466392 43.2811 -0.0420698 43.3452 0.145278 43.6245C0.309779 43.8764 0.533683 44 0.826129 44C1.18255 44 1.22824 43.9176 0.917518 43.826C0.615933 43.739 0.396599 43.5421 0.355474 43.3177C0.318918 43.1163 0.30064 43.1071 0.122431 43.1987Z" fill="white"/>
</svg>
