<svg width="50" height="51" viewBox="0 0 50 51" fill="none" xmlns="http://www.w3.org/2000/svg">
<path d="M13.5057 12.6573C16.4328 12.6573 18.8057 10.2716 18.8057 7.32865C18.8057 4.38572 16.4328 2 13.5057 2C10.5786 2 8.20569 4.38572 8.20569 7.32865C8.20569 10.2716 10.5786 12.6573 13.5057 12.6573Z" stroke="#550805" stroke-width="2.17341" stroke-miterlimit="10"/>
<path d="M13.4429 48.0952C12.3209 49.3526 10.6748 49.7586 9.51366 49.1727C9.51366 49.1727 8.14988 48.4858 7.84667 46.4192C7.75584 45.7968 7.8327 45.3108 7.84667 45.2223C8.04229 43.9284 8.08701 37.0375 7.84667 20.4376C7.80754 23.6309 7.76702 26.8228 7.7279 30.016C7.20111 31.2242 6.04973 31.9898 4.8704 31.9322C3.31939 31.8564 2.40694 30.3939 2.13167 29.4175C1.98356 28.8935 2.00592 28.4664 2.0129 28.34C2.03107 28.0141 2.03526 25.6075 2.0129 19.7198C1.98775 19.4135 1.98635 18.9457 2.13167 18.4034C2.25883 17.93 2.45306 17.5675 2.60816 17.3259C3.38366 16.334 4.71111 14.9826 6.65756 14.5723C7.23185 14.4529 7.67061 14.4529 7.96684 14.4529C10.5057 14.4473 12.9133 14.4473 15.2314 14.4529H15.2301C15.6115 14.3841 16.3675 14.3012 17.2548 14.5723C18.0834 14.8266 18.6395 15.2706 18.9217 15.5305C20.0857 16.7358 21.2483 17.9426 22.4122 19.148C22.4513 19.1986 22.6372 19.4275 22.9711 19.4809C23.2758 19.5301 23.5063 19.398 23.5664 19.3615C25.7951 17.413 28.3242 16.83 29.7593 17.8049C29.9451 17.9314 31.0951 18.7518 31.0686 20.0794C31.0476 21.1401 30.2916 21.8411 30.1156 21.9956C27.8128 23.312 25.5115 24.6298 23.2087 25.9461C22.967 26.0599 22.2879 26.3423 21.4229 26.1849C21.2175 26.147 20.6474 26.0473 20.1947 25.6455C19.3214 24.8714 19.3815 23.4328 19.3982 23.4314C19.4583 23.4244 19.1886 40.7955 19.6358 46.7788C19.6525 47.0135 19.7098 47.737 19.2781 48.3354C18.4592 49.472 16.2962 49.5844 14.7522 48.9339C14.1248 48.6684 13.6846 48.3144 13.4429 48.0952ZM13.4429 48.0952C13.496 44.583 13.5752 39.3148 13.6804 32.2905C13.5742 39.3148 13.4951 44.583 13.4429 48.0952Z" stroke="#550805" stroke-width="2.17341" stroke-miterlimit="10"/>
<path d="M28.0936 23.1921C33.3727 23.1528 40.7365 23.2314 46.0169 23.1921C46.2978 23.1851 46.5367 23.1345 46.7309 23.0727C48.1157 22.6274 48.655 21.0989 48.7556 20.7982C48.7165 15.6494 48.676 10.5006 48.6369 5.35315C48.6355 5.06234 48.5824 4.82211 48.5181 4.63526C48.0654 3.31188 46.4836 2.89604 46.2559 2.83984H25.0587C24.8379 2.84827 24.5962 2.88199 24.3446 2.95926C23.0899 3.34419 22.4862 4.51866 22.3199 4.87549C22.3395 9.62534 22.3591 14.3738 22.38 19.1236" stroke="#550805" stroke-width="2.17341" stroke-miterlimit="10"/>
<path d="M30.3558 18.2838C33.2133 16.7272 36.0722 15.1706 38.9297 13.614C39.1002 13.5958 40.1049 13.5087 40.3592 13.9737C40.5897 14.3966 40.3536 15.1468 39.6451 15.5303C36.7877 17.0475 33.9288 18.5634 31.0713 20.0806" fill="#550805"/>
<path d="M30.3558 18.2838C33.2133 16.7272 36.0722 15.1706 38.9297 13.614C39.1002 13.5958 40.1049 13.5087 40.3592 13.9737C40.5897 14.3966 40.3536 15.1468 39.6451 15.5303C36.7877 17.0475 33.9288 18.5634 31.0713 20.0806" stroke="#550805" stroke-width="0.407514" stroke-miterlimit="10"/>
</svg>
