<svg width="64" height="38" viewBox="0 0 64 38" fill="none" xmlns="http://www.w3.org/2000/svg">
<path d="M2.44847 2.3419C1.95664 2.83047 1.56642 3.41159 1.30031 4.05173C1.0342 4.69187 0.897475 5.37837 0.898016 6.07162C0.898556 6.76486 1.03636 7.45115 1.30346 8.09087C1.57057 8.7306 1.96169 9.31111 2.45428 9.79891L28.7318 36.0355C29.2204 36.5273 29.8015 36.9176 30.4417 37.1837C31.0818 37.4498 31.7683 37.5865 32.4615 37.586C33.1548 37.5854 33.8411 37.4476 34.4808 37.1805C35.1205 36.9134 35.701 36.5223 36.1888 36.0297L62.4254 9.75215C62.9172 9.26358 63.3075 8.68246 63.5736 8.04232C63.8397 7.40218 63.9764 6.71568 63.9759 6.02243C63.9753 5.32918 63.8375 4.6429 63.5704 4.00318C63.3033 3.36345 62.9122 2.78294 62.4196 2.29514C61.931 1.80331 61.3499 1.41309 60.7098 1.14698C60.0696 0.880875 59.3831 0.744146 58.6899 0.744687C57.9966 0.745228 57.3104 0.883027 56.6706 1.15013C56.0309 1.41724 55.4504 1.80837 54.9626 2.30095L32.4516 24.8996L9.90548 2.33609C9.4169 1.84426 8.83579 1.45404 8.19565 1.18793C7.55551 0.921822 6.86901 0.785093 6.17576 0.785633C5.48251 0.786174 4.79623 0.923973 4.1565 1.19108C3.51678 1.45819 2.93627 1.84931 2.44847 2.3419Z" fill="#A82D28"/>
</svg>
