<svg width="214" height="214" viewBox="0 0 214 214" fill="none" xmlns="http://www.w3.org/2000/svg">
<circle cx="107" cy="107" r="106" stroke="#A82D28" stroke-width="2"/>
<g clip-path="url(#clip0_275_2835)">
<path d="M102.565 15.8825C97.5631 12.0095 91.0979 13.4281 89.2306 13.9548L88.9971 14.0207L29.6173 53.6761L29.4068 53.8434C28.4243 54.7866 27.5878 55.8525 26.9145 57.0005C24.0568 61.8971 24.8495 67.1424 25.5728 69.8417L25.6386 70.0751L108.013 195.589L108.122 195.699C109.066 196.638 110.108 197.461 111.222 198.149C115.563 200.825 120.143 200.993 123.22 200.656L123.585 200.613L183.95 160.995C184.829 160.316 185.623 159.54 186.289 158.681C189.641 154.392 189.352 149.172 188.881 146.446L188.827 146.132L105.25 18.7866C104.504 17.6604 103.6 16.6816 102.565 15.8825ZM73.7326 40.4546C81.8583 35.1217 82.1856 35.6203 82.5062 36.1088C82.8267 36.5972 83.154 37.0959 75.0283 42.4288C66.9026 47.7617 66.5753 47.2631 66.2547 46.7746C65.9342 46.2862 65.6069 45.7875 73.7326 40.4546ZM58.3426 49.1719C59.6808 48.2937 61.4843 48.6679 62.3625 50.0061C63.2408 51.3443 62.8665 53.1478 61.5283 54.026C60.1902 54.9042 58.3867 54.53 57.5085 53.1918C56.6302 51.8537 57.0044 50.0502 58.3426 49.1719ZM149.979 172.713C146.793 174.804 142.504 173.913 140.413 170.728C138.323 167.543 139.213 163.254 142.398 161.163C145.583 159.073 149.873 159.963 151.963 163.148C154.054 166.333 153.164 170.623 149.979 172.713ZM171.583 134.387L105.743 177.598L40.973 78.9093L107.302 35.3777L171.583 134.387Z" fill="#FB8984"/>
<path d="M60.5273 52.5002C61.0259 52.1729 61.1607 51.5021 60.8368 51.0085C60.5129 50.515 59.8387 50.3751 59.3452 50.699C58.8516 51.0229 58.7117 51.6971 59.0356 52.1906C59.3595 52.6842 60.0337 52.8241 60.5273 52.5002Z" fill="#FB8984"/>
<path d="M143.731 163.194C141.671 164.546 141.093 167.327 142.446 169.388C143.798 171.448 146.579 172.025 148.64 170.673C150.701 169.321 151.278 166.54 149.925 164.479C148.573 162.418 145.792 161.841 143.731 163.194Z" fill="#FB8984"/>
<path d="M93.5842 114.682C94.3576 114.175 95.3259 112.156 96.7914 105.094C98.8899 94.9808 97.8112 94.7569 96.8622 94.5644C95.4295 94.2671 94.8885 96.0272 94.3181 97.8866C93.8012 99.5726 93.2397 101.834 92.7378 104.253C90.6392 114.365 91.718 114.589 92.6669 114.782C92.9534 114.841 93.2484 114.903 93.5842 114.682Z" fill="#FB8984"/>
<path d="M102.358 117.645C101.622 122.204 101.395 123.577 102.831 123.879C103.202 123.956 103.499 123.921 103.758 123.751C104.496 123.267 104.903 121.668 105.745 118.348C106.519 115.3 107.441 111.237 108.341 106.897C109.242 102.557 110.018 98.4588 110.516 95.3581C111.251 90.799 111.479 89.4266 110.043 89.1243C108.61 88.827 108.264 90.1749 107.128 94.6551C106.355 97.7032 105.433 101.766 104.532 106.106C103.632 110.447 102.856 114.545 102.358 117.645Z" fill="#FB8984"/>
<path d="M114.815 108.829C112.716 118.942 113.795 119.166 114.744 119.359C115.03 119.418 115.325 119.479 115.661 119.259C116.434 118.751 117.403 116.733 118.868 109.67C120.967 99.5574 119.888 99.3336 118.939 99.1411C117.506 98.8438 116.965 100.604 116.395 102.463C115.878 104.149 115.316 106.411 114.815 108.829Z" fill="#FB8984"/>
</g>
<defs>
<clipPath id="clip0_275_2835">
<rect width="94.699" height="174.974" fill="white" transform="translate(19 59.96) rotate(-33.277)"/>
</clipPath>
</defs>
</svg>
