<svg width="229" height="224" viewBox="0 0 229 224" fill="none" xmlns="http://www.w3.org/2000/svg">
<circle cx="114" cy="116.088" r="106" stroke="#18708B" stroke-width="2"/>
<g clip-path="url(#clip0_275_2846)">
<path d="M178.491 170.89L141.434 113.299C141.104 112.787 140.691 112.356 140.209 112.022C139.727 111.687 138.974 111.315 137.909 111.201C138.61 111.058 139.516 110.721 140.168 109.926C140.378 109.669 140.551 109.38 140.674 109.069L171.198 55.1697L170.927 54.697C170.658 54.2311 169.881 53.0975 168.419 52.6539C167.99 52.5213 167.549 52.4627 167.111 52.4865L57.3521 39.321L57.2231 39.3064L57.0989 39.316C54.8701 39.5533 53.5728 40.0921 53.0151 41.0058C52.7117 41.4997 52.5064 41.8451 52.3829 42.1028L52.3782 42.1109C52.3782 42.1109 52.3712 42.1231 52.3689 42.1271C50.3743 45.5884 21.8106 100.259 21.2567 101.686C21.0193 102.304 21.0444 102.878 21.3342 103.394C21.5274 103.741 21.8236 104.029 22.2134 104.252C22.5234 104.43 22.8989 104.569 23.3305 104.665L23.4033 104.68L23.272 104.68C23.0259 104.706 22.7822 104.75 22.5433 104.818C22.4917 104.831 21.269 105.187 20.4094 106.288C19.8955 106.953 19.1153 107.949 33.5358 129.568C41.1711 141.016 50.0359 153.69 54.8002 160.497C56.5044 162.937 57.6319 164.545 57.8674 164.906C57.9404 165.018 58.157 165.357 58.5122 165.781C59.2273 166.632 60.1179 167.362 61.1746 167.967C61.6254 168.225 62.102 168.46 62.6113 168.671L62.7522 168.73L175.849 175.333C177.069 175.449 178.164 174.935 178.717 173.997C179.27 173.059 179.176 171.858 178.493 170.886L178.491 170.89ZM31.1471 100.692C30.7788 100.605 30.4644 100.49 30.2014 100.339C29.8773 100.154 29.6352 99.9239 29.4773 99.6451C29.2323 99.225 29.2075 98.7478 29.403 98.2352C29.8754 96.9928 54.7848 49.1621 56.6114 45.9815C56.7069 45.7616 56.8959 45.4553 57.1946 44.9694C57.666 44.1948 58.8018 43.752 60.7588 43.5745L60.944 43.5782L159.702 56.5318C160.084 56.5189 160.46 56.5722 160.83 56.6874C162.079 57.0788 162.754 58.0414 162.985 58.4319L163.197 58.7901L163.01 59.114L136.457 106.036C136.353 106.305 136.203 106.553 136.026 106.775C135.295 107.653 134.174 107.863 133.574 107.907L133.455 107.909L31.2175 100.711L31.1471 100.692ZM141.032 170.74L140.84 170.845L109.989 168.743C109.644 168.734 109.264 168.678 108.894 168.595C108.267 168.447 107.711 168.209 107.232 167.935C106.612 167.58 106.116 167.162 105.757 166.811L105.637 166.661L97.5176 154.112C96.9812 153.439 96.8084 152.851 97.0016 152.364C97.4183 151.326 99.2029 151.513 99.9651 151.589L100.014 152.316L100 151.592C102.57 151.857 115.762 152.688 129.632 153.546C129.974 153.548 130.368 153.601 130.753 153.703C131.832 153.987 132.619 154.583 133.087 155.039L133.214 155.187L141.746 167.994C141.93 168.282 142.036 168.563 142.072 168.848C142.237 170.013 141.238 170.631 141.034 170.746L141.032 170.74ZM155.443 150.197L59.8075 145.522C59.4464 145.499 59.0947 145.459 58.7428 145.398C57.5138 145.19 56.2817 144.737 55.1076 144.066C54.4173 143.671 53.7454 143.2 53.1062 142.662L53.0099 142.58L33.0226 113.086C32.192 112.024 31.8892 111.076 32.112 110.267C32.1375 110.168 32.4187 109.29 33.6152 108.764C34.2193 108.496 36.0714 107.688 132.071 114.363C132.624 114.292 133.189 114.298 133.755 114.379C135.223 114.584 136.364 115.248 137.064 115.767L137.191 115.861L137.276 115.985L158.014 146.775C158.198 147.095 158.592 147.929 158.278 148.788C157.915 149.786 156.752 150.364 155.443 150.197Z" fill="#1C586E"/>
<path d="M133.575 107.907C134.175 107.863 135.295 107.653 136.026 106.774C136.208 106.555 136.351 106.309 136.458 106.036L163.015 59.1162L163.202 58.7923L162.99 58.4342C162.757 58.0369 162.079 57.0783 160.835 56.6897C160.465 56.5744 160.089 56.5212 159.707 56.534L60.9373 43.5791L60.7521 43.5754C58.795 43.7529 57.6592 44.1957 57.1879 44.9703C56.8892 45.4562 56.7072 45.7611 56.6047 45.9824C54.7804 49.1589 29.8709 96.9897 29.3962 98.2361C29.2008 98.7487 29.2279 99.2218 29.4706 99.646C29.6331 99.9275 29.8752 100.158 30.1946 100.34C30.4576 100.491 30.7768 100.609 31.1404 100.693L31.2108 100.712L133.448 107.91L133.568 107.908L133.575 107.907ZM133.413 107.179C99.3591 104.783 65.3027 102.381 31.2485 99.9852C30.77 99.8728 30.3475 99.6849 30.159 99.3617C29.9658 99.025 30.1008 98.6716 30.1473 98.5475C30.8128 96.7858 57.2436 46.445 57.3604 46.2965C57.1855 46.6001 57.701 45.6839 57.8853 45.3856C58.1397 44.9659 58.858 44.4888 60.9276 44.3003C93.8736 48.619 126.824 52.9404 159.768 57.2632C159.993 57.252 160.312 57.2622 160.671 57.3761C161.687 57.6938 162.212 58.5488 162.313 58.7198C153.454 74.3755 144.597 90.0271 135.732 105.68C135.66 105.87 135.551 106.082 135.382 106.287C134.763 107.037 133.77 107.157 133.418 107.182L133.413 107.179Z" fill="#1C586E"/>
<path d="M135.732 105.68C144.592 90.0247 153.449 74.3731 162.313 58.7201C162.212 58.5491 161.687 57.694 160.671 57.3764C160.312 57.2625 159.993 57.2522 159.768 57.2634C126.822 52.9447 93.8711 48.6234 60.9275 44.3006C58.8579 44.489 58.1419 44.9621 57.8852 45.3859C57.7008 45.6841 57.1853 46.6004 57.3603 46.2967C57.2435 46.4452 30.8127 96.7861 30.1472 98.5478C30.1007 98.6719 29.9657 99.0253 30.1589 99.362C30.3473 99.6851 30.7699 99.8731 31.2484 99.9855C65.3025 102.381 99.359 104.784 133.413 107.18C133.765 107.155 134.758 107.034 135.378 106.285C135.546 106.08 135.655 105.868 135.727 105.678L135.732 105.68ZM134.734 105.798C134.332 106.279 133.692 106.413 133.31 106.448L31.2839 99.2629C30.9672 99.1839 30.8614 99.0965 30.8473 99.0884C30.8473 99.0884 30.8354 99.0116 30.8912 98.8605C31.5265 97.1838 57.568 47.6053 58.0507 46.7134L58.0601 46.6972C58.1534 46.5352 58.4543 46.013 58.578 45.7985C58.6783 45.6244 59.1296 45.2097 61.0069 45.0297L159.753 57.982L159.913 57.9871C160.114 57.9732 160.311 57.9998 160.501 58.0601C160.91 58.1861 161.206 58.4525 161.394 58.6786L135.021 105.279L134.983 105.365C134.923 105.524 134.839 105.67 134.734 105.798Z" fill="#1C586E"/>
<path d="M100.891 70.1565C100.523 69.6233 100.06 68.9542 93.5049 72.3415C91.906 73.1653 90.4432 74.0024 89.3761 74.6945C88.0657 75.5488 87.2469 76.1677 87.7695 76.9297C87.8613 77.063 87.9718 77.1639 88.0986 77.2365C88.6715 77.5644 89.5803 77.2554 90.805 76.7665C92.0133 76.2844 93.5586 75.5645 95.1574 74.7407C101.717 71.3561 101.258 70.6896 100.893 70.1524L100.891 70.1565Z" fill="#1C586E"/>
<path d="M111.349 75.1238C110.855 74.3994 110.356 74.5068 106.911 76.0835C104.816 77.043 102.077 78.3933 99.1998 79.8746C87.8228 85.7456 88.1147 86.171 88.5949 86.8657C88.6773 86.9828 88.755 87.0973 88.8818 87.1698C89.5017 87.5246 91.3147 86.9794 100.739 82.1122C112.116 76.2412 111.825 75.8158 111.344 75.1211L111.349 75.1238Z" fill="#1C586E"/>
<path d="M110.945 84.7656C110.58 84.2284 110.114 83.5633 103.559 86.9506C96.9998 90.3352 97.4589 91.0017 97.8238 91.5389C97.9156 91.6721 98.0261 91.773 98.1529 91.8456C98.7258 92.1735 99.6346 91.8645 100.859 91.3756C102.068 90.8936 103.618 90.1763 105.212 89.3498C111.771 85.9652 111.312 85.2988 110.947 84.7616L110.945 84.7656Z" fill="#1C586E"/>
</g>
<defs>
<clipPath id="clip0_275_2846">
<rect width="175.332" height="153.468" fill="white" transform="matrix(0.867933 0.49668 -0.4993 0.866429 76.6265 0)"/>
</clipPath>
</defs>
</svg>
