<svg width="214" height="214" viewBox="0 0 214 214" fill="none" xmlns="http://www.w3.org/2000/svg">
<circle cx="107" cy="107" r="106" stroke="#A82D28" stroke-width="2"/>
<g clip-path="url(#clip0_280_2858)">
<path d="M18.3165 94.5286C36.7011 122.884 55.0796 151.244 73.4643 179.599C76.6981 180.472 79.936 181.352 83.1697 182.225L194.661 109.3C195.212 106.544 195.76 103.798 196.311 101.042C177.381 72.7464 158.441 44.4491 139.511 16.154C137.374 15.156 135.247 14.1604 133.11 13.1624C95.3906 37.5289 57.6757 61.9016 19.9669 86.2703C19.4119 89.0202 18.8611 91.7764 18.3165 94.5286Z" stroke="#FB8984" stroke-width="0.407514" stroke-miterlimit="10"/>
<path d="M133.11 13.1627C95.3905 37.5291 57.6755 61.9018 19.9667 86.2705C48.7703 88.5182 77.58 90.7618 106.384 93.0095C115.289 66.3932 124.204 39.779 133.11 13.1627Z" fill="#FB8984"/>
<path d="M139.615 15.6379C132.943 38.2449 126.269 60.8622 119.597 83.4692C145.205 89.1532 170.807 94.8414 196.414 100.525C177.484 72.2303 158.544 43.933 139.615 15.6379Z" fill="#FB8984"/>
<path d="M18.4193 94.0119C43.4771 96.1701 68.5246 98.3261 93.5824 100.484C86.9093 126.682 80.2361 152.879 73.5671 179.083C55.1824 150.727 36.7977 122.371 18.4193 94.0119Z" fill="#FB8984"/>
<path d="M83.2726 181.708C89.1177 155.155 94.9648 128.592 100.81 102.039C105.008 102.586 109.208 103.124 113.406 103.671C114.783 99.4773 116.157 95.294 117.534 91.1004C143.278 96.9914 169.02 102.893 194.764 108.784L83.2726 181.708Z" fill="#FB8984"/>
</g>
<defs>
<clipPath id="clip0_280_2858">
<rect width="146.456" height="115.462" fill="white" transform="matrix(0.836878 -0.54739 0.550072 0.835117 14 89.8325)"/>
</clipPath>
</defs>
</svg>
