<svg width="214" height="216" viewBox="0 0 214 216" fill="none" xmlns="http://www.w3.org/2000/svg">
<path d="M107 214.723C165.55 214.723 213 166.872 213 107.862C213 48.8513 165.55 1 107 1C48.4501 1 1 48.8513 1 107.862C1 166.872 48.4501 214.723 107 214.723Z" stroke="#18708B" stroke-width="2"/>
<g clip-path="url(#clip0_283_2960)">
<path d="M80.8298 67.7523C88.0294 68.981 94.8673 64.1091 96.1026 56.8705C97.338 49.6319 92.5029 42.7679 85.3033 41.5392C78.1037 40.3105 71.2658 45.1825 70.0304 52.421C68.7951 59.6596 73.6301 66.5236 80.8298 67.7523Z" stroke="#1C586E" stroke-width="4.34" stroke-miterlimit="10"/>
<path d="M66.484 161.581C63.0215 164.342 58.5781 164.666 55.8291 162.635C55.8291 162.635 52.6 160.253 52.7282 154.765C52.768 153.113 53.182 151.888 53.2573 151.665C54.3361 148.4 57.4982 130.569 64.2142 87.4614C62.7012 95.7161 61.1852 103.967 59.6721 112.221C57.7734 115.118 54.4523 116.592 51.4228 115.922C47.4385 115.04 45.7214 110.848 45.4399 108.197C45.2879 106.774 45.5346 105.678 45.6086 105.353C45.7998 104.517 46.8745 98.2847 49.4195 83.0228C49.4898 82.2183 49.693 81.0058 50.3091 79.6653C50.8478 78.4951 51.5112 77.6421 52.0198 77.0847C54.4672 74.8582 58.5033 71.9441 63.7269 71.742C65.2674 71.6865 66.4039 71.8805 67.1713 72.0114C73.7507 73.1193 79.9874 74.1837 85.9899 75.223L85.9863 75.2224C87.0049 75.2127 88.9998 75.3322 91.1784 76.4268C93.2124 77.4518 94.4568 78.8477 95.0731 79.6457C97.5554 83.2828 100.033 86.9228 102.516 90.5599C102.595 90.7082 102.975 91.3835 103.816 91.6694C104.584 91.9315 105.239 91.6913 105.411 91.6233C112.046 87.5609 118.855 87.1687 122.142 90.3288C122.567 90.7385 125.183 93.3722 124.528 96.7995C124.005 99.5379 121.736 101.02 121.212 101.342C114.665 103.734 108.121 106.13 101.574 108.522C100.897 108.71 99.0131 109.141 96.8421 108.351C96.3267 108.162 94.894 107.652 93.8989 106.411C91.9788 104.02 92.7704 100.32 92.8145 100.323C92.9732 100.332 84.5951 145.212 83.1082 160.909C83.048 161.524 82.8765 163.424 81.4935 164.783C78.8699 167.365 73.217 166.7 69.5048 164.332C67.997 163.367 67.0133 162.256 66.484 161.581ZM66.484 161.581C68.1742 152.506 70.7083 138.894 74.0863 120.745C70.7059 138.894 68.1718 152.506 66.484 161.581Z" stroke="#1C586E" stroke-width="4.34" stroke-miterlimit="10"/>
<path d="M115.517 102.274C129.461 104.547 148.852 108.07 162.8 110.343C163.544 110.451 164.197 110.425 164.738 110.35C168.591 109.798 170.702 106.009 171.103 105.261C173.318 91.6601 175.529 78.0588 177.743 64.4618C177.87 63.694 177.839 63.0363 177.753 62.5145C177.155 58.8195 173.169 57.0103 172.593 56.7595L116.673 47.2162C116.087 47.139 115.434 47.1191 114.736 47.2097C111.252 47.6603 109.131 50.4869 108.532 51.3534C106.445 63.8927 104.359 76.4284 102.276 88.9684" stroke="#1C586E" stroke-width="4.34" stroke-miterlimit="10"/>
<path d="M123.695 90.3435C131.934 87.5236 140.177 84.7043 148.416 81.8843C148.874 81.9129 151.563 82.1354 152.025 83.4767C152.443 84.696 151.482 86.5688 149.44 87.2616C141.219 89.9778 132.994 92.6896 124.773 95.4058" fill="#1C586E"/>
<path d="M123.695 90.3435C131.934 87.5236 140.177 84.7043 148.416 81.8843C148.874 81.9129 151.563 82.1354 152.025 83.4767C152.443 84.696 151.482 86.5688 149.44 87.2616C141.219 89.9778 132.994 92.6896 124.773 95.4058" stroke="#1C586E" stroke-width="0.407514" stroke-miterlimit="10"/>
</g>
<defs>
<clipPath id="clip0_283_2960">
<rect width="126.624" height="128.459" fill="white" transform="translate(55.6104 33.7527) rotate(9.68479)"/>
</clipPath>
</defs>
</svg>
