<svg width="48" height="48" viewBox="0 0 48 48" fill="none" xmlns="http://www.w3.org/2000/svg">
<g clip-path="url(#clip0_281_2923)">
<path d="M46.8808 30.5663L30.4434 20.6889C30.2972 20.6012 30.1423 20.5486 29.9845 20.5325C29.8267 20.5165 29.6002 20.5325 29.3356 20.667C29.4803 20.5194 29.6469 20.287 29.6922 19.9699C29.7068 19.8676 29.7083 19.7624 29.6951 19.6586L29.5695 0.285325L29.4423 0.199104C29.3166 0.114345 28.982 -0.0727096 28.5801 0.03397C28.4618 0.0646587 28.3507 0.117268 28.2513 0.191797L0.792264 13.6685L0.760114 13.6846L0.732348 13.7065C0.24279 14.1171 0.0118947 14.4649 0.00458788 14.7996C0.000203787 14.9808 -0.00125758 15.1065 0.00458788 15.1956V15.1986C0.00458788 15.1986 0.00458788 15.2029 0.00458788 15.2044C0.00458788 16.4539 0.692891 35.7322 0.75573 36.2057C0.783495 36.4103 0.866793 36.5623 1.00416 36.6572C1.09623 36.7215 1.20437 36.7537 1.32566 36.7537C1.42211 36.7537 1.52879 36.7332 1.64278 36.6923L1.66178 36.685L1.63109 36.7055C1.57702 36.7508 1.52587 36.8005 1.47911 36.856C1.46888 36.8677 1.23067 37.1541 1.17806 37.5867C1.14738 37.8468 1.09915 38.2384 7.38887 41.867C10.7193 43.7887 14.5028 45.8521 16.5355 46.9599C17.2633 47.3574 17.7441 47.6189 17.8479 47.6803C17.88 47.6993 17.9765 47.7578 18.1167 47.8177C18.3988 47.9375 18.7057 47.9974 19.0345 47.9974C19.1748 47.9974 19.318 47.9872 19.4656 47.9653L19.5065 47.9594L46.8618 32.1825C47.1628 32.0247 47.3499 31.7149 47.3528 31.3744C47.3557 31.0339 47.1716 30.7226 46.8808 30.5648V30.5663ZM2.93609 34.3994C2.83817 34.433 2.74903 34.4506 2.66719 34.4506C2.56636 34.4506 2.47868 34.4257 2.40415 34.3746C2.29016 34.2986 2.22002 34.1729 2.19664 34.0034C2.13964 33.5928 1.51856 16.7388 1.5171 15.5917C1.50979 15.5171 1.51272 15.4046 1.5171 15.2263C1.52295 14.9428 1.729 14.6462 2.16302 14.294L2.20687 14.2662L27.0632 2.44084C27.1509 2.378 27.2459 2.33416 27.3482 2.30785C27.6931 2.22017 27.981 2.37654 28.0876 2.44668L28.1856 2.51098V2.62789L28.2995 19.4906C28.3112 19.5797 28.3098 19.6703 28.2981 19.758C28.2455 20.1102 28.0116 20.3411 27.8772 20.4463L27.8494 20.4653L2.95508 34.3936L2.93609 34.3994ZM38.0951 36.3445L38.0644 36.403L30.5617 40.6248C30.4799 40.676 30.3834 40.7198 30.2855 40.7549C30.1189 40.8119 29.9567 40.8338 29.8077 40.8338C29.6148 40.8338 29.4423 40.7973 29.3108 40.7578L29.2626 40.7359L25.6705 38.5906C25.4543 38.4913 25.3344 38.3583 25.314 38.1961C25.2716 37.8497 25.7144 37.6232 25.9029 37.5253L26.0125 37.7153L25.9117 37.5209C26.5488 37.1936 29.7478 35.3698 33.1089 33.4481C33.1893 33.3955 33.2886 33.3487 33.3924 33.3166C33.6832 33.226 33.9477 33.2654 34.1187 33.3166L34.1684 33.337L37.8919 35.4881C37.9738 35.5378 38.0366 35.5978 38.0834 35.6694C38.2792 35.9602 38.1287 36.2831 38.0965 36.346L38.0951 36.3445ZM38.6971 28.5291L15.688 42.1169C15.6003 42.1666 15.5126 42.2104 15.422 42.2484C15.1063 42.3829 14.7571 42.4515 14.3917 42.4515C14.1769 42.4515 13.9562 42.4282 13.7341 42.3814L13.7005 42.3741L5.0463 37.4727C4.70872 37.3134 4.50998 37.103 4.45298 36.8487C4.44568 36.818 4.39307 36.5359 4.60204 36.2071C4.70726 36.0405 5.03168 35.5335 28.396 22.4323C28.5158 22.3271 28.6488 22.2409 28.792 22.1751C29.1632 22.0027 29.5198 22.0056 29.7536 22.0377L29.796 22.0436L29.8325 22.064L38.8374 27.2007C38.9237 27.2592 39.1283 27.4243 39.1706 27.7064C39.2203 28.0337 39.026 28.3713 38.6971 28.5291Z" fill="#550805"/>
<path d="M27.8771 20.4464C28.0116 20.3411 28.2454 20.1103 28.298 19.7581C28.3112 19.6704 28.3112 19.5812 28.2995 19.4906L28.1869 2.62794V2.51103L28.089 2.44673C27.9809 2.37512 27.693 2.22022 27.3496 2.3079C27.2473 2.33421 27.1523 2.37805 27.0646 2.44089L2.20534 14.2677L2.1615 14.2955C1.72747 14.6477 1.52142 14.9443 1.51557 15.2278C1.51119 15.4061 1.50973 15.5172 1.51557 15.5932C1.51704 16.7389 2.13812 33.5928 2.19511 34.0049C2.21849 34.1744 2.28864 34.2986 2.40262 34.3761C2.47861 34.4272 2.5663 34.4521 2.66567 34.4521C2.7475 34.4521 2.83811 34.4346 2.93456 34.4009L2.95356 34.3951L27.8479 20.4668L27.8757 20.4478L27.8771 20.4464ZM27.7412 20.2739C19.4494 24.9138 11.1562 29.5521 2.86441 34.192C2.73728 34.2358 2.61306 34.2504 2.52538 34.192C2.43477 34.1306 2.4187 34.0137 2.41285 33.9728C2.33102 33.3911 1.72747 15.6195 1.73478 15.561C1.73478 15.6706 1.73186 15.3418 1.73478 15.2322C1.7377 15.0788 1.84146 14.8376 2.30033 14.465C10.5921 10.5193 18.8854 6.57363 27.1771 2.6294C27.2283 2.59141 27.3043 2.54464 27.4037 2.5198C27.6842 2.44819 27.9224 2.59871 27.9692 2.6294C28.0072 8.25566 28.0452 13.8805 28.0817 19.5067C28.0905 19.5695 28.0934 19.6441 28.0817 19.7259C28.0379 20.0255 27.8216 20.2125 27.7427 20.2739H27.7412Z" fill="#550805"/>
<path d="M28.0816 19.5065C28.0437 13.8802 28.0057 8.25545 27.9691 2.6292C27.9224 2.59851 27.6842 2.44799 27.4036 2.51959C27.3042 2.54444 27.2282 2.5912 27.1771 2.6292C18.8853 6.57488 10.592 10.5206 2.30025 14.4648C1.84138 14.8374 1.73762 15.0771 1.7347 15.232C1.73177 15.3416 1.7347 15.6704 1.7347 15.5608C1.72739 15.6193 2.33093 33.3909 2.41277 33.9726C2.41862 34.0135 2.43469 34.1304 2.5253 34.1918C2.61298 34.2502 2.73719 34.2356 2.86433 34.1918C11.1561 29.5519 19.4494 24.9136 27.7412 20.2737C27.8201 20.2123 28.0363 20.0253 28.0802 19.7257C28.0919 19.6439 28.089 19.5693 28.0802 19.5065H28.0816ZM27.8639 19.6936C27.8347 19.8865 27.7032 20.0224 27.6184 20.091L2.77519 33.9901C2.69043 34.0179 2.6539 34.0106 2.64951 34.0106C2.64951 34.0106 2.63636 33.9916 2.62905 33.9419C2.5516 33.388 1.95975 15.8838 1.95244 15.5667V15.5608C1.95244 15.5024 1.95244 15.3138 1.95244 15.2364C1.95244 15.1736 2.00213 14.9909 2.41716 14.6504L27.2706 2.82648L27.3086 2.8031C27.3539 2.76803 27.4036 2.74464 27.4562 2.73149C27.5687 2.70227 27.6739 2.72857 27.7485 2.76072L27.861 19.508L27.8639 19.5372C27.8712 19.5898 27.8712 19.6424 27.8639 19.6936Z" fill="#550805"/>
<path d="M15.1383 15.2758C14.9805 15.1882 14.7818 15.0786 13.7047 17.0163C13.4417 17.4884 13.2122 17.9428 13.0559 18.2965C12.8644 18.732 12.7563 19.0272 12.9814 19.1529C13.0208 19.1748 13.0603 19.185 13.0997 19.185C13.278 19.185 13.449 18.96 13.6697 18.637C13.8874 18.3184 14.1519 17.8829 14.415 17.4109C15.4934 15.4731 15.2962 15.3635 15.1383 15.2744V15.2758Z" fill="#550805"/>
<path d="M18.2555 14.9992C18.0421 14.8794 17.9398 14.986 17.3465 15.9491C16.9855 16.5351 16.5267 17.3271 16.0532 18.1762C14.1826 21.5373 14.3083 21.6075 14.5144 21.7215C14.5494 21.7405 14.583 21.7595 14.6225 21.7595C14.8154 21.7595 15.1661 21.3298 16.7152 18.5445C18.5857 15.1833 18.4601 15.1132 18.254 14.9992H18.2555Z" fill="#550805"/>
<path d="M19.4611 17.6798C19.3033 17.5906 19.1046 17.4825 18.0276 19.4202C16.9491 21.358 17.1463 21.4676 17.3042 21.5568C17.3436 21.5787 17.3831 21.5889 17.4225 21.5889C17.6008 21.5889 17.7718 21.3639 17.9925 21.0409C18.2102 20.7223 18.4762 20.2868 18.7378 19.8148C19.8163 17.877 19.619 17.7674 19.4611 17.6783V17.6798Z" fill="#550805"/>
</g>
<defs>
<clipPath id="clip0_281_2923">
<rect width="47.3526" height="48" fill="white"/>
</clipPath>
</defs>
</svg>
