<svg width="31" height="32" viewBox="0 0 31 32" fill="none" xmlns="http://www.w3.org/2000/svg">
<path fill-rule="evenodd" clip-rule="evenodd" d="M23.3744 3.62133C22.4793 3.62133 21.6209 3.97691 20.988 4.60985C20.355 5.24278 19.9994 6.10123 19.9994 6.99634C19.9994 7.89144 20.355 8.74988 20.988 9.38282C21.6209 10.0158 22.4793 10.3713 23.3744 10.3713C24.2696 10.3713 25.128 10.0158 25.7609 9.38282C26.3939 8.74988 26.7494 7.89144 26.7494 6.99634C26.7494 6.10123 26.3939 5.24278 25.7609 4.60985C25.128 3.97691 24.2696 3.62133 23.3744 3.62133ZM30.1244 6.99634C30.1234 6.0348 29.9169 5.08459 29.5189 4.20932C29.1208 3.33405 28.5404 2.55393 27.8164 1.92118C27.0924 1.28843 26.2416 0.817657 25.3209 0.54039C24.4002 0.263122 23.4309 0.185756 22.4779 0.31347C21.5249 0.441185 20.6101 0.771034 19.7949 1.28093C18.9798 1.79083 18.2829 2.469 17.7511 3.27005C17.2192 4.0711 16.8646 4.97653 16.7111 5.92572C16.5575 6.87491 16.6085 7.84596 16.8607 8.77384L12.4619 11.2893C11.5254 10.3271 10.3231 9.66611 9.0088 9.39083C7.69454 9.11555 6.32803 9.23851 5.08402 9.74399C3.84002 10.2495 2.77504 11.1145 2.02526 12.2284C1.27549 13.3424 0.875 14.6547 0.875 15.9975C0.875 17.3402 1.27549 18.6525 2.02526 19.7665C2.77504 20.8804 3.84002 21.7455 5.08402 22.2509C6.32803 22.7564 7.69454 22.8794 9.0088 22.6041C10.3231 22.3288 11.5254 21.6678 12.4619 20.7056L16.8607 23.2188C16.5887 24.2203 16.5511 25.271 16.7507 26.2893C16.9504 27.3077 17.3819 28.2664 18.0118 29.0911C18.6417 29.9158 19.4532 30.5843 20.3832 31.0447C21.3131 31.5052 22.3367 31.7453 23.3744 31.7463C24.4884 31.7464 25.5851 31.4708 26.5667 30.9441C27.5483 30.4173 28.3843 29.6558 29 28.7275C29.6158 27.7992 29.9922 26.7329 30.0958 25.6237C30.1993 24.5145 30.0267 23.397 29.5934 22.3707C29.1601 21.3445 28.4795 20.4414 27.6124 19.7421C26.7452 19.0428 25.7185 18.5689 24.6238 18.3629C23.529 18.1568 22.4002 18.2248 21.3382 18.561C20.2761 18.8971 19.3138 19.4909 18.5369 20.2893L14.1382 17.7738C14.4559 16.6101 14.4559 15.3825 14.1382 14.2188L18.5369 11.7033C19.4734 12.6657 20.6757 13.3268 21.9899 13.6023C23.3042 13.8777 24.6707 13.7549 25.9148 13.2495C27.1589 12.7441 28.224 11.8792 28.9738 10.7653C29.7237 9.65139 30.1243 8.33914 30.1244 6.99634ZM23.3744 21.6213C22.4793 21.6213 21.6209 21.9769 20.988 22.6098C20.355 23.2428 19.9994 24.1012 19.9994 24.9963C19.9994 25.8914 20.355 26.7499 20.988 27.3828C21.6209 28.0158 22.4793 28.3713 23.3744 28.3713C24.2696 28.3713 25.128 28.0158 25.7609 27.3828C26.3939 26.7499 26.7494 25.8914 26.7494 24.9963C26.7494 24.1012 26.3939 23.2428 25.7609 22.6098C25.128 21.9769 24.2696 21.6213 23.3744 21.6213ZM4.24945 15.9963C4.24945 15.1012 4.60503 14.2428 5.23796 13.6098C5.8709 12.9769 6.72934 12.6213 7.62445 12.6213C8.51955 12.6213 9.378 12.9769 10.0109 13.6098C10.6439 14.2428 10.9994 15.1012 10.9994 15.9963C10.9994 16.8914 10.6439 17.7499 10.0109 18.3828C9.378 19.0158 8.51955 19.3713 7.62445 19.3713C6.72934 19.3713 5.8709 19.0158 5.23796 18.3828C4.60503 17.7499 4.24945 16.8914 4.24945 15.9963Z" fill="#550805"/>
</svg>
