<svg width="140" height="155" viewBox="0 0 140 155" fill="none" xmlns="http://www.w3.org/2000/svg">
<path d="M1.27915 98.2811V93.6256H9.38971V115H4.17787V98.2811H1.27915ZM12.9319 111.194V107.153L22.1844 93.9184H27.7769V106.86H30.1778V111.194H27.7769V115H22.77V111.194H12.9319ZM23.1213 99.423L18.2023 106.86H23.1213V99.423ZM35.4704 115.234C34.592 115.234 33.8698 114.98 33.3037 114.473C32.7571 113.946 32.4839 113.302 32.4839 112.54C32.4839 111.76 32.7571 111.106 33.3037 110.579C33.8698 110.052 34.592 109.788 35.4704 109.788C36.3293 109.788 37.032 110.052 37.5786 110.579C38.1447 111.106 38.4277 111.76 38.4277 112.54C38.4277 113.302 38.1447 113.946 37.5786 114.473C37.032 114.98 36.3293 115.234 35.4704 115.234ZM55.9438 97.9883H46.8084V102.029C47.1988 101.6 47.7454 101.248 48.4481 100.975C49.1508 100.702 49.9121 100.565 50.7319 100.565C52.1959 100.565 53.4062 100.897 54.3626 101.56C55.3386 102.224 56.0511 103.083 56.5001 104.137C56.949 105.191 57.1735 106.333 57.1735 107.563C57.1735 109.847 56.5294 111.662 55.241 113.009C53.9527 114.336 52.1374 115 49.795 115C48.2334 115 46.8767 114.736 45.725 114.209C44.5734 113.663 43.6852 112.911 43.0606 111.955C42.4359 110.998 42.0943 109.896 42.0358 108.646H46.9255C47.0426 109.251 47.3257 109.759 47.7746 110.169C48.2236 110.559 48.8385 110.754 49.6193 110.754C50.5367 110.754 51.2199 110.462 51.6689 109.876C52.1178 109.29 52.3423 108.51 52.3423 107.534C52.3423 106.577 52.1081 105.845 51.6396 105.338C51.1711 104.83 50.4879 104.576 49.59 104.576C48.9263 104.576 48.3798 104.742 47.9503 105.074C47.5209 105.386 47.2378 105.806 47.1012 106.333H42.27V93.5963H55.9438V97.9883ZM89.9175 94.4454V115H84.9106V102.673L80.3137 115H76.273L71.6468 102.644V115H66.6399V94.4454H72.5545L78.3226 108.676L84.0322 94.4454H89.9175ZM113.367 100.946C112.996 100.262 112.46 99.7451 111.757 99.3938C111.074 99.0229 110.264 98.8374 109.327 98.8374C107.707 98.8374 106.408 99.3742 105.432 100.448C104.456 101.502 103.968 102.917 103.968 104.693C103.968 106.587 104.476 108.07 105.491 109.144C106.526 110.198 107.941 110.725 109.737 110.725C110.966 110.725 112.001 110.413 112.84 109.788C113.699 109.164 114.324 108.266 114.714 107.094H108.36V103.405H119.253V108.061C118.882 109.31 118.247 110.471 117.349 111.545C116.471 112.619 115.349 113.487 113.982 114.151C112.616 114.815 111.074 115.146 109.356 115.146C107.326 115.146 105.511 114.707 103.91 113.829C102.329 112.931 101.089 111.691 100.191 110.11C99.3129 108.529 98.8737 106.724 98.8737 104.693C98.8737 102.663 99.3129 100.858 100.191 99.2766C101.089 97.676 102.329 96.4365 103.91 95.5581C105.491 94.6602 107.297 94.2112 109.327 94.2112C111.786 94.2112 113.855 94.8066 115.534 95.9973C117.232 97.188 118.355 98.8374 118.901 100.946H113.367ZM134.47 104.459C135.661 104.713 136.617 105.308 137.339 106.245C138.062 107.163 138.423 108.217 138.423 109.408C138.423 111.125 137.818 112.492 136.607 113.507C135.417 114.502 133.748 115 131.601 115H122.026V94.4454H131.278C133.367 94.4454 134.997 94.9237 136.168 95.8802C137.359 96.8366 137.954 98.1347 137.954 99.7744C137.954 100.985 137.632 101.99 136.988 102.79C136.363 103.591 135.524 104.147 134.47 104.459ZM127.033 102.761H130.312C131.132 102.761 131.757 102.585 132.186 102.234C132.635 101.863 132.86 101.326 132.86 100.624C132.86 99.9208 132.635 99.384 132.186 99.0131C131.757 98.6422 131.132 98.4568 130.312 98.4568H127.033V102.761ZM130.722 110.959C131.561 110.959 132.206 110.774 132.655 110.403C133.123 110.013 133.357 109.456 133.357 108.734C133.357 108.012 133.113 107.446 132.625 107.036C132.157 106.626 131.503 106.421 130.664 106.421H127.033V110.959H130.722Z" fill="#1C586E"/>
<path d="M22.3358 146.143C21.393 146.143 20.5458 145.98 19.7943 145.652C19.0565 145.31 18.4758 144.845 18.0522 144.258C17.6286 143.657 17.41 142.967 17.3963 142.188H19.3844C19.4527 142.857 19.726 143.424 20.2042 143.889C20.6962 144.34 21.4067 144.565 22.3358 144.565C23.224 144.565 23.9209 144.347 24.4264 143.909C24.9457 143.458 25.2053 142.885 25.2053 142.188C25.2053 141.641 25.055 141.197 24.7544 140.856C24.4538 140.514 24.078 140.254 23.6271 140.077C23.1762 139.899 22.5681 139.708 21.8029 139.503C20.8601 139.257 20.1018 139.011 19.5279 138.765C18.9677 138.519 18.4826 138.136 18.0727 137.617C17.6764 137.084 17.4783 136.374 17.4783 135.486C17.4783 134.707 17.6764 134.017 18.0727 133.415C18.4689 132.814 19.0223 132.35 19.7328 132.022C20.457 131.694 21.2837 131.53 22.2129 131.53C23.5519 131.53 24.645 131.865 25.4922 132.534C26.353 133.204 26.8381 134.092 26.9474 135.199H24.8978C24.8295 134.652 24.5426 134.174 24.037 133.764C23.5314 133.34 22.8619 133.129 22.0284 133.129C21.2495 133.129 20.6142 133.333 20.1223 133.743C19.6304 134.14 19.3844 134.7 19.3844 135.424C19.3844 135.943 19.5279 136.367 19.8148 136.695C20.1154 137.023 20.4775 137.276 20.9011 137.453C21.3384 137.617 21.9464 137.808 22.7253 138.027C23.6681 138.287 24.4264 138.546 25.0003 138.806C25.5742 139.052 26.0661 139.441 26.476 139.974C26.8859 140.493 27.0909 141.204 27.0909 142.106C27.0909 142.803 26.9064 143.458 26.5375 144.073C26.1686 144.688 25.622 145.187 24.8978 145.57C24.1736 145.952 23.3196 146.143 22.3358 146.143ZM31.7007 130.833V146H29.8356V130.833H31.7007ZM45.1275 139.954C45.1275 140.309 45.107 140.685 45.0661 141.081H36.0888C36.1571 142.188 36.5329 143.055 37.2161 143.684C37.913 144.299 38.7533 144.606 39.7371 144.606C40.5433 144.606 41.2128 144.422 41.7457 144.053C42.2923 143.67 42.6749 143.165 42.8935 142.536H44.9021C44.6015 143.616 44.0003 144.497 43.0984 145.18C42.1966 145.85 41.0762 146.184 39.7371 146.184C38.6713 146.184 37.7148 145.945 36.8677 145.467C36.0342 144.989 35.3783 144.312 34.9 143.438C34.4218 142.55 34.1827 141.525 34.1827 140.364C34.1827 139.202 34.415 138.184 34.8795 137.31C35.3441 136.435 35.9932 135.766 36.8267 135.301C37.6738 134.823 38.644 134.584 39.7371 134.584C40.8029 134.584 41.7457 134.816 42.5655 135.281C43.3854 135.745 44.0139 136.387 44.4512 137.207C44.9021 138.013 45.1275 138.929 45.1275 139.954ZM43.2009 139.564C43.2009 138.854 43.0438 138.246 42.7295 137.74C42.4152 137.221 41.9848 136.831 41.4383 136.572C40.9054 136.299 40.311 136.162 39.6551 136.162C38.7123 136.162 37.9061 136.463 37.2366 137.064C36.5807 137.665 36.205 138.498 36.1093 139.564H43.2009ZM49.8645 136.305V142.926C49.8645 143.472 49.9807 143.862 50.213 144.094C50.4452 144.312 50.8483 144.422 51.4222 144.422H52.7954V146H51.1148C50.0763 146 49.2975 145.761 48.7782 145.283C48.259 144.804 47.9994 144.019 47.9994 142.926V136.305H46.5442V134.768H47.9994V131.94H49.8645V134.768H52.7954V136.305H49.8645ZM57.3303 136.305V142.926C57.3303 143.472 57.4465 143.862 57.6788 144.094C57.9111 144.312 58.3142 144.422 58.888 144.422H60.2613V146H58.5806C57.5421 146 56.7633 145.761 56.2441 145.283C55.7248 144.804 55.4652 144.019 55.4652 142.926V136.305H54.01V134.768H55.4652V131.94H57.3303V134.768H60.2613V136.305H57.3303ZM72.7691 139.954C72.7691 140.309 72.7486 140.685 72.7076 141.081H63.7304C63.7987 142.188 64.1745 143.055 64.8577 143.684C65.5545 144.299 66.3949 144.606 67.3787 144.606C68.1848 144.606 68.8544 144.422 69.3873 144.053C69.9338 143.67 70.3164 143.165 70.5351 142.536H72.5437C72.2431 143.616 71.6418 144.497 70.74 145.18C69.8382 145.85 68.7177 146.184 67.3787 146.184C66.3129 146.184 65.3564 145.945 64.5092 145.467C63.6757 144.989 63.0199 144.312 62.5416 143.438C62.0634 142.55 61.8243 141.525 61.8243 140.364C61.8243 139.202 62.0565 138.184 62.5211 137.31C62.9857 136.435 63.6347 135.766 64.4682 135.301C65.3154 134.823 66.2856 134.584 67.3787 134.584C68.4445 134.584 69.3873 134.816 70.2071 135.281C71.027 135.745 71.6555 136.387 72.0928 137.207C72.5437 138.013 72.7691 138.929 72.7691 139.954ZM70.8425 139.564C70.8425 138.854 70.6854 138.246 70.3711 137.74C70.0568 137.221 69.6264 136.831 69.0798 136.572C68.5469 136.299 67.9526 136.162 67.2967 136.162C66.3539 136.162 65.5477 136.463 64.8782 137.064C64.2223 137.665 63.8465 138.498 63.7509 139.564H70.8425ZM77.5061 136.305V142.926C77.5061 143.472 77.6222 143.862 77.8545 144.094C78.0868 144.312 78.4899 144.422 79.0638 144.422H80.437V146H78.7564C77.7179 146 76.939 145.761 76.4198 145.283C75.9006 144.804 75.641 144.019 75.641 142.926V136.305H74.1857V134.768H75.641V131.94H77.5061V134.768H80.437V136.305H77.5061ZM92.7317 136.305H90.3747V146H88.5096V136.305H87.0544V134.768H88.5096V133.969C88.5096 132.712 88.8307 131.796 89.4729 131.222C90.1288 130.635 91.1741 130.341 92.6088 130.341V131.899C91.7889 131.899 91.2082 132.063 90.8666 132.391C90.5387 132.705 90.3747 133.231 90.3747 133.969V134.768H92.7317V136.305ZM95.8697 132.944C95.5145 132.944 95.2138 132.821 94.9679 132.575C94.7219 132.329 94.599 132.029 94.599 131.673C94.599 131.318 94.7219 131.017 94.9679 130.771C95.2138 130.526 95.5145 130.403 95.8697 130.403C96.2113 130.403 96.4983 130.526 96.7306 130.771C96.9765 131.017 97.0995 131.318 97.0995 131.673C97.0995 132.029 96.9765 132.329 96.7306 132.575C96.4983 132.821 96.2113 132.944 95.8697 132.944ZM96.7715 134.768V146H94.9064V134.768H96.7715ZM101.815 130.833V146H99.9503V130.833H101.815ZM115.242 139.954C115.242 140.309 115.222 140.685 115.181 141.081H106.204C106.272 142.188 106.648 143.055 107.331 143.684C108.028 144.299 108.868 144.606 109.852 144.606C110.658 144.606 111.328 144.422 111.86 144.053C112.407 143.67 112.79 143.165 113.008 142.536H115.017C114.716 143.616 114.115 144.497 113.213 145.18C112.311 145.85 111.191 146.184 109.852 146.184C108.786 146.184 107.83 145.945 106.982 145.467C106.149 144.989 105.493 144.312 105.015 143.438C104.537 142.55 104.297 141.525 104.297 140.364C104.297 139.202 104.53 138.184 104.994 137.31C105.459 136.435 106.108 135.766 106.941 135.301C107.789 134.823 108.759 134.584 109.852 134.584C110.918 134.584 111.86 134.816 112.68 135.281C113.5 135.745 114.129 136.387 114.566 137.207C115.017 138.013 115.242 138.929 115.242 139.954ZM113.316 139.564C113.316 138.854 113.159 138.246 112.844 137.74C112.53 137.221 112.1 136.831 111.553 136.572C111.02 136.299 110.426 136.162 109.77 136.162C108.827 136.162 108.021 136.463 107.351 137.064C106.695 137.665 106.32 138.498 106.224 139.564H113.316ZM119.569 136.592C119.897 135.95 120.362 135.451 120.963 135.096C121.578 134.741 122.323 134.563 123.197 134.563V136.49H122.705C120.615 136.49 119.569 137.624 119.569 139.892V146H117.704V134.768H119.569V136.592Z" fill="#062A37"/>
<path d="M64.6949 8.95291C64.8767 7.34839 65.0478 5.74387 65.2297 4.13936C64.513 3.42267 63.807 2.71668 63.0903 2H48.1148C46.6922 3.06968 45.2588 4.13936 43.8361 5.20903C39.5574 21.6072 35.2787 38.016 31 54.4142C31.7167 55.8369 32.4227 57.2702 33.1394 58.6929C53.2814 58.8748 73.4341 59.0459 93.5762 59.2278C95.3625 58.1581 97.1382 57.0884 98.9245 56.0187C102.487 42.1129 106.059 28.2071 109.621 14.3013L106.412 11.0923V7.88323L103.203 4.67419H72.1826C71.8296 6.81355 71.4659 8.95291 71.1129 11.0923H64.6949V8.95291Z" stroke="#1C586E" stroke-width="2.928" stroke-miterlimit="10"/>
<path d="M106.412 11.0923H71.1128" stroke="#1C586E" stroke-width="2.928" stroke-miterlimit="10"/>
</svg>
