<svg width="129" height="153" viewBox="0 0 129 153" fill="none" xmlns="http://www.w3.org/2000/svg">
<g clip-path="url(#clip0_308_966)">
<path d="M40.9919 64.0358C57.7986 64.0943 74.6053 64.1529 91.4267 64.2261C91.6024 62.6157 91.6756 60.2001 91.0607 57.3892C89.216 49.0298 82.7305 44.4767 81.0908 43.3495C71.7066 36.9518 61.444 39.5138 60.2142 39.8359C52.5721 41.8708 48.1216 46.9363 46.3648 49.2494C41.7239 55.3396 41.109 61.6495 40.9919 64.0358Z" fill="#1C586E"/>
<path d="M66.2604 27.3475C73.8122 27.3475 79.9341 21.2256 79.9341 13.6738C79.9341 6.12195 73.8122 0 66.2604 0C58.7086 0 52.5866 6.12195 52.5866 13.6738C52.5866 21.2256 58.7086 27.3475 66.2604 27.3475Z" fill="#1C586E"/>
</g>
<path d="M1.04041 96.2811V91.6256H9.15097V113H3.93913V96.2811H1.04041ZM15.4162 113.234C14.5378 113.234 13.8156 112.98 13.2495 112.473C12.7029 111.946 12.4296 111.302 12.4296 110.54C12.4296 109.76 12.7029 109.106 13.2495 108.579C13.8156 108.052 14.5378 107.788 15.4162 107.788C16.2751 107.788 16.9778 108.052 17.5244 108.579C18.0904 109.106 18.3735 109.76 18.3735 110.54C18.3735 111.302 18.0904 111.946 17.5244 112.473C16.9778 112.98 16.2751 113.234 15.4162 113.234ZM20.3126 96.2811V91.6256H28.4232V113H23.2113V96.2811H20.3126ZM35.3618 101.522C33.5269 100.546 32.6095 99.0139 32.6095 96.9253C32.6095 95.8712 32.8828 94.9147 33.4293 94.0558C33.9759 93.1774 34.8055 92.4845 35.9181 91.977C37.0308 91.4499 38.3972 91.1864 40.0173 91.1864C41.6375 91.1864 42.9941 91.4499 44.0873 91.977C45.1999 92.4845 46.0295 93.1774 46.5761 94.0558C47.1226 94.9147 47.3959 95.8712 47.3959 96.9253C47.3959 97.9794 47.1421 98.8968 46.6346 99.6776C46.1466 100.458 45.4829 101.073 44.6436 101.522C45.6977 102.03 46.5077 102.732 47.0738 103.63C47.6399 104.509 47.9229 105.543 47.9229 106.734C47.9229 108.12 47.5716 109.32 46.8689 110.336C46.1661 111.331 45.2097 112.092 43.9994 112.619C42.8087 113.146 41.4813 113.41 40.0173 113.41C38.5533 113.41 37.2162 113.146 36.006 112.619C34.8153 112.092 33.8685 111.331 33.1658 110.336C32.4631 109.32 32.1117 108.12 32.1117 106.734C32.1117 105.524 32.3948 104.48 32.9609 103.601C33.5269 102.703 34.3273 102.01 35.3618 101.522ZM42.5354 97.6866C42.5354 96.8862 42.3012 96.2714 41.8327 95.8419C41.3837 95.393 40.7786 95.1685 40.0173 95.1685C39.2561 95.1685 38.6412 95.393 38.1727 95.8419C37.7237 96.2909 37.4993 96.9155 37.4993 97.7158C37.4993 98.4771 37.7335 99.0822 38.202 99.5312C38.6705 99.9606 39.2756 100.175 40.0173 100.175C40.7591 100.175 41.3642 99.9509 41.8327 99.5019C42.3012 99.053 42.5354 98.4478 42.5354 97.6866ZM40.0173 103.689C39.0999 103.689 38.3581 103.943 37.7921 104.45C37.226 104.938 36.9429 105.621 36.9429 106.5C36.9429 107.32 37.2162 107.993 37.7628 108.52C38.3289 109.047 39.0804 109.311 40.0173 109.311C40.9543 109.311 41.6863 109.047 42.2133 108.52C42.7599 107.993 43.0332 107.32 43.0332 106.5C43.0332 105.641 42.7501 104.958 42.1841 104.45C41.6375 103.943 40.9153 103.689 40.0173 103.689ZM50.9516 109.194V105.153L60.2041 91.9184H65.7966V104.86H68.1975V109.194H65.7966V113H60.7897V109.194H50.9516ZM61.141 97.423L56.222 104.86H61.141V97.423ZM73.4901 113.234C72.6117 113.234 71.8895 112.98 71.3234 112.473C70.7768 111.946 70.5035 111.302 70.5035 110.54C70.5035 109.76 70.7768 109.106 71.3234 108.579C71.8895 108.052 72.6117 107.788 73.4901 107.788C74.349 107.788 75.0517 108.052 75.5983 108.579C76.1643 109.106 76.4474 109.76 76.4474 110.54C76.4474 111.302 76.1643 111.946 75.5983 112.473C75.0517 112.98 74.349 113.234 73.4901 113.234ZM92.558 95.3734L85.2087 113H80.0847L87.5219 95.9298H78.4158V91.6549H92.558V95.3734ZM94.7 109.194V105.153L103.953 91.9184H109.545V104.86H111.946V109.194H109.545V113H104.538V109.194H94.7ZM104.889 97.423L99.9704 104.86H104.889V97.423ZM128.043 95.3734L120.694 113H115.57L123.007 95.9298H113.901V91.6549H128.043V95.3734Z" fill="#1C586E"/>
<path d="M20.2866 129.714C21.8443 129.714 23.1902 130.008 24.3243 130.596C25.4721 131.17 26.3466 131.996 26.9478 133.076C27.5627 134.155 27.8701 135.426 27.8701 136.888C27.8701 138.35 27.5627 139.621 26.9478 140.7C26.3466 141.766 25.4721 142.586 24.3243 143.16C23.1902 143.72 21.8443 144 20.2866 144H15.839V129.714H20.2866ZM20.2866 142.463C22.1312 142.463 23.5386 141.978 24.5088 141.008C25.4789 140.024 25.964 138.651 25.964 136.888C25.964 135.112 25.4721 133.725 24.4883 132.727C23.5181 131.73 22.1176 131.231 20.2866 131.231H17.7041V142.463H20.2866ZM40.5783 137.954C40.5783 138.309 40.5578 138.685 40.5168 139.081H31.5396C31.6079 140.188 31.9836 141.055 32.6668 141.684C33.3637 142.299 34.204 142.606 35.1878 142.606C35.994 142.606 36.6636 142.422 37.1964 142.053C37.743 141.67 38.1256 141.165 38.3442 140.536H40.3528C40.0522 141.616 39.451 142.497 38.5492 143.18C37.6474 143.85 36.5269 144.184 35.1878 144.184C34.122 144.184 33.1656 143.945 32.3184 143.467C31.4849 142.989 30.829 142.312 30.3508 141.438C29.8725 140.55 29.6334 139.525 29.6334 138.364C29.6334 137.202 29.8657 136.184 30.3303 135.31C30.7949 134.435 31.4439 133.766 32.2774 133.301C33.1246 132.823 34.0947 132.584 35.1878 132.584C36.2536 132.584 37.1964 132.816 38.0163 133.281C38.8361 133.745 39.4647 134.387 39.9019 135.207C40.3528 136.013 40.5783 136.929 40.5783 137.954ZM38.6517 137.564C38.6517 136.854 38.4945 136.246 38.1803 135.74C37.866 135.221 37.4356 134.831 36.889 134.572C36.3561 134.299 35.7617 134.162 35.1059 134.162C34.163 134.162 33.3569 134.463 32.6873 135.064C32.0315 135.665 31.6557 136.498 31.56 137.564H38.6517ZM44.9053 128.833V144H43.0402V128.833H44.9053ZM50.3592 134.305V140.926C50.3592 141.472 50.4753 141.862 50.7076 142.094C50.9399 142.312 51.343 142.422 51.9169 142.422H53.2901V144H51.6095C50.571 144 49.7921 143.761 49.2729 143.283C48.7537 142.804 48.4941 142.019 48.4941 140.926V134.305H47.0388V132.768H48.4941V129.94H50.3592V132.768H53.2901V134.305H50.3592ZM54.8531 138.343C54.8531 137.195 55.0854 136.191 55.55 135.33C56.0146 134.456 56.6499 133.779 57.4561 133.301C58.2759 132.823 59.1846 132.584 60.1821 132.584C61.1659 132.584 62.0199 132.796 62.7441 133.219C63.4683 133.643 64.008 134.176 64.3633 134.818V132.768H66.2489V144H64.3633V141.909C63.9943 142.565 63.4409 143.112 62.7031 143.549C61.9789 143.973 61.1317 144.184 60.1616 144.184C59.1641 144.184 58.2623 143.939 57.4561 143.447C56.6499 142.955 56.0146 142.265 55.55 141.377C55.0854 140.488 54.8531 139.477 54.8531 138.343ZM64.3633 138.364C64.3633 137.516 64.1925 136.779 63.8509 136.15C63.5093 135.521 63.0447 135.043 62.4571 134.715C61.8832 134.374 61.2479 134.203 60.551 134.203C59.8541 134.203 59.2188 134.367 58.6449 134.695C58.071 135.023 57.6132 135.501 57.2716 136.13C56.93 136.758 56.7592 137.496 56.7592 138.343C56.7592 139.204 56.93 139.955 57.2716 140.598C57.6132 141.226 58.071 141.711 58.6449 142.053C59.2188 142.381 59.8541 142.545 60.551 142.545C61.2479 142.545 61.8832 142.381 62.4571 142.053C63.0447 141.711 63.5093 141.226 63.8509 140.598C64.1925 139.955 64.3633 139.211 64.3633 138.364ZM74.0329 132.584C75.003 132.584 75.8502 132.796 76.5744 133.219C77.3122 133.643 77.8588 134.176 78.2141 134.818V132.768H80.0997V144.246C80.0997 145.271 79.8811 146.179 79.4438 146.972C79.0066 147.778 78.378 148.407 77.5582 148.858C76.752 149.308 75.8092 149.534 74.7297 149.534C73.254 149.534 72.0243 149.185 71.0405 148.489C70.0567 147.792 69.4759 146.842 69.2983 145.64H71.1429C71.3479 146.323 71.7715 146.869 72.4137 147.279C73.0559 147.703 73.8279 147.915 74.7297 147.915C75.7545 147.915 76.5881 147.594 77.2303 146.951C77.8861 146.309 78.2141 145.407 78.2141 144.246V141.889C77.8451 142.545 77.2986 143.091 76.5744 143.529C75.8502 143.966 75.003 144.184 74.0329 144.184C73.0354 144.184 72.1268 143.939 71.3069 143.447C70.5007 142.955 69.8654 142.265 69.4008 141.377C68.9362 140.488 68.7039 139.477 68.7039 138.343C68.7039 137.195 68.9362 136.191 69.4008 135.33C69.8654 134.456 70.5007 133.779 71.3069 133.301C72.1268 132.823 73.0354 132.584 74.0329 132.584ZM78.2141 138.364C78.2141 137.516 78.0433 136.779 77.7017 136.15C77.3601 135.521 76.8955 135.043 76.3079 134.715C75.7341 134.374 75.0987 134.203 74.4018 134.203C73.7049 134.203 73.0696 134.367 72.4957 134.695C71.9218 135.023 71.464 135.501 71.1225 136.13C70.7808 136.758 70.61 137.496 70.61 138.343C70.61 139.204 70.7808 139.955 71.1225 140.598C71.464 141.226 71.9218 141.711 72.4957 142.053C73.0696 142.381 73.7049 142.545 74.4018 142.545C75.0987 142.545 75.7341 142.381 76.3079 142.053C76.8955 141.711 77.3601 141.226 77.7017 140.598C78.0433 139.955 78.2141 139.211 78.2141 138.364ZM93.4996 137.954C93.4996 138.309 93.4791 138.685 93.4381 139.081H84.4609C84.5292 140.188 84.9049 141.055 85.5881 141.684C86.285 142.299 87.1253 142.606 88.1092 142.606C88.9153 142.606 89.5849 142.422 90.1178 142.053C90.6643 141.67 91.0469 141.165 91.2655 140.536H93.2741C92.9735 141.616 92.3723 142.497 91.4705 143.18C90.5687 143.85 89.4482 144.184 88.1092 144.184C87.0434 144.184 86.0869 143.945 85.2397 143.467C84.4062 142.989 83.7503 142.312 83.2721 141.438C82.7939 140.55 82.5547 139.525 82.5547 138.364C82.5547 137.202 82.787 136.184 83.2516 135.31C83.7162 134.435 84.3652 133.766 85.1987 133.301C86.0459 132.823 87.016 132.584 88.1092 132.584C89.1749 132.584 90.1178 132.816 90.9376 133.281C91.7574 133.745 92.386 134.387 92.8232 135.207C93.2741 136.013 93.4996 136.929 93.4996 137.954ZM91.573 137.564C91.573 136.854 91.4158 136.246 91.1016 135.74C90.7873 135.221 90.3569 134.831 89.8103 134.572C89.2774 134.299 88.683 134.162 88.0272 134.162C87.0844 134.162 86.2782 134.463 85.6086 135.064C84.9528 135.665 84.577 136.498 84.4814 137.564H91.573ZM97.8267 134.592C98.1546 133.95 98.6192 133.451 99.2204 133.096C99.8353 132.741 100.58 132.563 101.454 132.563V134.49H100.963C98.872 134.49 97.8267 135.624 97.8267 137.892V144H95.9615V132.768H97.8267V134.592ZM113.855 137.954C113.855 138.309 113.835 138.685 113.794 139.081H104.817C104.885 140.188 105.261 141.055 105.944 141.684C106.641 142.299 107.481 142.606 108.465 142.606C109.271 142.606 109.941 142.422 110.474 142.053C111.02 141.67 111.403 141.165 111.621 140.536H113.63C113.329 141.616 112.728 142.497 111.826 143.18C110.925 143.85 109.804 144.184 108.465 144.184C107.399 144.184 106.443 143.945 105.596 143.467C104.762 142.989 104.106 142.312 103.628 141.438C103.15 140.55 102.911 139.525 102.911 138.364C102.911 137.202 103.143 136.184 103.607 135.31C104.072 134.435 104.721 133.766 105.555 133.301C106.402 132.823 107.372 132.584 108.465 132.584C109.531 132.584 110.474 132.816 111.293 133.281C112.113 133.745 112.742 134.387 113.179 135.207C113.63 136.013 113.855 136.929 113.855 137.954ZM111.929 137.564C111.929 136.854 111.772 136.246 111.457 135.74C111.143 135.221 110.713 134.831 110.166 134.572C109.633 134.299 109.039 134.162 108.383 134.162C107.44 134.162 106.634 134.463 105.965 135.064C105.309 135.665 104.933 136.498 104.837 137.564H111.929Z" fill="#062A37"/>
<defs>
<clipPath id="clip0_308_966">
<rect width="50.5519" height="57.2278" fill="white" transform="translate(40.9919)"/>
</clipPath>
</defs>
</svg>
