<svg width="154" height="186" viewBox="0 0 154 186" fill="none" xmlns="http://www.w3.org/2000/svg">
<path d="M1.81915 99.6573C1.89723 97.5686 2.58043 95.9582 3.86875 94.8261C5.15707 93.6939 6.90411 93.1278 9.10987 93.1278C10.5739 93.1278 11.8231 93.3816 12.8577 93.8891C13.9118 94.3966 14.7023 95.0896 15.2294 95.968C15.7759 96.8464 16.0492 97.8322 16.0492 98.9253C16.0492 100.214 15.7271 101.268 15.083 102.088C14.4388 102.888 13.6873 103.434 12.8284 103.727V103.844C13.9411 104.215 14.8195 104.83 15.4636 105.689C16.1078 106.548 16.4299 107.651 16.4299 108.998C16.4299 110.208 16.1468 111.281 15.5807 112.218C15.0342 113.136 14.2241 113.858 13.1505 114.385C12.0964 114.912 10.8374 115.176 9.37339 115.176C7.03099 115.176 5.15707 114.6 3.75163 113.448C2.36571 112.296 1.63371 110.559 1.55563 108.236H6.41611C6.43563 109.095 6.67963 109.778 7.14811 110.286C7.61659 110.774 8.29979 111.018 9.19771 111.018C9.95899 111.018 10.5446 110.803 10.9545 110.374C11.3839 109.925 11.5987 109.339 11.5987 108.617C11.5987 107.68 11.2961 107.007 10.691 106.597C10.1054 106.167 9.15867 105.952 7.85083 105.952H6.91387V101.883H7.85083C8.84635 101.883 9.64667 101.717 10.2518 101.385C10.8764 101.033 11.1887 100.419 11.1887 99.5402C11.1887 98.8374 10.9935 98.2909 10.6031 97.9005C10.2127 97.5101 9.67595 97.3149 8.99275 97.3149C8.25099 97.3149 7.69467 97.5394 7.32379 97.9883C6.97243 98.4373 6.76747 98.9936 6.70891 99.6573H1.81915ZM25.2569 110.374L22.0068 118.777H18.8153L20.5135 110.374H25.2569ZM38.3482 99.3938C38.1921 98.6715 37.9188 98.1347 37.5284 97.7834C37.138 97.4125 36.5817 97.227 35.8594 97.227C34.7468 97.227 33.9465 97.715 33.4585 98.691C32.9705 99.6475 32.7167 101.17 32.6972 103.259C33.1266 102.576 33.7415 102.039 34.5418 101.648C35.3617 101.258 36.2596 101.063 37.2356 101.063C39.1486 101.063 40.6809 101.668 41.8326 102.878C43.0038 104.088 43.5894 105.777 43.5894 107.944C43.5894 109.368 43.2966 110.618 42.711 111.691C42.1449 112.765 41.3055 113.604 40.1929 114.209C39.0998 114.815 37.8017 115.117 36.2986 115.117C33.2926 115.117 31.2039 114.18 30.0327 112.306C28.8615 110.413 28.2759 107.7 28.2759 104.166C28.2759 100.458 28.8908 97.7053 30.1206 95.9094C31.3698 94.0941 33.3609 93.1864 36.0937 93.1864C37.5577 93.1864 38.7874 93.4792 39.783 94.0648C40.798 94.6309 41.5593 95.3824 42.0668 96.3194C42.5938 97.2563 42.9062 98.2811 43.0038 99.3938H38.3482ZM36.0351 105.016C35.1958 105.016 34.493 105.269 33.927 105.777C33.3804 106.265 33.1071 106.968 33.1071 107.885C33.1071 108.822 33.3609 109.554 33.8684 110.081C34.3954 110.608 35.1372 110.872 36.0937 110.872C36.9526 110.872 37.626 110.618 38.114 110.11C38.6215 109.583 38.8753 108.871 38.8753 107.973C38.8753 107.055 38.6313 106.333 38.1433 105.806C37.6553 105.279 36.9526 105.016 36.0351 105.016ZM46.2456 110.989C46.9093 110.462 47.2118 110.218 47.1533 110.257C49.0662 108.676 50.5693 107.377 51.6624 106.362C52.775 105.347 53.712 104.284 54.4733 103.171C55.2346 102.058 55.6152 100.975 55.6152 99.9208C55.6152 99.1205 55.4298 98.4958 55.0589 98.0469C54.688 97.5979 54.1317 97.3734 53.3899 97.3734C52.6482 97.3734 52.0626 97.6565 51.6331 98.2226C51.2232 98.7691 51.0182 99.5499 51.0182 100.565H46.187C46.2261 98.9058 46.5774 97.5198 47.2411 96.4072C47.9243 95.2946 48.8125 94.4747 49.9056 93.9477C51.0182 93.4206 52.248 93.1571 53.5949 93.1571C55.9178 93.1571 57.6648 93.7525 58.836 94.9432C60.0267 96.1339 60.6221 97.6858 60.6221 99.5987C60.6221 101.687 59.9096 103.63 58.4846 105.425C57.0597 107.202 55.2443 108.939 53.0386 110.637H60.9442V114.707H46.2456V110.989ZM78.1985 97.9883H69.0632V102.029C69.4536 101.6 70.0001 101.248 70.7029 100.975C71.4056 100.702 72.1669 100.565 72.9867 100.565C74.4507 100.565 75.6609 100.897 76.6174 101.56C77.5934 102.224 78.3059 103.083 78.7549 104.137C79.2038 105.191 79.4283 106.333 79.4283 107.563C79.4283 109.847 78.7841 111.662 77.4958 113.009C76.2075 114.336 74.3921 115 72.0497 115C70.4881 115 69.1315 114.736 67.9798 114.209C66.8281 113.663 65.94 112.911 65.3153 111.955C64.6907 110.998 64.3491 109.896 64.2905 108.646H69.1803C69.2974 109.251 69.5805 109.759 70.0294 110.169C70.4784 110.559 71.0933 110.754 71.8741 110.754C72.7915 110.754 73.4747 110.462 73.9237 109.876C74.3726 109.29 74.5971 108.51 74.5971 107.534C74.5971 106.577 74.3629 105.845 73.8944 105.338C73.4259 104.83 72.7427 104.576 71.8448 104.576C71.1811 104.576 70.6345 104.742 70.2051 105.074C69.7757 105.386 69.4926 105.806 69.356 106.333H64.5248V93.5963H78.1985V97.9883ZM98.0007 110.754V115H95.4534C93.638 115 92.2228 114.561 91.2078 113.682C90.1927 112.784 89.6852 111.33 89.6852 109.32V102.82H87.6942V98.6618H89.6852V94.6797H94.6921V98.6618H97.9715V102.82H94.6921V109.378C94.6921 109.866 94.8092 110.218 95.0435 110.432C95.2777 110.647 95.6681 110.754 96.2147 110.754H98.0007ZM108.227 115.234C106.626 115.234 105.182 114.893 103.893 114.209C102.625 113.526 101.619 112.55 100.877 111.281C100.155 110.013 99.7941 108.529 99.7941 106.831C99.7941 105.152 100.165 103.678 100.907 102.41C101.649 101.121 102.664 100.136 103.952 99.4523C105.24 98.7691 106.685 98.4275 108.285 98.4275C109.886 98.4275 111.33 98.7691 112.619 99.4523C113.907 100.136 114.922 101.121 115.664 102.41C116.406 103.678 116.777 105.152 116.777 106.831C116.777 108.51 116.396 109.993 115.635 111.281C114.893 112.55 113.868 113.526 112.56 114.209C111.272 114.893 109.827 115.234 108.227 115.234ZM108.227 110.901C109.183 110.901 109.993 110.549 110.657 109.847C111.34 109.144 111.682 108.139 111.682 106.831C111.682 105.523 111.35 104.518 110.686 103.815C110.042 103.112 109.242 102.761 108.285 102.761C107.309 102.761 106.499 103.112 105.855 103.815C105.211 104.498 104.889 105.504 104.889 106.831C104.889 108.139 105.201 109.144 105.826 109.847C106.47 110.549 107.27 110.901 108.227 110.901ZM129.388 98.4861C131.301 98.4861 132.824 99.1107 133.956 100.36C135.107 101.59 135.683 103.288 135.683 105.455V115H130.706V106.128C130.706 105.035 130.423 104.186 129.856 103.581C129.29 102.976 128.529 102.673 127.573 102.673C126.616 102.673 125.855 102.976 125.289 103.581C124.723 104.186 124.44 105.035 124.44 106.128V115H119.433V98.6618H124.44V100.828C124.947 100.106 125.63 99.5402 126.489 99.1302C127.348 98.7008 128.314 98.4861 129.388 98.4861ZM145.809 115.234C144.384 115.234 143.115 114.99 142.003 114.502C140.89 114.014 140.012 113.351 139.367 112.511C138.723 111.652 138.362 110.696 138.284 109.642H143.232C143.291 110.208 143.554 110.667 144.023 111.018C144.491 111.369 145.067 111.545 145.75 111.545C146.375 111.545 146.853 111.428 147.185 111.194C147.537 110.94 147.712 110.618 147.712 110.227C147.712 109.759 147.468 109.417 146.98 109.203C146.492 108.968 145.702 108.715 144.609 108.441C143.437 108.168 142.461 107.885 141.681 107.592C140.9 107.28 140.226 106.802 139.66 106.157C139.094 105.494 138.811 104.606 138.811 103.493C138.811 102.556 139.065 101.707 139.572 100.946C140.099 100.165 140.861 99.5499 141.856 99.101C142.871 98.652 144.072 98.4275 145.458 98.4275C147.507 98.4275 149.118 98.935 150.289 99.9501C151.48 100.965 152.163 102.312 152.338 103.991H147.712C147.634 103.425 147.38 102.976 146.951 102.644C146.541 102.312 145.994 102.146 145.311 102.146C144.726 102.146 144.277 102.263 143.964 102.497C143.652 102.712 143.496 103.015 143.496 103.405C143.496 103.874 143.74 104.225 144.228 104.459C144.735 104.693 145.516 104.928 146.57 105.162C147.781 105.474 148.766 105.787 149.528 106.099C150.289 106.392 150.953 106.88 151.519 107.563C152.104 108.227 152.407 109.124 152.426 110.257C152.426 111.213 152.153 112.072 151.606 112.833C151.079 113.575 150.308 114.161 149.293 114.59C148.298 115.02 147.136 115.234 145.809 115.234Z" fill="#1C586E"/>
<path d="M3.06292 138.847C3.06292 137.453 3.37719 136.203 4.00574 135.096C4.63428 133.976 5.48828 133.101 6.56774 132.473C7.66086 131.844 8.87012 131.53 10.1955 131.53C11.7532 131.53 13.1128 131.906 14.2742 132.657C15.4357 133.409 16.2828 134.474 16.8157 135.854H14.5817C14.1854 134.994 13.6115 134.331 12.86 133.866C12.1222 133.402 11.234 133.17 10.1955 133.17C9.19806 133.17 8.30307 133.402 7.51056 133.866C6.71804 134.331 6.09633 134.994 5.64542 135.854C5.19451 136.702 4.96905 137.699 4.96905 138.847C4.96905 139.981 5.19451 140.978 5.64542 141.839C6.09633 142.686 6.71804 143.342 7.51056 143.807C8.30307 144.272 9.19806 144.504 10.1955 144.504C11.234 144.504 12.1222 144.278 12.86 143.827C13.6115 143.363 14.1854 142.7 14.5817 141.839H16.8157C16.2828 143.206 15.4357 144.265 14.2742 145.016C13.1128 145.754 11.7532 146.123 10.1955 146.123C8.87012 146.123 7.66086 145.816 6.56774 145.201C5.48828 144.572 4.63428 143.704 4.00574 142.598C3.37719 141.491 3.06292 140.241 3.06292 138.847ZM26.0689 146.143C24.7435 146.143 23.5342 145.836 22.4411 145.221C21.348 144.593 20.4803 143.725 19.8381 142.618C19.2096 141.498 18.8953 140.241 18.8953 138.847C18.8953 137.453 19.2096 136.203 19.8381 135.096C20.4803 133.976 21.348 133.108 22.4411 132.493C23.5342 131.865 24.7435 131.55 26.0689 131.55C27.408 131.55 28.6241 131.865 29.7172 132.493C30.8103 133.108 31.6711 133.969 32.2997 135.076C32.9282 136.182 33.2425 137.44 33.2425 138.847C33.2425 140.254 32.9282 141.511 32.2997 142.618C31.6711 143.725 30.8103 144.593 29.7172 145.221C28.6241 145.836 27.408 146.143 26.0689 146.143ZM26.0689 144.524C27.0664 144.524 27.9613 144.292 28.7539 143.827C29.56 143.363 30.1886 142.7 30.6395 141.839C31.1041 140.978 31.3364 139.981 31.3364 138.847C31.3364 137.699 31.1041 136.702 30.6395 135.854C30.1886 134.994 29.5669 134.331 28.7744 133.866C27.9818 133.402 27.08 133.17 26.0689 133.17C25.0577 133.17 24.1559 133.402 23.3634 133.866C22.5709 134.331 21.9424 134.994 21.4778 135.854C21.0269 136.702 20.8014 137.699 20.8014 138.847C20.8014 139.981 21.0269 140.978 21.4778 141.839C21.9424 142.7 22.5709 143.363 23.3634 143.827C24.1696 144.292 25.0714 144.524 26.0689 144.524ZM35.1718 144.504C36.9072 143.11 38.2667 141.969 39.2505 141.081C40.2343 140.179 41.061 139.243 41.7306 138.273C42.4138 137.289 42.7554 136.326 42.7554 135.383C42.7554 134.495 42.5367 133.798 42.0995 133.292C41.6759 132.773 40.9859 132.514 40.0294 132.514C39.1002 132.514 38.376 132.807 37.8568 133.395C37.3512 133.969 37.078 134.741 37.037 135.711H35.2333C35.288 134.181 35.7525 132.999 36.627 132.165C37.5015 131.332 38.6288 130.915 40.0089 130.915C41.4163 130.915 42.5299 131.304 43.3497 132.083C44.1832 132.862 44.6 133.935 44.6 135.301C44.6 136.435 44.2584 137.542 43.5752 138.621C42.9057 139.687 42.1405 140.63 41.2796 141.45C40.4188 142.256 39.3189 143.199 37.9798 144.278H45.0304V145.836H35.1718V144.504ZM57.5288 136.305H55.1718V146H53.3066V136.305H51.8514V134.768H53.3066V133.969C53.3066 132.712 53.6277 131.796 54.2699 131.222C54.9258 130.635 55.9711 130.341 57.4058 130.341V131.899C56.586 131.899 56.0053 132.063 55.6637 132.391C55.3357 132.705 55.1718 133.231 55.1718 133.969V134.768H57.5288V136.305ZM64.602 146.184C63.5499 146.184 62.5934 145.945 61.7326 145.467C60.8854 144.989 60.2159 144.312 59.724 143.438C59.2457 142.55 59.0066 141.525 59.0066 140.364C59.0066 139.216 59.2525 138.205 59.7445 137.33C60.25 136.442 60.9332 135.766 61.7941 135.301C62.6549 134.823 63.6182 134.584 64.684 134.584C65.7498 134.584 66.7131 134.823 67.5739 135.301C68.4348 135.766 69.1111 136.435 69.603 137.31C70.1086 138.184 70.3614 139.202 70.3614 140.364C70.3614 141.525 70.1018 142.55 69.5825 143.438C69.077 144.312 68.3869 144.989 67.5124 145.467C66.6379 145.945 65.6678 146.184 64.602 146.184ZM64.602 144.545C65.2715 144.545 65.9001 144.388 66.4876 144.073C67.0752 143.759 67.5466 143.288 67.9019 142.659C68.2708 142.031 68.4553 141.265 68.4553 140.364C68.4553 139.462 68.2776 138.697 67.9224 138.068C67.5671 137.44 67.1025 136.975 66.5286 136.674C65.9547 136.36 65.333 136.203 64.6635 136.203C63.9803 136.203 63.3517 136.36 62.7779 136.674C62.2176 136.975 61.7667 137.44 61.4251 138.068C61.0835 138.697 60.9127 139.462 60.9127 140.364C60.9127 141.279 61.0767 142.051 61.4046 142.68C61.7462 143.308 62.1971 143.78 62.7574 144.094C63.3176 144.394 63.9325 144.545 64.602 144.545ZM74.6788 136.592C75.0068 135.95 75.4713 135.451 76.0726 135.096C76.6874 134.741 77.4321 134.563 78.3066 134.563V136.49H77.8147C75.7241 136.49 74.6788 137.624 74.6788 139.892V146H72.8137V134.768H74.6788V136.592ZM86.0346 134.563C86.8817 134.563 87.6469 134.748 88.3301 135.117C89.0133 135.472 89.5462 136.012 89.9288 136.736C90.3251 137.46 90.5232 138.341 90.5232 139.38V146H88.6786V139.646C88.6786 138.526 88.3984 137.672 87.8382 137.084C87.278 136.483 86.5128 136.182 85.5427 136.182C84.5589 136.182 83.7732 136.49 83.1856 137.105C82.6117 137.72 82.3248 138.615 82.3248 139.79V146H80.4597V130.833H82.3248V136.367C82.6937 135.793 83.1993 135.349 83.8415 135.035C84.4974 134.72 85.2284 134.563 86.0346 134.563ZM94.5332 132.944C94.1779 132.944 93.8773 132.821 93.6314 132.575C93.3854 132.329 93.2625 132.029 93.2625 131.673C93.2625 131.318 93.3854 131.017 93.6314 130.771C93.8773 130.526 94.1779 130.403 94.5332 130.403C94.8748 130.403 95.1618 130.526 95.394 130.771C95.64 131.017 95.763 131.318 95.763 131.673C95.763 132.029 95.64 132.329 95.394 132.575C95.1618 132.821 94.8748 132.944 94.5332 132.944ZM95.435 134.768V146H93.5699V134.768H95.435ZM104.086 134.563C105.453 134.563 106.559 134.98 107.407 135.813C108.254 136.633 108.677 137.822 108.677 139.38V146H106.833V139.646C106.833 138.526 106.553 137.672 105.992 137.084C105.432 136.483 104.667 136.182 103.697 136.182C102.713 136.182 101.927 136.49 101.34 137.105C100.766 137.72 100.479 138.615 100.479 139.79V146H98.6138V134.768H100.479V136.367C100.848 135.793 101.347 135.349 101.975 135.035C102.617 134.72 103.321 134.563 104.086 134.563ZM111.027 140.343C111.027 139.195 111.259 138.191 111.724 137.33C112.189 136.456 112.824 135.779 113.63 135.301C114.45 134.823 115.366 134.584 116.377 134.584C117.251 134.584 118.064 134.789 118.816 135.199C119.567 135.595 120.141 136.121 120.537 136.777V130.833H122.423V146H120.537V143.889C120.168 144.558 119.622 145.112 118.898 145.549C118.173 145.973 117.326 146.184 116.356 146.184C115.359 146.184 114.45 145.939 113.63 145.447C112.824 144.955 112.189 144.265 111.724 143.377C111.259 142.488 111.027 141.477 111.027 140.343ZM120.537 140.364C120.537 139.516 120.367 138.779 120.025 138.15C119.683 137.521 119.219 137.043 118.631 136.715C118.057 136.374 117.422 136.203 116.725 136.203C116.028 136.203 115.393 136.367 114.819 136.695C114.245 137.023 113.787 137.501 113.446 138.13C113.104 138.758 112.933 139.496 112.933 140.343C112.933 141.204 113.104 141.955 113.446 142.598C113.787 143.226 114.245 143.711 114.819 144.053C115.393 144.381 116.028 144.545 116.725 144.545C117.422 144.545 118.057 144.381 118.631 144.053C119.219 143.711 119.683 143.226 120.025 142.598C120.367 141.955 120.537 141.211 120.537 140.364ZM127.44 136.592C127.768 135.95 128.233 135.451 128.834 135.096C129.449 134.741 130.193 134.563 131.068 134.563V136.49H130.576C128.485 136.49 127.44 137.624 127.44 139.892V146H125.575V134.768H127.44V136.592ZM143.469 139.954C143.469 140.309 143.448 140.685 143.407 141.081H134.43C134.498 142.188 134.874 143.055 135.557 143.684C136.254 144.299 137.095 144.606 138.078 144.606C138.885 144.606 139.554 144.422 140.087 144.053C140.634 143.67 141.016 143.165 141.235 142.536H143.243C142.943 143.616 142.342 144.497 141.44 145.18C140.538 145.85 139.417 146.184 138.078 146.184C137.013 146.184 136.056 145.945 135.209 145.467C134.375 144.989 133.72 144.312 133.241 143.438C132.763 142.55 132.524 141.525 132.524 140.364C132.524 139.202 132.756 138.184 133.221 137.31C133.685 136.435 134.334 135.766 135.168 135.301C136.015 134.823 136.985 134.584 138.078 134.584C139.144 134.584 140.087 134.816 140.907 135.281C141.727 135.745 142.355 136.387 142.792 137.207C143.243 138.013 143.469 138.929 143.469 139.954ZM141.542 139.564C141.542 138.854 141.385 138.246 141.071 137.74C140.757 137.221 140.326 136.831 139.78 136.572C139.247 136.299 138.652 136.162 137.996 136.162C137.054 136.162 136.247 136.463 135.578 137.064C134.922 137.665 134.546 138.498 134.451 139.564H141.542ZM148.206 136.305V142.926C148.206 143.472 148.322 143.862 148.554 144.094C148.787 144.312 149.19 144.422 149.764 144.422H151.137V146H149.456C148.418 146 147.639 145.761 147.12 145.283C146.6 144.804 146.341 144.019 146.341 142.926V136.305H144.885V134.768H146.341V131.94H148.206V134.768H151.137V136.305H148.206ZM51.4307 171.343C51.4307 170.195 51.663 169.191 52.1275 168.33C52.5921 167.456 53.2275 166.779 54.0337 166.301C54.8535 165.823 55.7622 165.584 56.7596 165.584C57.7434 165.584 58.5974 165.796 59.3216 166.219C60.0458 166.643 60.5856 167.176 60.9408 167.818V165.768H62.8265V177H60.9408V174.909C60.5719 175.565 60.0185 176.112 59.2806 176.549C58.5565 176.973 57.7093 177.184 56.7391 177.184C55.7417 177.184 54.8398 176.939 54.0337 176.447C53.2275 175.955 52.5921 175.265 52.1275 174.377C51.663 173.488 51.4307 172.477 51.4307 171.343ZM60.9408 171.364C60.9408 170.516 60.77 169.779 60.4284 169.15C60.0868 168.521 59.6222 168.043 59.0347 167.715C58.4608 167.374 57.8254 167.203 57.1286 167.203C56.4317 167.203 55.7963 167.367 55.2224 167.695C54.6486 168.023 54.1908 168.501 53.8492 169.13C53.5076 169.758 53.3368 170.496 53.3368 171.343C53.3368 172.204 53.5076 172.955 53.8492 173.598C54.1908 174.226 54.6486 174.711 55.2224 175.053C55.7963 175.381 56.4317 175.545 57.1286 175.545C57.8254 175.545 58.4608 175.381 59.0347 175.053C59.6222 174.711 60.0868 174.226 60.4284 173.598C60.77 172.955 60.9408 172.211 60.9408 171.364ZM59.6906 162.407C59.6906 163.063 59.4788 163.589 59.0552 163.985C58.6453 164.368 58.126 164.559 57.4975 164.559C56.8826 164.559 56.3634 164.361 55.9398 163.965C55.5162 163.568 55.3044 163.049 55.3044 162.407C55.3044 161.765 55.5162 161.245 55.9398 160.849C56.3634 160.453 56.8826 160.255 57.4975 160.255C58.126 160.255 58.6453 160.453 59.0552 160.849C59.4788 161.232 59.6906 161.751 59.6906 162.407ZM58.6043 162.386C58.6043 162.045 58.495 161.771 58.2763 161.567C58.0714 161.348 57.8118 161.239 57.4975 161.239C57.1832 161.239 56.9168 161.348 56.6982 161.567C56.4932 161.771 56.3907 162.045 56.3907 162.386C56.3907 162.728 56.4932 163.008 56.6982 163.227C56.9168 163.445 57.1832 163.555 57.4975 163.555C57.8118 163.555 58.0714 163.445 58.2763 163.227C58.495 163.008 58.6043 162.728 58.6043 162.386ZM67.8435 167.592C68.1714 166.95 68.636 166.451 69.2372 166.096C69.8521 165.741 70.5968 165.563 71.4713 165.563V167.49H70.9794C68.8888 167.49 67.8435 168.624 67.8435 170.892V177H65.9784V165.768H67.8435V167.592ZM75.4895 161.833V177H73.6243V161.833H75.4895ZM79.6316 163.944C79.2763 163.944 78.9757 163.821 78.7298 163.575C78.4838 163.329 78.3608 163.029 78.3608 162.673C78.3608 162.318 78.4838 162.017 78.7298 161.771C78.9757 161.526 79.2763 161.403 79.6316 161.403C79.9732 161.403 80.2601 161.526 80.4924 161.771C80.7384 162.017 80.8613 162.318 80.8613 162.673C80.8613 163.029 80.7384 163.329 80.4924 163.575C80.2601 163.821 79.9732 163.944 79.6316 163.944ZM80.5334 165.768V177H78.6683V165.768H80.5334ZM88.3443 165.584C89.3144 165.584 90.1616 165.796 90.8858 166.219C91.6237 166.643 92.1702 167.176 92.5255 167.818V165.768H94.4111V177.246C94.4111 178.271 94.1925 179.179 93.7552 179.972C93.318 180.778 92.6895 181.407 91.8696 181.858C91.0634 182.308 90.1206 182.534 89.0412 182.534C87.5655 182.534 86.3357 182.185 85.3519 181.489C84.3681 180.792 83.7874 179.842 83.6097 178.64H85.4544C85.6593 179.323 86.0829 179.869 86.7251 180.279C87.3673 180.703 88.1393 180.915 89.0412 180.915C90.066 180.915 90.8995 180.594 91.5417 179.951C92.1975 179.309 92.5255 178.407 92.5255 177.246V174.889C92.1566 175.545 91.61 176.091 90.8858 176.529C90.1616 176.966 89.3144 177.184 88.3443 177.184C87.3468 177.184 86.4382 176.939 85.6183 176.447C84.8122 175.955 84.1768 175.265 83.7122 174.377C83.2476 173.488 83.0153 172.477 83.0153 171.343C83.0153 170.195 83.2476 169.191 83.7122 168.33C84.1768 167.456 84.8122 166.779 85.6183 166.301C86.4382 165.823 87.3468 165.584 88.3443 165.584ZM92.5255 171.364C92.5255 170.516 92.3547 169.779 92.0131 169.15C91.6715 168.521 91.2069 168.043 90.6194 167.715C90.0455 167.374 89.4101 167.203 88.7132 167.203C88.0164 167.203 87.381 167.367 86.8071 167.695C86.2332 168.023 85.7755 168.501 85.4339 169.13C85.0923 169.758 84.9215 170.496 84.9215 171.343C84.9215 172.204 85.0923 172.955 85.4339 173.598C85.7755 174.226 86.2332 174.711 86.8071 175.053C87.381 175.381 88.0164 175.545 88.7132 175.545C89.4101 175.545 90.0455 175.381 90.6194 175.053C91.2069 174.711 91.6715 174.226 92.0131 173.598C92.3547 172.955 92.5255 172.211 92.5255 171.364ZM99.8381 167.305V173.926C99.8381 174.472 99.9542 174.862 100.186 175.094C100.419 175.312 100.822 175.422 101.396 175.422H102.769V177H101.088C100.05 177 99.271 176.761 98.7518 176.283C98.2325 175.804 97.9729 175.019 97.9729 173.926V167.305H96.5177V165.768H97.9729V162.94H99.8381V165.768H102.769V167.305H99.8381Z" fill="#062A37"/>
<path d="M90.3214 36.1325C90.3214 48.887 79.9806 59.2279 67.2261 59.2279C54.4715 59.2279 44.1307 48.887 44.1307 36.1325C44.1307 23.3779 54.4715 13.0371 67.2261 13.0371C67.37 13.0371 67.514 13.0371 67.6919 13.0371C76.7284 13.2742 90.3299 21.7095 90.3299 36.1325H90.3214Z" stroke="#1C586E" stroke-width="2.928" stroke-miterlimit="10"/>
<path d="M68.7419 13.4102C68.6826 14.1046 68.437 16.0864 66.8448 17.577C65.7015 18.6441 64.3972 18.9575 63.8128 19.093C60.5861 19.8213 58.7652 18.0851 57.7574 19.093C57.0883 19.762 57.1561 21.2611 57.7574 22.1249C58.689 23.4631 60.6284 22.8702 61.5431 24.3947C61.9666 25.1061 61.8057 25.6735 62.2969 25.9106C62.8982 26.1986 63.5672 25.538 64.5666 25.1569C65.8116 24.6826 66.9041 24.8859 68.3523 25.1569C73.4677 26.1054 75.5934 31.026 79.7094 31.9746C79.9635 32.0338 80.6495 32.1693 81.2254 32.7283C82.1486 33.6176 82.4873 35.2945 81.9792 36.514C81.2424 38.2841 79.269 37.7759 77.4397 39.546C76.0677 40.8672 76.5843 41.7225 75.17 45.6014C74.0436 48.7011 72.697 52.2497 69.8683 53.1728C69.3601 53.3422 68.293 53.6895 67.5986 53.1728C66.3705 52.2666 67.9204 49.8953 66.8448 46.3552C66.1673 44.1278 64.8715 42.8574 64.5751 42.5695C63.4741 41.5278 63.1861 41.875 62.3053 41.0535C60.8402 39.6984 61.035 38.1824 59.2734 32.7198C59.0532 32.0338 58.9092 31.6188 58.5196 31.2039C57.1053 29.7048 54.8694 31.585 53.2179 30.4501C51.4563 29.239 52.5319 26.5204 50.186 24.3947C49.4915 23.7595 48.7632 23.4292 48.2889 23.2598" stroke="#1C586E" stroke-width="2.928" stroke-miterlimit="10"/>
<path d="M47.5351 8.11658C47.137 8.11658 46.1207 8.16739 45.2654 8.87033C43.995 9.92051 43.3852 12.1479 44.5116 13.4098C45.5533 14.5785 47.4335 14.189 47.5436 14.1636C47.7976 14.5701 48.0856 14.7903 48.2973 14.9173C49.3051 15.5102 50.8042 15.1968 52.083 14.1636C52.2693 14.3414 52.786 14.8072 53.599 14.9173C54.8863 15.1036 55.784 14.2482 55.8687 14.1636C56.0466 13.9857 56.5886 13.4522 56.6225 12.6476C56.6648 11.7414 56.0635 10.8521 55.1065 10.3779C55.1573 10.344 55.9365 9.7596 55.8603 8.86187C55.7925 8.01495 55.0134 7.45599 54.3443 7.3459C53.4381 7.19345 52.4472 7.80322 52.0746 8.86187C52.1508 8.64167 52.3202 8.02343 52.0746 7.3459C51.7358 6.42276 50.7703 5.77063 49.8048 5.82991C48.9918 5.88072 48.4667 6.41428 48.2888 6.58366C47.7045 7.16804 47.569 7.85404 47.5351 8.09965V8.11658Z" stroke="#1C586E" stroke-width="2.928" stroke-miterlimit="10"/>
<path d="M100.171 10.759C100.569 10.6489 104.465 9.64107 107.742 12.275C109.97 14.062 111.426 17.1447 110.774 19.8464C109.563 24.8263 99.9254 25.0973 98.655 25.1481C98.0367 25.1735 97.5117 25.165 97.139 25.1481C96.8595 25.7409 95.8941 27.6296 93.7344 28.5527C91.3038 29.5944 88.3396 28.9931 86.163 27.0367C85.6548 27.6634 84.791 28.5019 83.5122 28.9338C81.0646 29.7553 78.0495 28.7983 76.6945 26.6641C76.1525 25.8087 75.9915 24.9533 75.9407 24.3943C75.4326 24.5044 74.6111 24.6061 73.671 24.3943C71.1641 23.8354 69.9869 21.5656 69.8853 21.3624C68.327 18.2373 70.2495 14.0704 72.9172 12.275C73.5016 11.8769 74.0521 11.6483 74.4332 11.5212C74.357 11.0554 74.1537 9.37005 75.187 7.73551C76.1525 6.21106 77.5922 5.67751 78.2189 5.46578C81.1493 4.44101 83.817 5.94852 84.2744 6.21953C84.6131 5.83842 85.1298 5.30486 85.7904 4.70355C86.2053 4.3309 87.7213 2.95891 88.8223 2.43382C91.4308 1.18038 95.5807 2.78106 97.9097 5.46578C99.5781 7.38828 100.035 9.54791 100.179 10.7675L100.171 10.759Z" stroke="#1C586E" stroke-width="2.928" stroke-miterlimit="10"/>
<path d="M87.5942 18.0597C87.2554 18.2291 86.5779 18.3984 85.7056 18.3984C83.6899 18.3984 82.174 17.1281 82.174 14.7821C82.174 12.4362 83.6899 11.0303 85.9004 11.0303C86.7896 11.0303 87.3486 11.2251 87.5942 11.3521L87.374 12.1059C87.0268 11.9365 86.5271 11.8094 85.9343 11.8094C84.2574 11.8094 83.1479 12.8766 83.1479 14.7567C83.1479 16.5014 84.1557 17.6278 85.8919 17.6278C86.4509 17.6278 87.0268 17.5092 87.3994 17.3313L87.5942 18.0597Z" stroke="#1C586E" stroke-width="1.464" stroke-miterlimit="10"/>
<path d="M94.6318 14.6549C94.6318 17.1109 93.1413 18.4152 91.3119 18.4152C89.4826 18.4152 88.1021 16.95 88.1021 14.7904C88.1021 12.5207 89.508 11.0386 91.422 11.0386C93.3361 11.0386 94.6318 12.5291 94.6318 14.6549ZM89.093 14.765C89.093 16.2894 89.923 17.6614 91.3712 17.6614C92.8194 17.6614 93.6579 16.3149 93.6579 14.6972C93.6579 13.2744 92.9126 11.7923 91.3797 11.7923C89.8468 11.7923 89.093 13.1982 89.093 14.7735V14.765Z" stroke="#1C586E" stroke-width="1.464" stroke-miterlimit="10"/>
<path d="M95.1569 17.9071L95.826 17.2804C96.7068 16.4843 97.1641 15.9846 97.1641 15.4426C97.1641 15.0446 96.91 14.6973 96.3595 14.6973C95.9869 14.6973 95.6735 14.8837 95.4703 15.0276L95.2501 14.5534C95.538 14.3078 96.0123 14.1045 96.5459 14.1045C97.5452 14.1045 97.9517 14.7312 97.9517 15.2986C97.9517 16.0947 97.3504 16.6791 96.5459 17.3821L96.2156 17.6785V17.6954H98.028V18.2798H95.1654V17.8902L95.1569 17.9071Z" stroke="#1C586E" stroke-width="1.464" stroke-miterlimit="10"/>
<path d="M93.3535 31.2119V38.7833H91.0837L94.8695 42.5691L98.6552 38.7833H96.3854V31.2119H93.3535Z" stroke="#1C586E" stroke-width="1.464" stroke-miterlimit="10"/>
<path d="M100.925 36.5137V44.0851H98.6554L102.441 47.8708L106.227 44.0851H103.957V36.5137H100.925Z" stroke="#1C586E" stroke-width="1.464" stroke-miterlimit="10"/>
</svg>
