<?xml version="1.0" encoding="UTF-8"?>
<svg xmlns="http://www.w3.org/2000/svg" xmlns:xlink="http://www.w3.org/1999/xlink" viewBox="0 0 863.62 502.47">
  <defs>
    <style>
      .cls-1 {
        fill: #fdeceb;
      }

      .cls-1, .cls-2, .cls-3, .cls-4, .cls-5, .cls-6, .cls-7, .cls-8, .cls-9, .cls-10, .cls-11, .cls-12, .cls-13, .cls-14, .cls-15, .cls-16, .cls-17, .cls-18, .cls-19, .cls-20, .cls-21, .cls-22, .cls-23, .cls-24, .cls-25, .cls-26, .cls-27 {
        stroke-width: 0px;
      }

      .cls-2 {
        fill: #fde7e6;
      }

      .cls-28 {
        stroke: #f58b87;
        stroke-width: 2px;
      }

      .cls-28, .cls-29, .cls-30 {
        stroke-miterlimit: 10;
      }

      .cls-28, .cls-14 {
        fill: #f69b97;
      }

      .cls-3 {
        fill: #fce0df;
      }

      .cls-4 {
        fill: #fcdddc;
      }

      .cls-5 {
        fill: url(#linear-gradient);
      }

      .cls-6, .cls-30 {
        fill: #f58985;
      }

      .cls-7 {
        fill: #f4e4e3;
      }

      .cls-8 {
        fill: #e0b4b2;
      }

      .cls-9 {
        fill: #fcdbd9;
      }

      .cls-29 {
        stroke: #f8b5b2;
        stroke-width: 3px;
      }

      .cls-29, .cls-25 {
        fill: #f9bcba;
      }

      .cls-10 {
        fill: #fef6f6;
      }

      .cls-11 {
        fill: #eba880;
      }

      .cls-12 {
        fill: #e6c2c0;
      }

      .cls-13 {
        fill: #d39592;
      }

      .cls-15 {
        fill: #c4716d;
      }

      .cls-16 {
        fill: #b34642;
      }

      .cls-17 {
        fill: #b95551;
      }

      .cls-18 {
        fill: #dca49f;
      }

      .cls-19 {
        opacity: .96;
      }

      .cls-19, .cls-26 {
        fill: #fff;
      }

      .cls-20 {
        fill: #ae3a35;
      }

      .cls-21 {
        fill: #a37a77;
      }

      .cls-22 {
        fill: #cf8077;
      }

      .cls-23 {
        fill: #b8534e;
      }

      .cls-24 {
        fill: #d49694;
      }

      .cls-30 {
        stroke: #a92d27;
        stroke-width: 4px;
      }

      .cls-27 {
        fill: #a92d27;
      }
    </style>
    <linearGradient id="linear-gradient" x1="431.46" y1="238.55" x2="433.14" y2="3.29" gradientUnits="userSpaceOnUse">
      <stop offset="0" stop-color="#fff"/>
      <stop offset="1" stop-color="#1c586f"/>
    </linearGradient>
  </defs>
  <g id="Layer_2" data-name="Layer 2">
    <rect class="cls-5" width="863.5" height="396.23"/>
  </g>
  <g id="Layer_3" data-name="Layer 3">
    <path class="cls-22" d="M-.03,156.17c65.67.83,139.92,4.86,220.69,14.53,108.63,13.01,203.05,33.1,281.12,53.97,32.01-7.44,67.26-14.17,105.53-19.37,98.08-13.32,186.63-12.13,256.17-6.65.49,69.42-.37,138.57.12,208-287.33-4.15-576.26-6.27-863.59-10.42-.55-79.34.51-160.72-.03-240.06Z"/>
    <path class="cls-2" d="M.09,316.79c150.02-27.84,351.27-64.28,501.29-92.12,53.9,9.71,119.67,25.52,190.69,52.07,98.63,36.87,120.96,45.39,171.21,81.1.1,12.71.13,132.03.22,144.74-288.13-1.81-575.29,1.61-863.41-.2.31-39.41-.3-146.17,0-185.58Z"/>
    <path class="cls-11" d="M60.37,119.03c-3.52,13.04-6.2,24.43-8.21,33.76-1.4,6.46-2.48,11.94.61,16.73,2.74,4.25,7.86,6.53,12.47,6.69,6.9.24,12.44-4.28,14.6-7.3,6.68-9.35-1.04-29.61-19.47-49.88"/>
    <path class="cls-11" d="M618.94,149.34c-4.48,7.38-6.91,14.04-8.3,18.83-2.37,8.19-4.04,14.31-.96,19.79,2.11,3.75,6.59,7.43,9.89,6.38.85-.27,3.41-1.42,4.79-9.89,1.05-6.48,1.6-18.41-5.43-35.11Z"/>
    <path class="cls-11" d="M712.92,205.05c-2.76-.26-10.93-1.37-14.36-7.34-3.03-5.27-.79-11.58.96-16.28,11.98-32.24,18.05-48.35,21.7-47.88,3.5.46,5.63,9.77,9.89,28.41,5.43,23.73,3.41,28.68,1.92,31.28-4.71,8.16-14.61,10.84-20.11,11.81Z"/>
    <path class="cls-11" d="M799.96,139.93c-3.05,6.89-4.75,12.88-5.74,17.24-2.35,10.32-4.67,20.47.64,28.09.54.78,4.3,6.17,8.94,5.75,3.92-.36,6.38-4.7,7.34-6.38,7.45-13.11-8.49-40.21-11.17-44.68Z"/>
    <g>
      <path class="cls-11" d="M194.89,162.97c-.91-.1-6.9-.82-11.25-5.78-3.43-3.91-4.91-9.39-3.65-22.81.73-7.76,3.2-34.09,9.43-34.37,3.61-.16,3.83,8.62,14.9,31.94,6.2,13.05,9.72,17.86,7.3,23.12-2.5,5.43-10.1,8.6-16.73,7.91Z"/>
      <path class="cls-27" d="M201.4,184.66c1.89-15.8-.68-32.01-7.34-46.46-.48-1.03-1.29-1.94-2.17-2.65-.24-.19-1.67-1.08-1.22-.09,6.59,14.3,9.08,30.26,7.21,45.9-.1.84,1.25,2.03,1.79,2.54.19.18,1.65,1.48,1.73.77h0Z"/>
    </g>
    <path class="cls-27" d="M69.29,196.42c1.66-8.36,2.68-16.93,2.66-25.46s-2.19-16.7-4.78-24.87c-.45-1.42-5.36-1.65-4.86-.06,1.26,3.97,2.52,7.94,3.41,12.01s1.29,8.44,1.27,12.73c-.03,8.37-1.03,16.78-2.66,24.98-.29,1.45,4.64,2.23,4.96.66h0Z"/>
    <path class="cls-27" d="M614.24,176.57c-2.27,12.31-2.13,24.97.41,37.22.21,1.01,5.1,0,4.89-1.05-2.54-12.26-2.68-24.91-.41-37.22.09-.49-4.63-.36-4.89,1.05h0Z"/>
    <path class="cls-27" d="M715.55,175.67c-.34,7.92.27,15.82.32,23.74s-1.06,16-2.64,23.95c-.25,1.28,4.44.25,4.71-1.14,1.55-7.8,2.64-15.54,2.64-23.51s-.67-16.12-.32-24.18c.06-1.47-4.66-.18-4.71,1.14h0Z"/>
    <path class="cls-27" d="M799.42,171.03c.67,13.99,1.17,28.18-2.04,41.91-.16.69,1.64.06,1.88-.02.58-.2,2.51-.79,2.69-1.55,3.23-13.86,2.77-28.15,2.09-42.26-.02-.33-4.68.67-4.62,1.91h0Z"/>
    <path class="cls-27" d="M315.44,232.17c-.95,10.91-95.3,18.44-98.4,6.77-.11-.41-.22-1.28-.2-2.19.16-7.16,8.2-12.17,9.16-12.75,6.98-4.22,16.96-3.09,25.69,2.39,3.74,1.12,9.04,2.11,11.95-.6,2.73-2.54,1.08-6.19,2.99-11.55,1.98-5.56,7.37-11.83,13.74-12.75,8.51-1.23,18.59,7.11,21.51,15.74,1.43,4.22,1.26,8.83,4.38,10.16,2.72,1.16,5.68-1.14,7.77.6,1.58,1.31,1.42,3.9,1.39,4.18Z"/>
    <path class="cls-16" d="M131.5,214.13c-.95,10.91-95.3,18.44-98.4,6.77-.11-.41-.22-1.28-.2-2.19.16-7.16,8.2-12.17,9.16-12.75,6.98-4.22,16.96-3.09,25.69,2.39,3.74,1.12,9.04,2.11,11.95-.6,2.73-2.54,1.08-6.19,2.99-11.55,1.98-5.56,7.37-11.83,13.74-12.75,8.51-1.23,18.59,7.11,21.51,15.74,1.43,4.22,1.26,8.83,4.38,10.16,2.72,1.16,5.68-1.14,7.77.6,1.58,1.31,1.42,3.9,1.39,4.18Z"/>
    <path class="cls-27" d="M690.51,259.68c.95,10.91,95.3,18.44,98.4,6.77.11-.41.22-1.28.2-2.19-.16-7.16-8.2-12.17-9.16-12.75-6.98-4.22-16.96-3.09-25.69,2.39-3.74,1.12-9.04,2.11-11.95-.6-2.73-2.54-1.08-6.19-2.99-11.55-1.98-5.56-7.37-11.83-13.74-12.75-8.51-1.23-18.59,7.11-21.51,15.74-1.43,4.22-1.26,8.83-4.38,10.16-2.72,1.16-5.68-1.14-7.77.6-1.58,1.31-1.42,3.9-1.39,4.18Z"/>
  </g>
  <g id="Layer_6" data-name="Layer 6">
    <path class="cls-3" d="M185.5,38.15c10.36,0,19.2,5.55,22.72,13.37,2.21-.34,4.51-.53,6.88-.53.88,0,1.75.03,2.61.08,3.5-5.93,10.75-10.02,19.15-10.02,10.59,0,19.35,6.48,21.07,14.98,2.61-2.35,6.06-3.79,9.85-3.79,8.14,0,14.74,6.6,14.74,14.74s-6.6,14.74-14.74,14.74c-.1,0-.19-.01-.29-.01-1.37,5.71-7.64,10.03-15.17,10.03-7.03,0-12.95-3.76-14.83-8.91-5.43,4.09-13.44,6.67-22.4,6.67-11.06,0-20.69-3.95-25.77-9.79-1.25.17-2.52.26-3.82.26-13.45,0-24.35-9.36-24.35-20.91s10.9-20.91,24.35-20.91Z"/>
    <g>
      <ellipse class="cls-13" cx="479.32" cy="285.12" rx="106.05" ry="11.35"/>
      <g>
        <path class="cls-20" d="M537.9,202.21c.73-2.42,1.46-4.84,2.18-7.26,5.65,4.75,11.3,9.5,16.95,14.26-5.59.45-11.17.9-16.76,1.35"/>
        <path class="cls-17" d="M546.95,203.95c.71-2.29,1.41-4.58,2.12-6.87,5.69,5.18,11.39,10.36,17.08,15.54-5.74.19-11.47.39-17.21.58-.66-3.08-1.33-6.16-1.99-9.25Z"/>
        <path class="cls-24" d="M519.34,213.52c-.6-3.25-1.2-6.51-1.8-9.76,4.71-2.74,9.42-5.48,14.13-8.22,1.54,3.34,3.08,6.68,4.62,10.02.36,2.38.73,4.75,1.09,7.13-6.01.28-12.03.56-18.04.83Z"/>
        <ellipse class="cls-7" cx="539.41" cy="208.55" rx="10.11" ry="5.79"/>
        <path class="cls-8" d="M556.97,202.99c1.37-1.2,2.74-2.4,4.11-3.6,2.08,1.61,4.15,3.21,6.23,4.82.3,3.79.6,7.58.9,11.37-4.02-1.58-8.05-3.17-12.07-4.75.28-2.61.56-5.22.83-7.83Z"/>
        <ellipse class="cls-21" cx="583.23" cy="261.76" rx="15.51" ry="27.07" transform="translate(-40.66 122.33) rotate(-11.57)"/>
        <path class="cls-18" d="M522.35,287.68c-1.24-1.2-2.05-2.76-2.25-4.58-1.02-18.87-2.05-37.75-3.07-56.62-.74.02-1.17-.2-1.41-.38-1.19-.88-1.3-3.34,0-6.02-.65-.15-1.92-.54-2.82-1.67-1.42-1.77-1.36-4.64.26-7.05h59.05c.92.47,1.34,1.05,1.54,1.41.96,1.75.15,4.5-2.18,6.66,1.13,2.97.75,5.84-.9,7.17-.35.28-.91.62-1.79.77-.9,18.32-1.79,36.64-2.69,54.96-.37,2.11-1.1,4.12-2.56,4.61-.88.3-1.94.73-2.15.73-2.1,0-13.36,0-39.03,0Z"/>
        <rect class="cls-21" x="517.79" y="220.27" width="51.7" height="4.28" rx="2.14" ry="2.14"/>
        <rect class="cls-21" x="501.74" y="253.35" width="51.7" height="4.28" rx="2.14" ry="2.14" transform="translate(300.93 796.09) rotate(-93.09)"/>
        <rect class="cls-21" x="533.52" y="253.35" width="51.7" height="4.28" rx="2.14" ry="2.14" transform="translate(274.09 800.27) rotate(-86.91)"/>
        <rect class="cls-21" x="522.93" y="253.35" width="51.7" height="4.28" rx="2.14" ry="2.14" transform="translate(274.58 795.16) rotate(-88.03)"/>
        <rect class="cls-21" x="511.82" y="253.37" width="51.7" height="4.28" rx="2.14" ry="2.14" transform="translate(300.78 801.64) rotate(-91.97)"/>
        <ellipse class="cls-18" cx="585.66" cy="261.4" rx="13.05" ry="25.9" transform="translate(-40.54 122.81) rotate(-11.57)"/>
        <ellipse class="cls-21" cx="593.47" cy="258.67" rx="2.69" ry="3.82"/>
      </g>
      <path class="cls-15" d="M537.54,179.29c.6,3.87,1.19,7.74,1.79,11.6,2.39-1.45,4.78-2.89,7.17-4.34-.28-3.8-.57-7.61-.85-11.41-2.7,1.38-5.41,2.77-8.11,4.15Z"/>
      <path class="cls-23" d="M512.92,179.95c2.67,3.99,5.35,7.99,8.02,11.98,2.23-2.42,4.47-4.84,6.7-7.26-2.42-4.43-4.84-8.87-7.26-13.3-2.48,2.86-4.97,5.72-7.45,8.58Z"/>
      <path class="cls-20" d="M525.28,157.5v3.4c.75,1.01,1.51,2.01,2.26,3.02.75-1.04,1.51-2.08,2.26-3.11-1.51-1.1-3.02-2.2-4.53-3.3Z"/>
      <path class="cls-27" d="M480.17,157.45c-2.15-2.58-4.31-5.16-6.46-7.75-2.83-3.4-5.64-6.79-8.44-10.19-.3-.39-.61-.79-.91-1.18.71-.62,1.42-1.24,2.13-1.86,1.32,1.47,2.64,2.94,3.95,4.41,1.77-1.77,3.55-3.55,5.32-5.32-4.64-5.6-9.27-11.2-13.91-16.8,9.5-8.39,19-16.77,28.5-25.16,12.54,14.75,25.08,29.49,37.63,44.24-9.48,8.61-18.95,17.23-28.43,25.84-5.07-5.93-10.14-11.86-15.2-17.79-1.7,1.8-3.4,3.6-5.09,5.4.99,1.42,1.98,2.84,2.96,4.26l-2.05,1.9Z"/>
      <path class="cls-9" d="M465.57,117.96c8.18-7.19,16.35-14.38,24.53-21.57,11.45,13.42,22.89,26.84,34.34,40.26-8.18,7.5-16.35,15-24.53,22.5-11.45-13.73-22.89-27.46-34.34-41.19Z"/>
      <path class="cls-10" d="M492.05,127.77c-1.38,1.32-2.75,2.65-4.13,3.97,1.27,1.51,2.54,3.01,3.82,4.52,1.19-1.38,2.39-2.75,3.58-4.13-1.09-1.45-2.18-2.91-3.27-4.36Z"/>
      <path class="cls-10" d="M496.02,138.36l-3.82,3.97c2.15,2.83,4.31,5.66,6.46,8.49,1.45-1.82,2.91-3.63,4.36-5.45-2.34-2.34-4.67-4.67-7.01-7.01Z"/>
      <path class="cls-10" d="M507.54,140.15c.08,1.17.16,2.34.23,3.5,1.01-.34,2.02-.67,3.04-1.01-.13-.78-.26-1.56-.39-2.34-.96-.05-1.92-.1-2.88-.16Z"/>
      <path class="cls-12" d="M506.61,150.28c1.17,2.26,2.34,4.52,3.5,6.77,1.4-1.69,2.8-3.37,4.2-5.06-1.45-1.61-2.91-3.22-4.36-4.83-1.12,1.04-2.23,2.08-3.35,3.11Z"/>
      <path class="cls-27" d="M428.24,111.48c-1.04.19-2.72.65-4.29,1.93-.42.34-2.24,1.89-3.36,5.79-1.28,4.47.25,5.43-.79,11.57-.51,3.05-1.22,4.75-2.29,6.22-1.34,1.83-3.11,2.14-3,2.86.19,1.18,4.84,1.38,7,1.43,1.65.03,17.32.36,18.15-3.86.19-.95-.56-1.24-1.14-3.43-.66-2.46-.18-4.09,0-6.5.07-.88.4-5.34-.5-8.14-.47-1.46-2.15-5.22-9.79-7.86Z"/>
      <path class="cls-25" d="M425.16,140.63c-.42-.9,1.37-1.73,2-4.57.37-1.67-.01-2.42-.43-5.64-.53-4.07-.79-6.1-.21-7.86.79-2.41,3.06-5.51,5.64-5.29,2.44.21,3.8,3.25,4.07,3.86,1.1,2.46.96,5.66-.64,7.72-1.14,1.47-2.05,1.09-2.86,2.57-.97,1.78-.79,4.37.5,5.93,1.14,1.38,2.56,1.24,2.57,1.79.02,1.42-9.72,3.5-10.64,1.5Z"/>
      <path class="cls-25" d="M465.45,148.82c3.04-1.48,4.54-3.18,5.35-4.45,1.47-2.3,3-4.36,3.65-5.34.07-.1.76-.17,1.04.12.67.68-1.31,3.07-1.11,3.2.15.09,1.53-1,2.61-2.79.99-1.64,1.16-2.96,1.96-3.02.32-.03.68.15.85.42.73,1.15-2.32,3.97-2.73,4.36-.8.74-1.38,1.12-1.31,1.22.1.14,1.55-.31,2.67-1.3,1.62-1.43,1.66-3.21,2.41-3.2.33,0,.68.36.78.71.5,1.8-5.32,4.28-5.09,4.68.15.24,2.6-.19,4.17-1.84.94-.99,1.26-2.09,1.56-2.02.25.06.39.89.13,1.6-.78,2.14-4.92,2.43-4.83,2.91.05.26,1.42.54,2.48.06.68-.3,1.03-.83,1.5-.71.26.07.52.32.52.53,0,.84-4.05.93-7.3,2.25-1.86.75-4.32,2.26-6.59,5.57"/>
      <path class="cls-6" d="M408.08,270.25c-2.56,2.52-5.12,5.04-7.68,7.57,4.48,4.97,8.96,9.94,13.44,14.91.26-1.28.53-2.56.79-3.84-1.36-3.46-2.71-6.93-4.07-10.39.9-1.51,1.81-3.01,2.71-4.52-.24-.51-.62-1.17-1.24-1.81-1.46-1.49-3.26-1.83-3.95-1.92Z"/>
      <path class="cls-6" d="M478.84,269.35c.15,3.59.31,7.18.46,10.77,6.69.01,13.38.02,20.07.03-.77-1.05-1.55-2.11-2.32-3.16-3.48-1.32-6.96-2.64-10.43-3.95-.51-1.68-1.02-3.36-1.53-5.04-.54-.17-1.29-.33-2.17-.29-2.09.09-3.54,1.19-4.08,1.64Z"/>
      <path class="cls-29" d="M450.4,196.08c.05,10.9.09,21.81.14,32.71-.7,3.57-1.39,7.15-2.09,10.72-1.44,2.51-2.88,5.01-4.31,7.52-9.51,11.46-19.02,22.92-28.53,34.38-3.99-3.53-7.98-7.05-11.97-10.58,9.56-11,19.12-21.99,28.67-32.99h0c-.51-2.38-1.34-6.08-2.51-10.58-1.94-7.47-3.01-10.17-4.73-17.12-1.46-5.87-2.19-8.8-2.51-11.69-.79-7.13-1.63-14.81,2.37-19.77,4.47-5.54,14.17-6.64,23.94-3.62.83,1.76,2.11,4.53,3.62,7.93,6.91,15.57,11.11,27.55,12.25,30.76,3.45,9.69,10.09,26.23,24.08,56.23-4.41,1.44-8.82,2.88-13.22,4.31-8.35-15.17-16.7-30.34-25.05-45.52"/>
      <path class="cls-14" d="M449.2,171.76c.42.85.95,2.19,1.15,3.92.14,1.31.04,2.35,0,2.56-.45,2.49-12.68,3.53-28.93,2.96-.54-2.32-.74-4.23-.82-5.52-.31-5,.73-6.84,0-11.25-.06-.34-.05-.27-1.33-4.8-2.28-8.11-2.43-8.8-2.56-9.81-.45-3.57-.92-7.21,1.33-9.4,1.68-1.64,4.21-1.82,4.5-1.84,1.45-.09,1.87.34,3.99.72,1.51.27,3.85.68,6.03.1,2.85-.75,2.75-2.46,5.62-3.68,2.08-.88,2.76-.25,7.36-.41,2.21-.08,1.63-.21,9.71-1.23,6.18-.78,6.87-.75,8.28-1.43,3.08-1.49,4.44-3.29,5.48-5.23,2.01,1.84,3.58,4.46,5.4,6.52-1.95,2.19-3.51,2.89-6.99,5.16-8.38,5.45-16.81,6.39-21.26,6.54,1.02,8.71,2.03,17.43,3.05,26.14Z"/>
      <path class="cls-28" d="M422.54,154.82c6.75,6.1,13.49,12.2,20.24,18.3.71.12,1.8.23,3.07,0,3.9-.7,6.29-3.98,7.16-5.11,2.46-3.2,7.17-7.78,16.66-14.72-1.81-2.32-3.61-4.63-5.42-6.95-6.61,5.45-13.22,10.9-19.83,16.36-3.03-2.79-6.07-5.59-9.1-8.38"/>
    </g>
    <g>
      <rect class="cls-30" x="266.15" y="57.11" width="121.79" height="72.98" rx="12" ry="12"/>
      <rect class="cls-27" x="306.23" y="99.02" width="41.63" height="15.07" rx="7.54" ry="7.54"/>
      <g>
        <path class="cls-19" d="M289.71,82.27c.74-.11,1.62-.2,2.59-.2,1.75,0,3,.41,3.82,1.18.84.77,1.33,1.86,1.33,3.39s-.48,2.8-1.36,3.67c-.88.88-2.34,1.36-4.17,1.36-.87,0-1.6-.04-2.21-.11v-9.29ZM290.93,90.62c.31.06.76.07,1.23.07,2.61,0,4.02-1.46,4.02-4.01.01-2.23-1.25-3.64-3.82-3.64-.63,0-1.11.06-1.43.13v7.45Z"/>
        <path class="cls-19" d="M302.75,91.58l-.1-.85h-.04c-.38.53-1.11,1.01-2.07,1.01-1.37,0-2.07-.97-2.07-1.95,0-1.64,1.46-2.54,4.08-2.52v-.14c0-.56-.15-1.57-1.54-1.57-.63,0-1.29.2-1.76.5l-.28-.81c.56-.36,1.37-.6,2.23-.6,2.07,0,2.58,1.42,2.58,2.77v2.54c0,.59.03,1.16.11,1.62h-1.12ZM302.57,88.12c-1.34-.03-2.87.21-2.87,1.53,0,.8.53,1.18,1.16,1.18.88,0,1.44-.56,1.64-1.13.04-.13.07-.27.07-.39v-1.18Z"/>
        <path class="cls-19" d="M307.17,82.86v1.95h1.76v.94h-1.76v3.66c0,.84.24,1.32.92,1.32.32,0,.56-.04.71-.08l.06.92c-.24.1-.62.17-1.09.17-.57,0-1.04-.18-1.33-.52-.35-.36-.48-.97-.48-1.76v-3.7h-1.05v-.94h1.05v-1.62l1.21-.32Z"/>
        <path class="cls-19" d="M314.07,91.58l-.1-.85h-.04c-.38.53-1.11,1.01-2.07,1.01-1.37,0-2.07-.97-2.07-1.95,0-1.64,1.46-2.54,4.08-2.52v-.14c0-.56-.15-1.57-1.54-1.57-.63,0-1.29.2-1.76.5l-.28-.81c.56-.36,1.37-.6,2.23-.6,2.07,0,2.58,1.42,2.58,2.77v2.54c0,.59.03,1.16.11,1.62h-1.12ZM313.89,88.12c-1.34-.03-2.87.21-2.87,1.53,0,.8.53,1.18,1.16,1.18.88,0,1.44-.56,1.64-1.13.04-.13.07-.27.07-.39v-1.18Z"/>
        <path class="cls-19" d="M325.89,81.64v8.19c0,.6.01,1.29.06,1.75h-1.11l-.06-1.18h-.03c-.38.76-1.21,1.33-2.31,1.33-1.64,0-2.9-1.39-2.9-3.45-.01-2.25,1.39-3.64,3.04-3.64,1.04,0,1.74.49,2.04,1.04h.03v-4.05h1.23ZM324.66,87.56c0-.15-.01-.36-.06-.52-.18-.78-.85-1.43-1.78-1.43-1.27,0-2.03,1.12-2.03,2.62,0,1.37.67,2.51,2,2.51.83,0,1.58-.55,1.81-1.47.04-.17.06-.34.06-.53v-1.18Z"/>
        <path class="cls-19" d="M328.62,88.42c.03,1.67,1.09,2.35,2.33,2.35.88,0,1.42-.15,1.88-.35l.21.88c-.43.2-1.18.42-2.25.42-2.09,0-3.33-1.37-3.33-3.42s1.21-3.66,3.18-3.66c2.21,0,2.8,1.95,2.8,3.19,0,.25-.03.45-.04.58h-4.76ZM332.23,87.53c.01-.78-.32-2-1.71-2-1.25,0-1.79,1.15-1.89,2h3.6Z"/>
        <path class="cls-19" d="M334.95,81.64h1.23v9.95h-1.23v-9.95Z"/>
        <path class="cls-19" d="M338.94,88.42c.03,1.67,1.09,2.35,2.33,2.35.88,0,1.42-.15,1.88-.35l.21.88c-.43.2-1.18.42-2.25.42-2.09,0-3.33-1.37-3.33-3.42s1.21-3.66,3.18-3.66c2.21,0,2.8,1.95,2.8,3.19,0,.25-.03.45-.04.58h-4.76ZM342.55,87.53c.01-.78-.32-2-1.71-2-1.25,0-1.79,1.15-1.89,2h3.6Z"/>
        <path class="cls-19" d="M346.75,82.86v1.95h1.76v.94h-1.76v3.66c0,.84.24,1.32.92,1.32.32,0,.56-.04.71-.08l.06.92c-.24.1-.62.17-1.09.17-.57,0-1.04-.18-1.33-.52-.35-.36-.48-.97-.48-1.76v-3.7h-1.05v-.94h1.05v-1.62l1.21-.32Z"/>
        <path class="cls-19" d="M350.5,88.42c.03,1.67,1.09,2.35,2.33,2.35.88,0,1.42-.15,1.88-.35l.21.88c-.43.2-1.18.42-2.25.42-2.09,0-3.33-1.37-3.33-3.42s1.21-3.66,3.18-3.66c2.21,0,2.8,1.95,2.8,3.19,0,.25-.03.45-.04.58h-4.76ZM354.11,87.53c.01-.78-.32-2-1.71-2-1.25,0-1.79,1.15-1.89,2h3.6Z"/>
        <path class="cls-19" d="M362.68,81.64v8.19c0,.6.01,1.29.06,1.75h-1.11l-.06-1.18h-.03c-.38.76-1.21,1.33-2.31,1.33-1.64,0-2.9-1.39-2.9-3.45-.01-2.25,1.39-3.64,3.04-3.64,1.04,0,1.74.49,2.04,1.04h.03v-4.05h1.23ZM361.45,87.56c0-.15-.01-.36-.06-.52-.18-.78-.85-1.43-1.78-1.43-1.28,0-2.03,1.12-2.03,2.62,0,1.37.67,2.51,2,2.51.83,0,1.58-.55,1.81-1.47.04-.17.06-.34.06-.53v-1.18Z"/>
      </g>
      <g>
        <path class="cls-26" d="M327.18,106.74c0,1.85-1.13,2.84-2.5,2.84s-2.42-1.1-2.42-2.73c0-1.71,1.06-2.83,2.5-2.83s2.42,1.13,2.42,2.73ZM323,106.82c0,1.15.62,2.18,1.72,2.18s1.73-1.02,1.73-2.24c0-1.07-.56-2.19-1.72-2.19s-1.73,1.06-1.73,2.25Z"/>
        <path class="cls-26" d="M328.08,104.1h.7v2.6h.02c.14-.21.29-.4.42-.58l1.65-2.02h.86l-1.95,2.29,2.1,3.1h-.82l-1.77-2.65-.51.59v2.05h-.7v-5.39Z"/>
      </g>
    </g>
    <path class="cls-1" d="M726.83,64.94c-10.36,0-19.2,5.55-22.72,13.37-2.21-.34-4.51-.53-6.88-.53-.88,0-1.75.03-2.61.08-3.5-5.93-10.75-10.02-19.15-10.02-10.59,0-19.35,6.48-21.07,14.98-2.61-2.35-6.06-3.79-9.85-3.79-8.14,0-14.74,6.6-14.74,14.74s6.6,14.74,14.74,14.74c.1,0,.19-.01.29-.01,1.37,5.71,7.64,10.03,15.17,10.03,7.03,0,12.95-3.76,14.83-8.91,5.43,4.09,13.44,6.67,22.4,6.67,11.06,0,20.69-3.95,25.77-9.79,1.25.17,2.52.26,3.82.26,13.45,0,24.35-9.36,24.35-20.91s-10.9-20.91-24.35-20.91Z"/>
    <path class="cls-4" d="M579.21,25.41c0-9.52-13.8-17.24-30.83-17.24-3.7,0-7.24.36-10.52,1.03-3.67-5.46-11.23-9.2-19.97-9.2-12.34,0-22.34,7.47-22.34,16.68s10,16.68,22.34,16.68c1.02,0,2.02-.06,3-.15,1.3,1.43,2.95,2.75,4.88,3.92,1.72,8.08,8.86,14.14,17.42,14.14,6.88,0,12.84-3.92,15.81-9.66,11.8-2.42,20.21-8.76,20.21-16.19Z"/>
  </g>
</svg>