<svg width="165" height="148" viewBox="0 0 165 148" fill="none" xmlns="http://www.w3.org/2000/svg">
<g clip-path="url(#clip0_281_2914)">
<path d="M120.089 79.2391C120.622 77.4769 121.149 75.709 121.682 73.9468C125.806 77.4151 129.925 80.8779 134.049 84.3462C129.975 84.6717 125.896 85.0029 121.823 85.3284" fill="#AE3A35"/>
<path d="M126.687 80.502C127.204 78.8295 127.72 77.1627 128.23 75.4902C132.383 79.2673 136.535 83.0499 140.687 86.8269C136.501 86.9672 132.321 87.1075 128.135 87.2479C127.652 84.9974 127.164 82.7525 126.682 80.502H126.687Z" fill="#B95551"/>
<path d="M106.549 87.4837C106.112 85.1097 105.674 82.7357 105.236 80.3618C108.67 78.3638 112.104 76.3659 115.538 74.3623C116.66 76.798 117.788 79.2337 118.91 81.6694C119.174 83.4036 119.444 85.1378 119.707 86.872C115.319 87.074 110.931 87.276 106.544 87.4837H106.549Z" fill="#D49694"/>
<path d="M121.183 88.0897C125.258 88.0897 128.562 86.1977 128.562 83.8637C128.562 81.5297 125.258 79.6377 121.183 79.6377C117.108 79.6377 113.804 81.5297 113.804 83.8637C113.804 86.1977 117.108 88.0897 121.183 88.0897Z" fill="#F4E4E3"/>
<path d="M133.999 79.8001C134.997 78.9246 135.996 78.0491 136.995 77.1792C138.51 78.3522 140.025 79.5195 141.54 80.6924C141.759 83.4593 141.978 86.2205 142.197 88.9873C139.262 87.8312 136.327 86.6751 133.393 85.519C133.595 83.6164 133.797 81.7083 134.004 79.8057L133.999 79.8001Z" fill="#E0B4B2"/>
<path d="M157.107 142.034C163.227 140.781 166.416 131.102 164.229 120.417C162.042 109.731 155.307 102.084 149.187 103.338C143.066 104.591 139.877 114.269 142.065 124.955C144.252 135.641 150.987 143.287 157.107 142.034Z" fill="#A37A77"/>
<path d="M108.743 141.585C107.84 140.715 107.245 139.571 107.099 138.246L104.855 96.9401C104.316 96.9514 104.002 96.7886 103.828 96.6595C102.958 96.0141 102.88 94.2182 103.828 92.2651C103.351 92.1585 102.431 91.8723 101.774 91.0529C100.736 89.7621 100.781 87.6687 101.959 85.9121H145.036C145.703 86.2545 146.012 86.6754 146.158 86.9391C146.859 88.2131 146.27 90.2167 144.57 91.7993C145.389 93.9657 145.12 96.0646 143.913 97.0355C143.661 97.2376 143.246 97.4901 142.606 97.5968C141.95 110.959 141.299 124.328 140.642 137.691C140.367 139.228 139.845 140.693 138.774 141.052C138.128 141.271 137.36 141.58 137.208 141.58C135.676 141.58 127.462 141.58 108.737 141.58L108.743 141.585Z" fill="#DCA49F"/>
<path d="M141.568 92.4111H106.981C106.12 92.4111 105.421 93.1097 105.421 93.9713V93.9769C105.421 94.8386 106.12 95.5371 106.981 95.5371H141.568C142.43 95.5371 143.128 94.8386 143.128 93.9769V93.9713C143.128 93.1097 142.43 92.4111 141.568 92.4111Z" fill="#A37A77"/>
<path d="M110.085 100.921L111.95 135.464C111.996 136.324 112.731 136.984 113.592 136.938L113.597 136.938C114.457 136.891 115.117 136.156 115.071 135.296L113.206 100.752C113.16 99.8917 112.425 99.2318 111.565 99.2782L111.559 99.2785C110.699 99.325 110.039 100.06 110.085 100.921Z" fill="#A37A77"/>
<path d="M135.121 100.745L133.257 135.289C133.21 136.149 133.87 136.884 134.73 136.931L134.736 136.931C135.596 136.978 136.331 136.318 136.378 135.457L138.242 100.914C138.288 100.053 137.629 99.3182 136.769 99.2718L136.763 99.2715C135.903 99.225 135.168 99.8849 135.121 100.745Z" fill="#A37A77"/>
<path d="M127.058 100.763L125.869 135.336C125.839 136.197 126.513 136.92 127.374 136.949L127.38 136.949C128.241 136.979 128.963 136.305 128.992 135.444L130.181 100.87C130.211 100.009 129.537 99.2871 128.676 99.2575L128.67 99.2573C127.809 99.2276 127.087 99.9017 127.058 100.763Z" fill="#A37A77"/>
<path d="M117.761 100.888L118.95 135.462C118.979 136.323 119.701 136.997 120.562 136.967L120.568 136.967C121.429 136.938 122.103 136.215 122.073 135.354L120.884 100.781C120.855 99.9198 120.133 99.2457 119.272 99.2753L119.266 99.2755C118.405 99.3051 117.731 100.027 117.761 100.888Z" fill="#A37A77"/>
<path d="M158.711 140.943C163.863 139.888 166.343 130.745 164.25 120.521C162.158 110.297 156.285 102.863 151.133 103.918C145.981 104.973 143.501 114.117 145.593 124.341C147.686 134.565 153.559 141.998 158.711 140.943Z" fill="#DCA49F"/>
<path d="M160.618 123.217C161.699 123.217 162.576 121.968 162.576 120.427C162.576 118.887 161.699 117.638 160.618 117.638C159.536 117.638 158.659 118.887 158.659 120.427C158.659 121.968 159.536 123.217 160.618 123.217Z" fill="#A37A77"/>
<path d="M77.3546 148.006C120.076 148.006 154.709 144.297 154.709 139.722C154.709 135.147 120.076 131.438 77.3546 131.438C34.6328 131.438 0 135.147 0 139.722C0 144.297 34.6328 148.006 77.3546 148.006Z" fill="#D39592"/>
<path d="M119.825 62.5145C120.263 65.3374 120.695 68.1604 121.132 70.9777C122.878 69.9226 124.617 68.8675 126.362 67.8124C126.154 65.0344 125.947 62.2619 125.745 59.4839C123.77 60.4941 121.8 61.5043 119.825 62.5145Z" fill="#C4716D"/>
<path d="M101.864 62.9918C103.811 65.9045 105.764 68.8172 107.711 71.73C109.338 69.9621 110.965 68.1999 112.598 66.4321C110.83 63.1994 109.069 59.9612 107.301 56.7285C105.489 58.8163 103.676 60.904 101.864 62.9918Z" fill="#B8534E"/>
<path d="M110.881 46.615V49.09C111.431 49.8252 111.981 50.5604 112.531 51.29C113.081 50.5323 113.63 49.7747 114.18 49.017L110.875 46.6094L110.881 46.615Z" fill="#AE3A35"/>
<path d="M77.9775 46.5812C76.4064 44.7011 74.8352 42.8154 73.2641 40.9241C71.2049 38.4435 69.1512 35.9685 67.1088 33.4935C66.8843 33.2073 66.6655 32.9211 66.441 32.6348C66.9573 32.1803 67.4735 31.7313 67.9953 31.2767C68.9548 32.3486 69.9199 33.4206 70.8794 34.4925C72.1756 33.1961 73.4661 31.9053 74.7623 30.6088C71.3788 26.5231 67.9953 22.4374 64.6174 18.3517C71.5471 12.2344 78.4768 6.11708 85.4066 -0.00585938C94.5526 10.7528 103.704 21.5114 112.85 32.27C105.938 38.5557 99.0247 44.8414 92.1118 51.1271C88.4141 46.8001 84.722 42.4787 81.0243 38.1517C79.7842 39.4649 78.5498 40.7782 77.3097 42.0914C78.028 43.1241 78.7518 44.1624 79.47 45.195L77.9719 46.5812H77.9775Z" fill="#A92D27"/>
<path d="M67.3276 17.7738C73.2922 12.5264 79.2568 7.28454 85.2214 2.03711C93.5708 11.8248 101.92 21.6182 110.269 31.4059C104.305 36.8778 98.3402 42.3497 92.3756 47.8216C84.0263 37.8038 75.677 27.786 67.3276 17.7682V17.7738Z" fill="#FCDBD9"/>
<path d="M86.641 24.9297C85.6366 25.895 84.6322 26.8603 83.6334 27.8256C84.5593 28.9256 85.4907 30.02 86.4165 31.12C87.2862 30.1154 88.156 29.1108 89.0313 28.1118C88.2345 27.0511 87.4434 25.9904 86.6466 24.9297H86.641Z" fill="#FEF6F6"/>
<path d="M89.5363 32.6575C88.6105 33.6228 87.679 34.5881 86.7532 35.5534C88.3243 37.6187 89.8954 39.684 91.4665 41.7437C92.527 40.4192 93.5875 39.0947 94.648 37.7646C92.9422 36.0585 91.2421 34.358 89.5363 32.6519V32.6575Z" fill="#FEF6F6"/>
<path d="M97.9418 33.9595C97.9979 34.8125 98.054 35.6656 98.1101 36.5186C98.8508 36.2717 99.5858 36.0248 100.326 35.7778C100.231 35.211 100.136 34.6442 100.04 34.0717C99.3389 34.0324 98.6375 33.9988 97.9362 33.9595H97.9418Z" fill="#FEF6F6"/>
<path d="M97.2628 41.3452L99.8159 46.2896C100.837 45.0605 101.858 43.8258 102.885 42.5967C101.825 41.4238 100.764 40.2508 99.7036 39.0723C98.89 39.8299 98.0764 40.5876 97.2628 41.3452Z" fill="#E6C2C0"/>
<path d="M40.0969 13.0486C39.3394 13.1889 38.1105 13.5256 36.9715 14.4572C36.6629 14.7098 35.3387 15.8379 34.5251 18.6776C33.588 21.9383 34.7046 22.6343 33.9527 27.1184C33.5768 29.3465 33.0662 30.5868 32.2862 31.6531C31.3099 32.9888 30.0137 33.2189 30.0979 33.7352C30.2326 34.5939 33.6273 34.7454 35.204 34.7791C36.4048 34.8016 47.8346 35.0373 48.4406 31.9674C48.5752 31.2715 48.031 31.0638 47.6045 29.4643C47.1276 27.6684 47.4755 26.4842 47.6045 24.722C47.655 24.0766 47.8963 20.8271 47.2398 18.7787C46.8975 17.7123 45.6743 14.9736 40.1025 13.043L40.0969 13.0486Z" fill="#A92D27"/>
<path d="M37.8581 34.3075C37.5551 33.6509 38.8513 33.0448 39.317 30.9739C39.592 29.756 39.3058 29.206 39.0028 26.8545C38.6212 23.8856 38.4305 22.404 38.8457 21.1188C39.418 19.3566 41.0789 17.1005 42.9642 17.2632C44.7429 17.4147 45.7361 19.6316 45.9325 20.0749C46.7349 21.8708 46.6283 24.2055 45.4612 25.704C44.6307 26.7703 43.9686 26.5009 43.3795 27.5785C42.6725 28.8749 42.8015 30.7662 43.7442 31.9055C44.5746 32.9101 45.6127 32.8147 45.6183 33.2075C45.6351 34.2458 38.5315 35.7611 37.8525 34.3019L37.8581 34.3075Z" fill="#F9BCBA"/>
<path d="M67.2378 40.2789C69.4542 39.2013 70.5483 37.961 71.1375 37.035C72.2092 35.357 73.3258 33.8529 73.8028 33.1401C73.8533 33.0672 74.3583 33.0167 74.5659 33.2243C75.0597 33.7182 73.6064 35.4692 73.7579 35.559C73.8645 35.6264 74.8745 34.8294 75.6601 33.5274C76.3839 32.3264 76.5073 31.3667 77.0853 31.3218C77.3209 31.3049 77.5847 31.434 77.7025 31.6248C78.2355 32.4667 76.0135 34.5264 75.7105 34.8014C75.127 35.3401 74.7006 35.6208 74.7567 35.6881C74.8296 35.7891 75.8901 35.4636 76.7093 34.734C77.8877 33.6901 77.9157 32.3881 78.4712 32.3993C78.7125 32.3993 78.9706 32.6631 79.0435 32.9157C79.4083 34.2289 75.1607 36.0417 75.3346 36.3335C75.4412 36.5131 77.2312 36.1932 78.3758 34.9922C79.0604 34.2738 79.296 33.4657 79.5149 33.5218C79.7 33.5667 79.801 34.1728 79.6103 34.6891C79.0379 36.2493 76.0192 36.4626 76.0921 36.8105C76.1314 37.0014 77.1302 37.2034 77.8989 36.8554C78.3927 36.631 78.6508 36.2493 78.993 36.3391C79.1838 36.384 79.3746 36.5748 79.3746 36.7264C79.3746 37.3381 76.4232 37.4054 74.0497 38.3707C72.6918 38.9207 70.9018 40.0151 69.2466 42.4396" fill="#F9BCBA"/>
<path d="M25.3958 128.874C23.5273 130.714 21.6588 132.555 19.7959 134.396C23.0616 138.021 26.3328 141.647 29.5985 145.272C29.7893 144.341 29.9857 143.404 30.1764 142.472C29.1889 139.946 28.2013 137.421 27.2082 134.89C27.8647 133.79 28.5268 132.695 29.1833 131.595C29.0093 131.219 28.7288 130.742 28.2799 130.277C27.2138 129.188 25.9064 128.941 25.3958 128.874Z" fill="#F58985"/>
<path d="M77.0123 128.217C77.1246 130.838 77.2368 133.453 77.349 136.074C82.2307 136.08 87.1067 136.091 91.9884 136.097C91.4272 135.328 90.8605 134.559 90.2994 133.79C87.7632 132.83 85.227 131.865 82.6908 130.905C82.3204 129.682 81.9445 128.453 81.5742 127.229C81.1814 127.106 80.6371 126.994 79.9862 127.016C78.4656 127.078 77.4051 127.886 77.0123 128.217Z" fill="#F58985"/>
<path d="M56.2681 74.7658C56.3017 82.7183 56.3354 90.6765 56.3691 98.629C55.8641 101.233 55.3535 103.843 54.8485 106.447C53.7992 108.276 52.7499 110.1 51.7006 111.93C44.7653 120.292 37.8244 128.649 30.8891 137.011C27.9769 134.441 25.0704 131.865 22.1582 129.294C29.1272 121.274 36.1018 113.249 43.0708 105.229C42.7004 103.489 42.0944 100.795 41.2416 97.5122C39.8276 92.0627 39.0476 90.0928 37.7907 85.0194C36.7302 80.7372 36.1972 78.599 35.9615 76.4888C35.3892 71.2862 34.772 65.6852 37.6897 62.071C40.9498 58.0302 48.0198 57.2276 55.1515 59.4332C55.7519 60.7184 56.6889 62.7388 57.7887 65.2194C62.8331 76.5786 65.8911 85.3224 66.7216 87.6627C69.2409 94.7285 74.0777 106.8 84.2843 128.688C81.0691 129.738 77.854 130.787 74.6388 131.837C68.5452 120.769 62.4571 109.702 56.3635 98.629" fill="#F9BCBA"/>
<path d="M56.2681 74.7658C56.3017 82.7183 56.3354 90.6765 56.3691 98.629C55.8641 101.233 55.3535 103.843 54.8485 106.447C53.7992 108.276 52.7499 110.1 51.7006 111.93C44.7653 120.292 37.8244 128.649 30.8891 137.011C27.9769 134.441 25.0704 131.865 22.1582 129.294C29.1272 121.274 36.1018 113.249 43.0708 105.229C42.7004 103.489 42.0944 100.795 41.2416 97.5122C39.8276 92.0627 39.0476 90.0928 37.7907 85.0194C36.7302 80.7372 36.1972 78.599 35.9615 76.4888C35.3892 71.2862 34.772 65.6852 37.6897 62.071C40.9498 58.0302 48.0198 57.2276 55.1515 59.4332C55.7519 60.7184 56.6889 62.7388 57.7887 65.2194C62.8331 76.5786 65.8911 85.3224 66.7216 87.6627C69.2409 94.7285 74.0777 106.8 84.2843 128.688C81.0691 129.738 77.854 130.787 74.6388 131.837C68.5452 120.769 62.4571 109.702 56.3635 98.629" stroke="#F8B5B2" stroke-width="3" stroke-miterlimit="10"/>
<path d="M55.3872 57.02C55.6902 57.6373 56.0829 58.6195 56.2232 59.8766C56.3298 60.8307 56.2513 61.594 56.2232 61.7399C55.8978 63.5526 46.9705 64.3159 35.1199 63.9006C34.7271 62.2113 34.5812 60.8139 34.5251 59.871C34.3007 56.2231 35.0581 54.8761 34.5251 51.6659C34.4858 51.419 34.4858 51.4695 33.5544 48.1583C31.8879 42.243 31.7869 41.7379 31.6915 40.9971C31.3604 38.393 31.0238 35.7328 32.6622 34.1333C33.8854 32.9379 35.7315 32.8032 35.9447 32.792C37.0052 32.7247 37.3026 33.0446 38.8513 33.314C39.9566 33.5104 41.6568 33.8078 43.2504 33.3869C45.3321 32.8425 45.2535 31.591 47.3521 30.7043C48.8671 30.0645 49.3608 30.5247 52.7219 30.4068C54.3323 30.3507 53.9114 30.2553 59.8031 29.5145C64.3088 28.9476 64.8138 28.9701 65.8406 28.4706C68.0851 27.3875 69.0782 26.0686 69.8357 24.6543C71.3002 25.9956 72.4449 27.9038 73.7747 29.4079C72.3551 31.0017 71.2161 31.518 68.6799 33.168C62.5638 37.1415 56.414 37.8318 53.1708 37.9384C53.9114 44.2971 54.6521 50.6501 55.3928 57.0088L55.3872 57.02Z" fill="#F69B97"/>
<path d="M35.9447 44.662C40.8656 49.1125 45.7866 53.563 50.7075 58.0135C51.2293 58.1032 52.0205 58.1762 52.9463 58.0135C55.7968 57.5027 57.5306 55.1063 58.1647 54.2869C59.9602 51.9522 63.3942 48.6074 70.3183 43.5451C68.9997 41.8558 67.6811 40.1666 66.3681 38.4717C61.5482 42.4507 56.7226 46.4242 51.9027 50.4033C49.6919 48.366 47.4811 46.3288 45.2647 44.2859" fill="#F69B97"/>
<path d="M35.9447 44.662C40.8656 49.1125 45.7866 53.563 50.7075 58.0135C51.2293 58.1032 52.0205 58.1762 52.9463 58.0135C55.7968 57.5027 57.5306 55.1063 58.1647 54.2869C59.9602 51.9522 63.3942 48.6074 70.3183 43.5451C68.9997 41.8558 67.6811 40.1666 66.3681 38.4717C61.5482 42.4507 56.7226 46.4242 51.9027 50.4033C49.6919 48.366 47.4811 46.3288 45.2647 44.2859" stroke="#F58B87" stroke-width="2" stroke-miterlimit="10"/>
</g>
<defs>
<clipPath id="clip0_281_2914">
<rect width="165" height="148" fill="white"/>
</clipPath>
</defs>
</svg>
