<svg width="31" height="32" viewBox="0 0 31 32" fill="none" xmlns="http://www.w3.org/2000/svg">
<path fill-rule="evenodd" clip-rule="evenodd" d="M9.3125 10.933C8.86495 10.933 8.43572 10.7552 8.11926 10.4387C7.80279 10.1223 7.625 9.69304 7.625 9.24549V7.56474C6.72989 7.56474 5.87145 7.92032 5.23851 8.55326C4.60558 9.18619 4.25 10.0446 4.25 10.9397V13.1897H26.75V10.9397C26.75 10.0446 26.3944 9.18619 25.7615 8.55326C25.1286 7.92032 24.2701 7.56474 23.375 7.56474V9.25224C23.375 9.69979 23.1972 10.129 22.8807 10.4455C22.5643 10.762 22.1351 10.9397 21.6875 10.9397C21.2399 10.9397 20.8107 10.762 20.4943 10.4455C20.1778 10.129 20 9.69979 20 9.25224V7.56474H11V9.24549C11 9.69304 10.8222 10.1223 10.5057 10.4387C10.1893 10.7552 9.76005 10.933 9.3125 10.933ZM20 4.18974H11V2.49774C11 2.05019 10.8222 1.62097 10.5057 1.3045C10.1893 0.988031 9.76005 0.810242 9.3125 0.810242C8.86495 0.810242 8.43572 0.988031 8.11926 1.3045C7.80279 1.62097 7.625 2.05019 7.625 2.49774V4.18974C5.83479 4.18974 4.1179 4.9009 2.85203 6.16677C1.58616 7.43264 0.875 9.14953 0.875 10.9397V24.4397C0.875 26.23 1.58616 27.9468 2.85203 29.2127C4.1179 30.4786 5.83479 31.1897 7.625 31.1897H23.375C25.1652 31.1897 26.8821 30.4786 28.148 29.2127C29.4138 27.9468 30.125 26.23 30.125 24.4397V10.9397C30.125 9.14953 29.4138 7.43264 28.148 6.16677C26.8821 4.9009 25.1652 4.18974 23.375 4.18974V2.50224C23.375 2.05469 23.1972 1.62547 22.8807 1.309C22.5643 0.992531 22.1351 0.814742 21.6875 0.814742C21.2399 0.814742 20.8107 0.992531 20.4943 1.309C20.1778 1.62547 20 2.05469 20 2.50224V4.18974ZM4.25 16.5647V24.4397C4.25 25.3348 4.60558 26.1933 5.23851 26.8262C5.87145 27.4592 6.72989 27.8147 7.625 27.8147H23.375C24.2701 27.8147 25.1286 27.4592 25.7615 26.8262C26.3944 26.1933 26.75 25.3348 26.75 24.4397V16.5647H4.25Z" fill="#550805"/>
</svg>
