<svg width="48" height="38" viewBox="0 0 48 38" fill="none" xmlns="http://www.w3.org/2000/svg">
<g clip-path="url(#clip0_281_2932)">
<path d="M0.334856 2.06551C0.254808 13.1567 0.172334 24.2478 0.0922852 35.3389C0.819999 36.1597 1.54771 36.9829 2.27543 37.8036H45.9383C46.5859 37.1456 47.2312 36.49 47.8788 35.8319C47.7988 24.6594 47.7163 13.4845 47.6363 2.31198C47.2312 1.6539 46.8285 0.998294 46.4234 0.34022C31.7066 0.25642 16.9898 0.175085 2.27543 0.09375C1.62776 0.74936 0.980096 1.40743 0.334856 2.06551Z" stroke="#550805" stroke-width="0.407514" stroke-miterlimit="10"/>
<path d="M46.4232 0.34022C31.7064 0.25642 16.9896 0.175085 2.27527 0.09375C9.75374 5.88579 17.2346 11.6778 24.7131 17.4699C31.949 11.7592 39.1873 6.05093 46.4232 0.34022Z" fill="#550805"/>
<path d="M47.7575 2.18848C41.8557 7.19921 35.9516 12.2124 30.0498 17.2231C36.034 23.3849 42.0158 29.5466 48.0001 35.7084C47.92 24.5359 47.8376 13.361 47.7575 2.18848Z" fill="#550805"/>
<path d="M0.456072 1.94189C6.92545 7.03643 13.3924 12.1285 19.8618 17.223C13.3123 23.2196 6.76292 29.2162 0.213501 35.2153C0.293549 24.1242 0.373598 13.033 0.456072 1.94189Z" fill="#550805"/>
<path d="M2.39661 37.68C8.78351 31.4369 15.1728 25.1913 21.5597 18.9482C22.6101 19.8528 23.6628 20.7549 24.7132 21.6594C25.846 20.7549 26.9764 19.8528 28.1092 18.9482C34.0934 25.1913 40.0752 31.4369 46.0594 37.68H2.39661Z" fill="#550805"/>
</g>
<defs>
<clipPath id="clip0_281_2932">
<rect width="48" height="37.8947" fill="white"/>
</clipPath>
</defs>
</svg>
