<svg width="26" height="48" viewBox="0 0 26 48" fill="none" xmlns="http://www.w3.org/2000/svg">
<g clip-path="url(#clip0_281_2915)">
<path d="M25.7998 2.46929C25.2355 0.828104 23.5392 0.180313 23.0317 0.0200348L22.9682 0L3.38087 0.156939L3.30741 0.163617C2.9401 0.23207 2.58783 0.350609 2.26059 0.512557C0.868174 1.20543 0.260452 2.52772 0.0200348 3.25565L0 3.3191V44.5039L0.00834783 44.5457C0.0834783 44.903 0.198678 45.2486 0.350609 45.5741C0.943304 46.8413 1.96842 47.5693 2.72473 47.9549L2.81489 48H22.6226C22.9265 47.9766 23.2253 47.9182 23.5075 47.8214C24.9216 47.3422 25.6412 46.1017 25.9434 45.4055L25.9784 45.3254V3.53948C25.9768 3.16884 25.9167 2.80821 25.7998 2.46929ZM15.4886 3.76487C18.1549 3.76487 18.1549 3.92849 18.1549 4.08877C18.1549 4.24904 18.1549 4.41266 15.4886 4.41266C12.8223 4.41266 12.8223 4.24904 12.8223 4.08877C12.8223 3.92849 12.8223 3.76487 15.4886 3.76487ZM10.6468 3.44765C11.0859 3.44765 11.4432 3.80494 11.4432 4.24403C11.4432 4.68313 11.0859 5.04042 10.6468 5.04042C10.2077 5.04042 9.85043 4.68313 9.85043 4.24403C9.85043 3.80494 10.2077 3.44765 10.6468 3.44765ZM13.0677 45.5741C12.0225 45.5741 11.1727 44.7243 11.1727 43.6792C11.1727 42.634 12.0225 41.7842 13.0677 41.7842C14.1128 41.7842 14.9626 42.634 14.9626 43.6792C14.9626 44.7243 14.1128 45.5741 13.0677 45.5741ZM23.7913 40.0362H2.18713V7.65329H23.9516L23.7913 40.0362Z" fill="#550805"/>
<path d="M10.6468 4.53976C10.8104 4.53976 10.9423 4.40619 10.9423 4.24424C10.9423 4.0823 10.8088 3.94873 10.6468 3.94873C10.4849 3.94873 10.3513 4.0823 10.3513 4.24424C10.3513 4.40619 10.4849 4.53976 10.6468 4.53976Z" fill="#550805"/>
<path d="M13.0677 42.4507C12.3915 42.4507 11.8406 43.0016 11.8406 43.6778C11.8406 44.354 12.3915 44.9049 13.0677 44.9049C13.7439 44.9049 14.2948 44.354 14.2948 43.6778C14.2948 43.0016 13.7439 42.4507 13.0677 42.4507Z" fill="#550805"/>
<path d="M8.86876 23.7768C9.12253 23.7768 9.64844 23.4596 11.0475 22.0605C13.051 20.057 12.8373 19.8433 12.6487 19.6563C12.3648 19.3725 11.9758 19.6947 11.5651 20.0353C11.1928 20.3441 10.7236 20.7782 10.2445 21.2574C8.241 23.2609 8.4547 23.4746 8.64336 23.6616C8.70013 23.7183 8.75856 23.7768 8.86876 23.7768Z" fill="#550805"/>
<path d="M10.4348 25.7767C9.57999 26.7117 9.32121 26.9922 9.60504 27.2777C9.6785 27.3511 9.75196 27.3879 9.83711 27.3879C10.0792 27.3879 10.4131 27.0823 11.106 26.4479C11.7421 25.8652 12.5652 25.0722 13.425 24.2124C14.2848 23.3525 15.0795 22.5294 15.6606 21.8933C16.5154 20.9584 16.7742 20.6779 16.4903 20.3924C16.2065 20.1086 15.9243 20.3657 14.9894 21.2222C14.3533 21.8048 13.5302 22.5979 12.6704 23.4577C11.8105 24.3175 11.0158 25.1406 10.4348 25.7767Z" fill="#550805"/>
<path d="M14.6187 25.63C12.6153 27.6334 12.829 27.8471 13.0176 28.0341C13.0744 28.0909 13.1328 28.1493 13.243 28.1493C13.4968 28.1493 14.0227 27.8321 15.4218 26.433C17.4253 24.4295 17.2116 24.2158 17.0229 24.0288C16.7391 23.745 16.3501 24.0672 15.9394 24.4078C15.5671 24.7167 15.0979 25.1508 14.6187 25.63Z" fill="#550805"/>
</g>
<defs>
<clipPath id="clip0_281_2915">
<rect width="25.9784" height="48" fill="white"/>
</clipPath>
</defs>
</svg>
