<svg width="48" height="48" viewBox="0 0 48 48" fill="none" xmlns="http://www.w3.org/2000/svg">
<g clip-path="url(#clip0_308_952)">
<mask id="mask0_308_952" style="mask-type:luminance" maskUnits="userSpaceOnUse" x="0" y="0" width="48" height="48">
<path d="M0 0H48V48H0V0Z" fill="white"/>
</mask>
<g mask="url(#mask0_308_952)">
<path fill-rule="evenodd" clip-rule="evenodd" d="M7.49997 18.0001L16.218 6.78913C17.0537 5.71546 18.233 4.96159 19.5583 4.65382C20.8836 4.34605 22.2745 4.50306 23.4978 5.09856C24.7212 5.69407 25.7027 6.69188 26.278 7.92485C26.8533 9.15782 26.9875 10.551 26.658 11.8711L25.878 15.0001H42.174C43.6096 14.9995 44.9948 15.529 46.064 16.4869C47.1333 17.4449 47.8112 18.7638 47.9677 20.1909C48.1242 21.6179 47.7484 23.0525 46.9122 24.2194C46.0761 25.3864 44.8386 26.2035 43.437 26.5141L34.5 28.5001L33.129 36.7321C32.923 37.9697 32.4606 39.1505 31.7713 40.1988C31.0821 41.2472 30.1813 42.1398 29.1268 42.8195C28.0723 43.4991 26.8873 43.9508 25.6479 44.1455C24.4085 44.3403 23.1421 44.2737 21.93 43.9501L8.99997 40.5001L7.49997 18.0001ZM23.091 39.6001L13.275 36.9841L12.105 19.4101L19.77 9.55213C19.9725 9.29407 20.2574 9.11326 20.5772 9.03987C20.8969 8.96648 21.2322 9.00494 21.527 9.14884C21.8218 9.29274 22.0584 9.53337 22.1972 9.8306C22.3361 10.1278 22.3688 10.4637 22.29 10.7821L21.51 13.9081L20.112 19.5001H42.174C42.5019 19.4982 42.8189 19.6179 43.0637 19.8361C43.3086 20.0542 43.4639 20.3554 43.4997 20.6813C43.5355 21.0073 43.4492 21.335 43.2576 21.6011C43.0659 21.8672 42.7825 22.0528 42.462 22.1221L33.522 24.1081L30.561 24.7681L30.063 27.7591L28.689 35.9911C28.586 36.6097 28.3548 37.2 28.0103 37.724C27.6658 38.2481 27.2155 38.6943 26.6884 39.0341C26.1613 39.3739 25.569 39.5998 24.9495 39.6973C24.33 39.7948 23.6969 39.7617 23.091 39.6001ZM1.50597 39.9091C1.55836 40.4964 1.8392 41.0397 2.28806 41.422C2.73693 41.8044 3.31794 41.9953 3.9061 41.9536C4.49425 41.9119 5.04255 41.641 5.43302 41.1992C5.82348 40.7574 6.02491 40.1799 5.99397 39.5911L4.49397 18.5911C4.47828 18.2926 4.40327 18.0002 4.27331 17.731C4.14335 17.4618 3.96105 17.2212 3.73707 17.0233C3.51308 16.8253 3.25189 16.674 2.96876 16.5781C2.68562 16.4822 2.38622 16.4437 2.08804 16.4648C1.78986 16.486 1.49888 16.5663 1.2321 16.7011C0.965316 16.836 0.728076 17.0226 0.534238 17.2502C0.340399 17.4778 0.193849 17.7417 0.103147 18.0265C0.0124446 18.3113 -0.0205909 18.6114 0.00597001 18.9091L1.50597 39.9091Z" fill="#062A37"/>
</g>
</g>
<defs>
<clipPath id="clip0_308_952">
<rect width="48" height="48" fill="white"/>
</clipPath>
</defs>
</svg>
