<svg width="24" height="24" viewBox="0 0 24 24" fill="none" xmlns="http://www.w3.org/2000/svg">
<path d="M20.4488 19.6462L14.73 10.665L20.3288 4.50656C20.5252 4.28511 20.6265 3.99515 20.6106 3.69955C20.5947 3.40394 20.4629 3.12652 20.2438 2.92742C20.0248 2.72833 19.736 2.62361 19.4403 2.63596C19.1445 2.64832 18.8655 2.77676 18.6638 2.99344L13.4822 8.69719L9.94879 3.14625C9.84724 2.98659 9.70707 2.85512 9.54123 2.76401C9.37539 2.6729 9.18926 2.62509 9.00004 2.625H4.50004C4.29851 2.62509 4.10071 2.67932 3.92731 2.78201C3.75391 2.88469 3.61128 3.03208 3.51432 3.20874C3.41736 3.38541 3.36964 3.58488 3.37614 3.78631C3.38265 3.98773 3.44314 4.1837 3.55129 4.35375L9.27004 13.335L3.66754 19.4934C3.5661 19.6024 3.4873 19.7304 3.4357 19.8701C3.3841 20.0097 3.36073 20.1582 3.36695 20.3069C3.37316 20.4557 3.40884 20.6017 3.4719 20.7366C3.53497 20.8714 3.62418 20.9924 3.73435 21.0925C3.84452 21.1927 3.97347 21.2699 4.11373 21.3198C4.25398 21.3698 4.40275 21.3914 4.5514 21.3834C4.70006 21.3754 4.84565 21.3379 4.97974 21.2733C5.11383 21.2086 5.23374 21.1179 5.33254 21.0066L10.5179 15.3028L14.0513 20.8537C14.1528 21.0134 14.293 21.1449 14.4588 21.236C14.6247 21.3271 14.8108 21.3749 15 21.375H19.5C19.7016 21.3749 19.8994 21.3207 20.0728 21.218C20.2462 21.1153 20.3888 20.9679 20.4858 20.7913C20.5827 20.6146 20.6304 20.4151 20.6239 20.2137C20.6174 20.0123 20.5569 19.8163 20.4488 19.6462ZM15.6179 19.125L6.54941 4.875H8.38223L17.4507 19.125H15.6179Z" fill="#062A37"/>
</svg>
