<svg width="56" height="75" viewBox="0 0 56 75" fill="none" xmlns="http://www.w3.org/2000/svg">
<g clip-path="url(#clip0_255_4725)">
<path d="M28.7888 40.2155C30.7403 39.9384 32.4688 38.5714 33.1564 36.7057C33.937 34.5997 33.2679 32.0874 31.5209 30.6096C30.0712 29.3719 28.3242 29.2611 27.6365 29.2795C27.2834 29.298 24.7186 29.5382 23.2876 31.8658C22.3397 33.399 22.2468 35.3202 23.0088 36.9827C24.0124 39.181 26.4471 40.5295 28.7888 40.2155ZM29.2349 30.7389L30.4429 31.367L28.6959 34.6367L30.2571 36.2438L29.2721 37.1859L27.0232 34.8584L29.2349 30.7204V30.7389Z" fill="#A82D28"/>
<path d="M34.5318 50.3756C32.2272 47.5308 28.2313 47.032 25.4993 47.7709C24.8116 47.9556 21.3547 49.0271 19.9236 52.2783C19.6077 53.0172 19.4032 53.8116 19.3475 54.6428L19.2731 70.3448L36.2045 70.3079L36.1301 53.8855C35.9071 52.6293 35.3495 51.3731 34.5318 50.3756Z" fill="#A82D28"/>
<path d="M55.2731 39.569C50.9055 37.8695 46.5379 36.1515 42.1518 34.452C42.1146 31.1823 42.0774 27.9126 42.0403 24.6429C37.5798 20.5234 33.1193 16.4224 28.6588 12.303C28.6588 10.0677 28.6588 7.85099 28.6773 5.61576C30.889 5.56034 33.0821 5.5234 35.2938 5.46798C34.8477 4.54433 34.3831 3.62069 33.937 2.69704C34.3459 1.79187 34.7548 0.905172 35.1822 0C32.5989 0 29.7739 0 27.1905 0C27.1162 4.1564 27.2648 8.33128 27.1905 12.4692L14.0134 24.6244V34.5443C9.34848 36.0961 4.66495 37.6663 0 39.218C0.0371709 51.0961 0.0743418 62.9926 0.111513 74.8707C18.5297 74.9076 36.9479 74.9446 55.3846 74.9815C55.3474 63.1773 55.3103 51.3547 55.2731 39.5505V39.569ZM22.1167 31.1638C23.9195 28.2081 27.2091 27.9495 27.5808 27.931H27.5994C28.6588 27.931 30.666 28.0973 32.413 29.5936C34.6061 31.4778 35.4239 34.5259 34.4202 37.186C33.5467 39.5135 31.4094 41.2315 28.9561 41.564C28.6588 41.601 28.3614 41.6195 28.064 41.6195C25.4063 41.6195 22.8973 40.0308 21.745 37.5554C20.7785 35.4865 20.9272 33.085 22.0981 31.1638H22.1167ZM4.20031 71.7303L4.44192 48.7685H5.79866L5.57563 70.3818H8.88384L8.8095 46.4224H10.1662L10.2406 70.3818H13.4744V43.984H14.8312V70.3818H17.8978L17.9721 54.6244C18.0465 53.5899 18.2695 52.6478 18.6598 51.7611C20.3325 47.9557 24.3469 46.6995 25.1275 46.4963C28.38 45.6281 32.8776 46.2377 35.5725 49.5628C36.539 50.7451 37.1895 52.2229 37.4497 53.8116L37.5426 70.3633H40.7765V43.9286H42.1332V70.3448H45.5157L45.2741 46.367H46.6309L46.8725 70.3448H50.1063L49.9577 49.0456H51.3144L51.4817 71.6934L4.16314 71.7672L4.20031 71.7303Z" fill="#A82D28"/>
</g>
<defs>
<clipPath id="clip0_255_4725">
<rect width="55.3846" height="75" fill="white"/>
</clipPath>
</defs>
</svg>
