<svg width="117" height="75" viewBox="0 0 117 75" fill="none" xmlns="http://www.w3.org/2000/svg">
<g clip-path="url(#clip0_255_4692)">
<path d="M0.183689 74.7354C0.23327 68.7526 0.266324 62.7863 0.315906 56.8035C1.27448 54.969 2.71234 52.7543 4.89391 50.6554C10.8437 44.904 18.1156 43.9454 20.8591 43.714C19.9501 49.7299 19.0246 55.7623 18.1156 61.7781C19.6361 63.2986 21.1731 64.8357 22.6936 66.3562C24.3133 64.7365 25.9164 63.1334 27.536 61.5137C26.3626 55.4978 25.1727 49.4655 23.9992 43.4496C25.6189 43.4496 27.8335 43.6644 30.2795 44.4908C31.5521 44.9205 32.6429 45.4328 33.5519 45.9287C34.6923 44.904 35.9483 43.8958 37.3531 42.9207C44.2119 38.1279 51.2855 36.3099 56.4585 35.5992L52.9217 58.2413L58.4252 64.2572C60.3093 62.3731 62.1769 60.5056 64.061 58.6215L59.9953 35.186C62.5735 35.2356 66.4904 35.6323 70.8536 37.4172C77.0843 39.9624 80.9186 43.9619 82.7696 46.1931C84.0753 45.5981 85.6453 44.9866 87.4799 44.4908C89.3309 43.995 91.0167 43.714 92.4545 43.5818C91.7108 49.8621 90.9671 56.1424 90.2234 62.4227C91.6612 63.9101 93.0991 65.3976 94.5369 66.8685C95.9748 65.2488 97.4126 63.6457 98.8505 62.026C97.7597 56.0102 96.6689 49.9778 95.5781 43.9619C97.3631 43.8793 99.4785 44.0115 101.726 44.623C110.7 47.0194 115.146 55.0516 116.254 57.1836C116.336 63.1168 116.435 69.0501 116.518 74.9833C77.7289 74.9007 38.9397 74.8015 0.150635 74.7189L0.183689 74.7354Z" fill="#A82D28"/>
<path d="M22.7597 40.4416C29.6603 40.4416 35.2542 34.8476 35.2542 27.9471C35.2542 21.0466 29.6603 15.4526 22.7597 15.4526C15.8592 15.4526 10.2653 21.0466 10.2653 27.9471C10.2653 34.8476 15.8592 40.4416 22.7597 40.4416Z" fill="#A82D28"/>
<path d="M94.3552 40.4416C101.256 40.4416 106.85 34.8476 106.85 27.9471C106.85 21.0466 101.256 15.4526 94.3552 15.4526C87.4546 15.4526 81.8607 21.0466 81.8607 27.9471C81.8607 34.8476 87.4546 40.4416 94.3552 40.4416Z" fill="#A82D28"/>
<path d="M58.4417 31.7981C67.2226 31.7981 74.3408 24.6799 74.3408 15.8991C74.3408 7.11826 67.2226 0 58.4417 0C49.6609 0 42.5427 7.11826 42.5427 15.8991C42.5427 24.6799 49.6609 31.7981 58.4417 31.7981Z" fill="#A82D28"/>
</g>
<defs>
<clipPath id="clip0_255_4692">
<rect width="116.367" height="75" fill="white" transform="translate(0.183716)"/>
</clipPath>
</defs>
</svg>
