<svg width="122" height="75" viewBox="0 0 122 75" fill="none" xmlns="http://www.w3.org/2000/svg">
<g clip-path="url(#clip0_255_4813)">
<path d="M0 74.8013C17.5571 74.8625 35.1142 74.9236 52.6866 75.0001C52.8701 73.3178 52.9466 70.7944 52.3042 67.858C50.3772 59.1253 43.6022 54.369 41.8893 53.1914C32.0861 46.5081 21.3652 49.1845 20.0805 49.5209C12.0973 51.6467 7.448 56.9383 5.61277 59.3547C0.764682 65.7169 0.122349 72.3237 0 74.8013Z" fill="#A82D28"/>
<path d="M26.3968 42.9753C34.2858 42.9753 40.6811 36.58 40.6811 28.691C40.6811 20.802 34.2858 14.4067 26.3968 14.4067C18.5078 14.4067 12.1125 20.802 12.1125 28.691C12.1125 36.58 18.5078 42.9753 26.3968 42.9753Z" fill="#A82D28"/>
<path d="M34.7625 1.08594V60.6699C63.6674 60.5629 92.5724 60.4558 121.477 60.3488" stroke="#A82D28" stroke-width="2" stroke-miterlimit="10"/>
<path d="M112.959 14.4067C113.112 29.6086 113.28 44.8105 113.448 60.0124" stroke="#A82D28" stroke-width="2" stroke-miterlimit="10"/>
<path d="M104.777 19.5454C105.037 32.9273 105.312 46.3093 105.587 59.6912" stroke="#A82D28" stroke-width="2" stroke-miterlimit="10"/>
<path d="M96.2582 24.21C96.3194 36.2613 96.3652 48.2974 96.4264 60.3488" stroke="#A82D28" stroke-width="2" stroke-miterlimit="10"/>
<path d="M88.229 29.9907L87.9078 60.0274" stroke="#A82D28" stroke-width="2" stroke-miterlimit="10"/>
<path d="M79.5575 36.8882V59.5381" stroke="#A82D28" stroke-width="2" stroke-miterlimit="10"/>
<path d="M71.0543 26.29L71.3754 60.0125" stroke="#A82D28" stroke-width="2" stroke-miterlimit="10"/>
<path d="M62.8569 31.918C62.918 41.4459 62.9639 50.9738 63.0251 60.5018" stroke="#A82D28" stroke-width="2" stroke-miterlimit="10"/>
<path d="M54.5065 37.3779C54.3995 45.0859 54.2924 52.7939 54.1854 60.5019" stroke="#A82D28" stroke-width="2" stroke-miterlimit="10"/>
<path d="M46.0033 43.6328C46.0645 49.1997 46.1104 54.7666 46.1715 60.3335" stroke="#A82D28" stroke-width="2" stroke-miterlimit="10"/>
<path d="M44.3975 28.2166C54.2466 22.4356 64.0957 16.6546 73.9448 10.8736C75.6118 13.7641 77.2635 16.6546 78.9305 19.5451C88.3055 14.6206 97.6652 9.69604 107.04 4.77148" stroke="#A82D28" stroke-width="2" stroke-miterlimit="10"/>
<path d="M109.044 7.26448L107.331 4.80221L105.572 2.15641L108.738 1.91171L111.735 1.71289L110.405 4.54221L109.044 7.26448Z" fill="#A82D28" stroke="#A82D28" stroke-width="2" stroke-miterlimit="10"/>
</g>
<defs>
<clipPath id="clip0_255_4813">
<rect width="121.477" height="75" fill="white"/>
</clipPath>
</defs>
</svg>
