<svg width="74" height="75" viewBox="0 0 74 75" fill="none" xmlns="http://www.w3.org/2000/svg">
<g clip-path="url(#clip0_255_4740)">
<path d="M73.2511 47.7597L47.5676 32.3263C47.3392 32.1893 47.0972 32.1071 46.8506 32.082C46.604 32.0569 46.2501 32.082 45.8368 32.292C46.0628 32.0614 46.3231 31.6984 46.3939 31.2029C46.4168 31.043 46.419 30.8786 46.3985 30.7165L46.2021 0.445698L46.0035 0.310978C45.8071 0.178542 45.2842 -0.113731 44.6563 0.0529561C44.4713 0.100907 44.2978 0.183109 44.1425 0.299561L1.23774 21.3569L1.18751 21.382L1.14413 21.4163C0.379192 22.0579 0.0184176 22.6014 0.00700072 23.1243C0.00015057 23.4074 -0.00213281 23.6038 0.00700072 23.7431V23.7476C0.00700072 23.7476 0.00700072 23.7545 0.00700072 23.7568C0.00700072 25.709 1.08247 55.8314 1.18066 56.5713C1.22404 56.8909 1.3542 57.1284 1.56883 57.2768C1.71269 57.3773 1.88166 57.4275 2.07118 57.4275C2.22188 57.4275 2.38857 57.3956 2.56667 57.3316L2.59636 57.3202L2.54841 57.3522C2.46392 57.423 2.384 57.5006 2.31093 57.5874C2.29495 57.6056 1.92276 58.0532 1.84056 58.7291C1.79261 59.1355 1.71725 59.7474 11.5449 65.4171C16.7488 68.4197 22.6604 71.6439 25.8366 73.3747C26.9738 73.9958 27.725 74.4045 27.8871 74.5004C27.9373 74.5301 28.088 74.6214 28.3073 74.715C28.7479 74.9023 29.2275 74.9959 29.7412 74.9959C29.9604 74.9959 30.1842 74.9799 30.4148 74.9456L30.4787 74.9365L73.2214 50.2851C73.6918 50.0385 73.984 49.5544 73.9886 49.0224C73.9932 48.4904 73.7055 48.004 73.2511 47.7574V47.7597ZM4.58747 53.749C4.43448 53.8015 4.29519 53.8289 4.16732 53.8289C4.00977 53.8289 3.87277 53.7901 3.75632 53.7102C3.57821 53.5914 3.46861 53.3951 3.43208 53.1302C3.34302 52.4886 2.37259 26.1543 2.3703 24.3619C2.35889 24.2454 2.36345 24.0696 2.3703 23.791C2.37944 23.348 2.70139 22.8845 3.37956 22.3342L3.44806 22.2908L42.2861 3.81369C42.4231 3.7155 42.5715 3.647 42.7314 3.6059C43.2703 3.4689 43.7201 3.71322 43.8868 3.82282L44.0398 3.92329V4.10596L44.2179 30.4539C44.2361 30.5932 44.2338 30.7348 44.2156 30.8718C44.1334 31.4221 43.768 31.7829 43.558 31.9473L43.5146 31.9769L4.61715 53.7399L4.58747 53.749ZM59.5234 56.7882L59.4754 56.8795L47.7525 63.4762C47.6247 63.5561 47.474 63.6246 47.321 63.6794C47.0607 63.7685 46.8072 63.8027 46.5743 63.8027C46.2729 63.8027 46.0035 63.7456 45.798 63.684L45.7226 63.6497L40.1101 60.2977C39.7721 60.1425 39.5849 59.9347 39.5529 59.6812C39.4867 59.1401 40.1786 58.7861 40.4731 58.6331L40.6444 58.93L40.4868 58.6263C41.4824 58.1148 46.4807 55.2652 51.7325 52.2625C51.8581 52.1803 52.0133 52.1072 52.1755 52.057C52.6298 51.9154 53.0431 51.9771 53.3103 52.057L53.3879 52.089L59.206 55.4501C59.3339 55.5277 59.432 55.6214 59.5051 55.7333C59.8111 56.1876 59.5759 56.6923 59.5257 56.7905L59.5234 56.7882ZM60.4641 44.5766L24.5123 65.8075C24.3753 65.8852 24.2383 65.9537 24.0967 66.013C23.6035 66.2231 23.0578 66.3304 22.4869 66.3304C22.1513 66.3304 21.8065 66.2939 21.4594 66.2208L21.4069 66.2094L7.88467 58.5509C7.35721 58.3021 7.04667 57.9733 6.95762 57.5759C6.9462 57.528 6.864 57.0873 7.19052 56.5735C7.35493 56.3132 7.86184 55.5209 44.3686 35.0504C44.5558 34.886 44.7636 34.7512 44.9874 34.6485C45.5673 34.3791 46.1245 34.3836 46.4898 34.4339L46.556 34.443L46.6131 34.475L60.6833 42.501C60.8181 42.5924 61.1377 42.8504 61.2039 43.2911C61.2816 43.8026 60.9779 44.33 60.4641 44.5766Z" fill="#A82D28"/>
<path d="M43.5578 31.9467C43.7679 31.7823 44.1332 31.4215 44.2154 30.8712C44.236 30.7342 44.236 30.5949 44.2177 30.4534L44.0419 4.10539V3.92272L43.8889 3.82225C43.7199 3.71037 43.2701 3.46833 42.7335 3.60533C42.5737 3.64643 42.4252 3.71494 42.2882 3.81312L3.4456 22.2925L3.3771 22.3359C2.69893 22.8862 2.37697 23.3497 2.36784 23.7927C2.36099 24.0713 2.35871 24.2448 2.36784 24.3636C2.37012 26.1537 3.34056 52.488 3.42961 53.1319C3.46615 53.3968 3.57575 53.5909 3.75385 53.7119C3.87259 53.7918 4.00959 53.8306 4.16486 53.8306C4.29273 53.8306 4.4343 53.8032 4.58501 53.7507L4.61469 53.7416L43.5121 31.9787L43.5555 31.949L43.5578 31.9467ZM43.3454 31.6772C30.3895 38.927 17.4313 46.1744 4.4754 53.4242C4.27675 53.4927 4.08266 53.5155 3.94566 53.4242C3.80409 53.3283 3.77897 53.1456 3.76984 53.0817C3.64197 52.1729 2.69893 24.4047 2.71035 24.3133C2.71035 24.4846 2.70578 23.9708 2.71035 23.7996C2.71491 23.5598 2.87703 23.1831 3.59402 22.6008C16.5499 16.4357 29.5081 10.2705 42.4641 4.10768C42.544 4.04831 42.6627 3.97524 42.818 3.93642C43.2564 3.82454 43.6286 4.05973 43.7016 4.10768C43.761 12.8987 43.8204 21.6874 43.8775 30.4785C43.8912 30.5767 43.8957 30.6931 43.8775 30.821C43.809 31.2891 43.471 31.5813 43.3477 31.6772H43.3454Z" fill="#A82D28"/>
<path d="M43.8775 30.4786C43.8181 21.6876 43.7588 12.8989 43.7017 4.10785C43.6286 4.05989 43.2564 3.82471 42.818 3.93659C42.6628 3.97541 42.544 4.04848 42.4641 4.10785C29.5082 10.273 16.55 16.4381 3.59407 22.601C2.87709 23.1832 2.71497 23.5577 2.7104 23.7997C2.70584 23.971 2.7104 24.4848 2.7104 24.3135C2.69899 24.4048 3.64202 52.1731 3.76989 53.0818C3.77903 53.1458 3.80414 53.3285 3.94571 53.4244C4.08272 53.5157 4.2768 53.4929 4.47546 53.4244C17.4314 46.1746 30.3896 38.9272 43.3455 31.6774C43.4688 31.5815 43.8067 31.2892 43.8752 30.8211C43.8935 30.6933 43.8889 30.5768 43.8752 30.4786H43.8775ZM43.5373 30.7709C43.4916 31.0723 43.2861 31.2847 43.1537 31.392L4.33617 53.1092C4.20374 53.1526 4.14665 53.1412 4.1398 53.1412C4.1398 53.1412 4.11925 53.1115 4.10783 53.0339C3.98681 52.1685 3.06204 24.8181 3.05063 24.3226V24.3135C3.05063 24.2222 3.05063 23.9276 3.05063 23.8066C3.05063 23.7084 3.12826 23.423 3.77674 22.891L42.6102 4.4161L42.6696 4.37957C42.7404 4.32477 42.818 4.28823 42.9002 4.26768C43.076 4.22201 43.2405 4.26312 43.3569 4.31335L43.5327 30.4809L43.5373 30.5266C43.5487 30.6088 43.5487 30.691 43.5373 30.7709Z" fill="#A82D28"/>
<path d="M23.6535 23.8681C23.4069 23.7311 23.0964 23.5599 21.4135 26.5876C21.0025 27.3252 20.644 28.0353 20.3997 28.5879C20.1006 29.2683 19.9316 29.7296 20.2833 29.9259C20.3449 29.9602 20.4066 29.9762 20.4682 29.9762C20.7468 29.9762 21.0139 29.6245 21.3587 29.1199C21.699 28.6221 22.1122 27.9417 22.5233 27.2041C24.2084 24.1764 23.9001 24.0051 23.6535 23.8658V23.8681Z" fill="#A82D28"/>
<path d="M28.524 23.4366C28.1907 23.2493 28.0308 23.416 27.1038 24.9208C26.5398 25.8364 25.8228 27.074 25.083 28.4006C22.1603 33.6524 22.3566 33.762 22.6786 33.9401C22.7334 33.9698 22.7859 33.9995 22.8476 33.9995C23.149 33.9995 23.697 33.3282 26.1174 28.9761C29.0401 23.7243 28.8437 23.6147 28.5218 23.4366H28.524Z" fill="#A82D28"/>
<path d="M30.4078 27.6244C30.1612 27.4851 29.8506 27.3161 28.1678 30.3439C26.4826 33.3717 26.7909 33.5429 27.0375 33.6822C27.0991 33.7165 27.1608 33.7324 27.2224 33.7324C27.501 33.7324 27.7682 33.3808 28.113 32.8762C28.4532 32.3784 28.8688 31.698 29.2775 30.9604C30.9626 27.9327 30.6544 27.7614 30.4078 27.6221V27.6244Z" fill="#A82D28"/>
</g>
<defs>
<clipPath id="clip0_255_4740">
<rect width="73.9885" height="75" fill="white"/>
</clipPath>
</defs>
</svg>
