<svg width="66" height="75" viewBox="0 0 66 75" fill="none" xmlns="http://www.w3.org/2000/svg">
<g clip-path="url(#clip0_255_4493)">
<path d="M0 74.7507C21.9427 74.8274 43.8853 74.9042 65.8471 75.0001C66.0765 72.8896 66.172 69.7238 65.3692 66.04C62.9609 55.0845 54.4935 49.1176 52.3527 47.6402C40.1008 39.2557 26.702 42.6133 25.0964 43.0354C15.119 45.7024 9.30843 52.3409 7.01477 55.3724C0.955691 63.3539 0.152911 71.6233 0 74.7507Z" fill="#A82D28"/>
<path d="M32.9905 35.8404C42.85 35.8404 50.8428 27.8172 50.8428 17.9202C50.8428 8.02314 42.85 0 32.9905 0C23.1309 0 15.1382 8.02314 15.1382 17.9202C15.1382 27.8172 23.1309 35.8404 32.9905 35.8404Z" fill="#A82D28"/>
</g>
<defs>
<clipPath id="clip0_255_4493">
<rect width="66" height="75" fill="white"/>
</clipPath>
</defs>
</svg>
