<svg width="41" height="75" viewBox="0 0 41 75" fill="none" xmlns="http://www.w3.org/2000/svg">
<g clip-path="url(#clip0_255_4782)">
<path d="M40.3122 3.85826C39.4304 1.29391 36.78 0.281739 35.987 0.0313043L35.8878 0L5.28261 0.245217L5.16783 0.255652C4.59391 0.362609 4.04348 0.547826 3.53217 0.80087C1.35652 1.88348 0.406957 3.94957 0.0313043 5.08696L0 5.18609V69.5374L0.0130435 69.6026C0.130435 70.1609 0.310435 70.7009 0.547826 71.2096C1.47391 73.1896 3.07565 74.327 4.25739 74.9296L4.39826 75H35.3478C35.8226 74.9635 36.2896 74.8722 36.7304 74.7209C38.94 73.9722 40.0643 72.0339 40.5365 70.9461L40.5913 70.8209V5.53044C40.5887 4.9513 40.4948 4.38783 40.3122 3.85826ZM24.2009 5.88261C28.367 5.88261 28.367 6.13826 28.367 6.3887C28.367 6.63913 28.367 6.89478 24.2009 6.89478C20.0348 6.89478 20.0348 6.63913 20.0348 6.3887C20.0348 6.13826 20.0348 5.88261 24.2009 5.88261ZM16.6357 5.38696C17.3217 5.38696 17.88 5.94522 17.88 6.6313C17.88 7.31739 17.3217 7.87565 16.6357 7.87565C15.9496 7.87565 15.3913 7.31739 15.3913 6.6313C15.3913 5.94522 15.9496 5.38696 16.6357 5.38696ZM20.4183 71.2096C18.7852 71.2096 17.4574 69.8817 17.4574 68.2487C17.4574 66.6157 18.7852 65.2878 20.4183 65.2878C22.0513 65.2878 23.3791 66.6157 23.3791 68.2487C23.3791 69.8817 22.0513 71.2096 20.4183 71.2096ZM37.1739 62.5565H3.41739V11.9583H37.4244L37.1739 62.5565Z" fill="#A82D28"/>
<path d="M16.6357 7.09291C16.8913 7.09291 17.0974 6.88422 17.0974 6.63117C17.0974 6.37813 16.8887 6.16943 16.6357 6.16943C16.3826 6.16943 16.174 6.37813 16.174 6.63117C16.174 6.88422 16.3826 7.09291 16.6357 7.09291Z" fill="#A82D28"/>
<path d="M20.4182 66.3286C19.3617 66.3286 18.5009 67.1895 18.5009 68.246C18.5009 69.3025 19.3617 70.1634 20.4182 70.1634C21.4748 70.1634 22.3356 69.3025 22.3356 68.246C22.3356 67.1895 21.4748 66.3286 20.4182 66.3286Z" fill="#A82D28"/>
<path d="M13.8574 37.1504C14.254 37.1504 15.0757 36.6548 17.2618 34.4687C20.3922 31.3383 20.0583 31.0044 19.7635 30.7122C19.32 30.2687 18.7122 30.7722 18.0705 31.3044C17.4887 31.787 16.7557 32.4652 16.007 33.2139C12.8766 36.3444 13.2105 36.6783 13.5053 36.9704C13.594 37.0591 13.6853 37.1504 13.8574 37.1504Z" fill="#A82D28"/>
<path d="M16.3044 40.2759C14.9687 41.7368 14.5644 42.175 15.0078 42.6211C15.1226 42.7359 15.2374 42.7933 15.3705 42.7933C15.7487 42.7933 16.2704 42.3159 17.3531 41.3246C18.347 40.4142 19.6331 39.175 20.9765 37.8315C22.32 36.4881 23.5618 35.202 24.4696 34.2081C25.8052 32.7472 26.2096 32.3089 25.7661 31.8628C25.3226 31.4194 24.8818 31.8211 23.4209 33.1594C22.427 34.0698 21.1409 35.3089 19.7974 36.6524C18.4539 37.9959 17.2122 39.282 16.3044 40.2759Z" fill="#A82D28"/>
<path d="M22.8417 40.046C19.7113 43.1764 20.0452 43.5103 20.34 43.8025C20.4287 43.8912 20.52 43.9825 20.6921 43.9825C21.0887 43.9825 21.9104 43.4868 24.0965 41.3007C27.2269 38.1703 26.893 37.8364 26.5982 37.5442C26.1548 37.1007 25.5469 37.6042 24.9052 38.1364C24.3235 38.619 23.5904 39.2973 22.8417 40.046Z" fill="#A82D28"/>
</g>
<defs>
<clipPath id="clip0_255_4782">
<rect width="40.5913" height="75" fill="white"/>
</clipPath>
</defs>
</svg>
