<svg width="124" height="75" viewBox="0 0 124 75" fill="none" xmlns="http://www.w3.org/2000/svg">
<g clip-path="url(#clip0_255_4698)">
<path d="M24.0513 35.0201V61.3683C25.4494 62.6333 27.4467 64.2977 30.01 65.9788C31.1418 66.7112 36.468 70.1399 45.0233 72.5201C49.0513 73.6353 57.3901 75.8656 68.1092 74.634C77.1638 73.5854 83.7051 70.5727 89.4641 67.8929C93.9414 65.829 97.52 63.7318 100.05 62.1173C100.117 53.0794 100.183 44.0414 100.25 34.9868C90.3795 39.7971 72.8029 44.7904 62.9328 49.6007C47.4201 44.7904 39.5972 39.7971 24.0679 34.9868L24.0513 35.0201Z" fill="#A82D28"/>
<path d="M0 20.972C20.6558 13.9814 41.2949 6.99068 61.9507 0C82.5399 7.12383 103.113 14.231 123.702 21.3549C120.123 22.7696 116.528 24.1844 112.949 25.5826L110.885 26.3981C110.852 26.3981 62.4168 45.4893 62.1505 45.5892C41.4281 37.3835 20.7057 29.1778 0 20.972Z" fill="#A82D28"/>
<path d="M111.002 42.5098C110.752 42.593 109.088 43.109 108.505 44.6236C107.856 46.2881 108.738 48.5018 110.819 49.6336C110.17 53.7448 109.537 57.8393 108.888 61.9505C111.069 62.0837 113.249 62.2002 115.429 62.3333C114.664 57.9725 113.898 53.6116 113.116 49.2508C113.266 49.2008 114.864 48.5517 115.23 46.9372C115.563 45.4725 114.714 43.8247 113.116 43.0923" fill="#A82D28"/>
<path d="M113.116 43.0927C113.049 39.4808 113.033 35.819 113.049 32.1073C113.049 29.6939 113.083 27.3137 113.116 24.9502C112.101 25.0168 111.102 25.0667 110.087 25.1333L110.652 43.2591" fill="#A82D28"/>
</g>
<defs>
<clipPath id="clip0_255_4698">
<rect width="123.702" height="75" fill="white"/>
</clipPath>
</defs>
</svg>
